<?xml version="1.0" encoding="UTF-8"?>
<svg version="1.1" xmlns="http://www.w3.org/2000/svg" width="1835" height="1729">
<path d="M0 0 C6.69227959 1.76237968 12.4717462 -0.12643228 18.98046875 -2.0703125 C33.85841187 -6.4202196 48.85927558 -6.78652534 64.27587891 -7.07470703 C66.05971858 -7.10906161 67.8434894 -7.15297176 69.62646484 -7.21826172 C80.74374487 -7.59779508 88.27114342 -2.98273087 97.29296875 2.8671875 C98.27861816 3.49004639 98.27861816 3.49004639 99.28417969 4.12548828 C107.7841568 9.50065973 115.63381158 15.34320354 123.29296875 21.8671875 C124.37583047 22.72195197 125.45907706 23.57622947 126.54296875 24.4296875 C129.52128362 27.0695575 131.98103307 29.91434592 134.484375 33 C138.64679177 37.29726828 143.14941426 38.43980303 148.85546875 39.5546875 C165.15031722 43.10262988 180.17812174 50.10120359 194.29296875 58.8671875 C194.90317871 59.2398877 195.51338867 59.61258789 196.14208984 59.99658203 C197.91848226 61.09484558 199.67098003 62.22283532 201.41796875 63.3671875 C202.41054687 64.016875 203.403125 64.6665625 204.42578125 65.3359375 C211.04648558 71.18091898 214.85279716 79.43159887 218.73046875 87.2421875 C219.20492432 88.19681885 219.67937988 89.1514502 220.16821289 90.13500977 C225.8287684 101.74169663 230.32563329 113.57997152 233.41796875 126.1171875 C235.94870609 136.02746985 240.67647786 140.40781734 248.29296875 146.8671875 C262.29611742 159.11994259 279.04121439 183.61845297 280.49609375 202.50390625 C280.7853826 221.33178901 279.1153291 243.1863845 272.109375 260.8515625 C270.45227675 266.97251871 272.51297433 273.0819468 274.05786133 279.06933594 C277.9976872 294.3595785 279.43022658 309.16216259 279.66796875 324.9296875 C279.69415283 325.96448242 279.72033691 326.99927734 279.74731445 328.06542969 C279.79055977 347.90702294 263.74442638 369.97774352 250.36523438 383.86865234 C247.73833397 386.47592066 245.10486584 389.06528858 242.36816406 391.55761719 C235.9164546 397.60889953 233.44843439 404.3361049 231.48046875 412.8671875 C226.10301274 434.34964533 215.16827617 460.90022737 195.68359375 472.796875 C193.97678124 473.79029841 192.26288483 474.771627 190.54296875 475.7421875 C189.62193359 476.26248535 188.70089844 476.7827832 187.75195312 477.31884766 C175.3374236 484.20044516 162.96561003 489.2642403 149.23046875 492.8046875 C140.61686015 495.06680811 135.20482144 498.0062366 129.29296875 504.8671875 C117.05924071 518.1344132 101.7569612 527.1127098 86.10791016 535.82080078 C84.46254021 536.76942273 82.87323486 537.81367676 81.29296875 538.8671875 C58.98179824 542.65405644 33.38622759 539.94135297 12.01171875 532.765625 C6.36679541 530.90020493 1.98518224 531.87475004 -3.51953125 533.6796875 C-23.02911941 539.99622465 -55.31210709 545.78755227 -74.48046875 536.52734375 C-77.62467962 534.7360708 -80.66063827 532.82018796 -83.70703125 530.8671875 C-85.02671099 530.06322164 -86.34842863 529.26259398 -87.671875 528.46484375 C-101.20859666 520.25757777 -113.24734678 510.79036168 -123.55859375 498.6953125 C-128.11226472 494.82055247 -134.20012903 493.66493496 -139.89550781 492.2331543 C-160.84373348 486.93060544 -187.78823818 475.91846242 -200.70703125 457.8671875 C-203.07001719 453.8355955 -205.15263842 449.68800057 -207.20703125 445.4921875 C-207.77800537 444.33549561 -208.34897949 443.17880371 -208.93725586 441.98706055 C-213.82706079 431.92080452 -218.19439997 421.81215628 -220.62890625 410.8515625 C-222.6961753 401.61996038 -225.75703441 396.31530074 -232.70703125 389.8671875 C-245.88860304 377.31430753 -255.18200214 362.87028185 -263.70703125 346.8671875 C-264.10132324 346.16005615 -264.49561523 345.4529248 -264.90185547 344.72436523 C-268.14070811 338.37078966 -268.2511405 332.59412084 -268.08203125 325.5546875 C-268.06624023 324.41330322 -268.05044922 323.27191895 -268.03417969 322.09594727 C-267.70250321 305.38015335 -266.7911044 287.61081822 -260.51953125 271.890625 C-258.66873257 265.00351839 -261.42002768 257.71618654 -263.14453125 250.9921875 C-266.68370819 236.47839641 -267.87079441 222.61526241 -268.01953125 207.6796875 C-268.03733643 206.52065918 -268.0551416 205.36163086 -268.07348633 204.16748047 C-268.0675105 197.87263156 -267.73965207 193.40206048 -264.70703125 187.8671875 C-264.38984131 187.26189209 -264.07265137 186.65659668 -263.74584961 186.03295898 C-262.70337067 184.06161258 -261.6199937 182.11921989 -260.51953125 180.1796875 C-259.92797241 179.13530518 -259.92797241 179.13530518 -259.32446289 178.06982422 C-252.74658912 166.58456415 -245.50099026 155.45243596 -235.97265625 146.19140625 C-235.30306885 145.53954346 -234.63348145 144.88768066 -233.94360352 144.21606445 C-232.60775203 142.92923504 -231.25972407 141.65489188 -229.89819336 140.39526367 C-225.53446578 136.21787147 -223.28948377 132.68215174 -221.70703125 126.8671875 C-221.49151611 126.10486816 -221.27600098 125.34254883 -221.05395508 124.55712891 C-220.5997304 122.91108081 -220.15450132 121.26252833 -219.7175293 119.61181641 C-213.73940421 97.1755512 -203.30464416 70.27846781 -182.45703125 57.8046875 C-179.90650815 56.42200728 -177.31516686 55.1373074 -174.70703125 53.8671875 C-173.88589844 53.46081055 -173.06476563 53.05443359 -172.21875 52.63574219 C-159.15504575 46.23299695 -146.21051865 41.25900171 -131.9453125 38.29296875 C-125.54616356 36.71830906 -122.4878929 32.68081937 -118.29296875 27.76953125 C-114.22003589 23.1982486 -109.57267481 19.55836537 -104.70703125 15.8671875 C-103.69382812 15.08859375 -102.680625 14.31 -101.63671875 13.5078125 C-94.63495146 8.25332929 -87.2777883 3.69399733 -79.70703125 -0.6953125 C-78.81064941 -1.22036377 -77.91426758 -1.74541504 -76.99072266 -2.28637695 C-56.2402406 -14.07828621 -21.70664617 -6.63322169 0 0 Z M-65.55859375 65.08984375 C-70.98975791 72.38147053 -74.92744474 80.70704602 -75.70703125 89.8671875 C-75.77019531 90.53363281 -75.83335937 91.20007813 -75.8984375 91.88671875 C-77.17167939 116.65332716 -59.66945795 145.28840615 -44.09765625 163.46484375 C-37.72589419 169.86783994 -29.33383898 177.17617602 -20.14453125 178.3046875 C-15.97880281 177.77450388 -14.73118076 176.73142864 -11.70703125 173.8671875 C2.47652911 151.40505925 2.5681335 119.2234416 -2.70703125 93.8671875 C-4.84521956 85.28025741 -8.35005264 77.88407498 -13.70703125 70.8671875 C-14.28453125 70.0009375 -14.86203125 69.1346875 -15.45703125 68.2421875 C-23.24817877 60.01819846 -35.1566061 53.37547171 -46.62109375 52.671875 C-54.3161264 53.39238368 -60.82292043 59.40503759 -65.55859375 65.08984375 Z M24.29296875 71.8671875 C15.84637539 83.41541676 13.16414908 96.14034832 13.0546875 110.171875 C13.04661575 111.16865265 13.03854401 112.1654303 13.03022766 113.19241333 C13.01642664 115.30208622 13.00568677 117.41178107 12.99780273 119.52148438 C12.98634274 121.65078407 12.96598723 123.78005641 12.9362793 125.90917969 C12.70061192 142.82983419 12.98240627 158.61681659 23.29296875 172.8671875 C23.97359375 173.8778125 24.65421875 174.8884375 25.35546875 175.9296875 C27.75250967 178.32672842 28.93928432 178.58451981 32.29296875 178.8671875 C53.87548435 171.84600138 67.06120361 149.01780377 76.8515625 129.9765625 C84.63808662 114.3376994 90.98655196 98.22847929 85.73046875 80.6171875 C82.19656632 71.37180192 76.8196267 63.31074102 69.29296875 56.8671875 C68.55046875 56.2278125 67.80796875 55.5884375 67.04296875 54.9296875 C51.3438987 48.86413771 34.07077291 60.29092888 24.29296875 71.8671875 Z M-150.015625 111.8359375 C-157.38341875 120.68409627 -157.31587517 131.93054665 -156.70703125 142.8671875 C-154.12412826 158.8461636 -141.92858839 171.20710605 -129.3359375 180.36328125 C-112.01704516 192.5154736 -88.6115866 206.99310622 -66.70703125 204.8671875 C-62.59681743 204.13795602 -60.47538594 203.65224555 -57.55078125 200.6640625 C-53.79280019 194.96339632 -54.87194767 187.97002655 -56.18457031 181.52099609 C-62.32076688 156.1118856 -78.61732378 124.26723763 -101.45703125 110.1171875 C-116.2290902 101.97150444 -136.87916836 99.30986168 -150.015625 111.8359375 Z M96.0859375 125.375 C81.87720249 143.34712969 67.13167706 168.38335486 66.29296875 191.8671875 C67.18780035 196.74808713 68.2281524 199.90097017 72.29296875 202.8671875 C81.3443403 206.48773612 90.1557523 205.17591944 99.10546875 202.0546875 C100.00273682 201.74700439 100.90000488 201.43932129 101.82446289 201.12231445 C125.44496463 192.6566049 154.27512555 176.77009017 165.6015625 153.13671875 C169.65210737 142.75106564 169.99913095 130.45069371 166.203125 119.91015625 C163.38441567 113.5831821 159.42089722 108.61630973 152.98828125 105.890625 C130.6002538 98.7822602 110.86783418 108.57857935 96.0859375 125.375 Z M-202.3359375 201.125 C-206.00953653 205.79287797 -207.28280319 210.52574703 -207.0546875 216.34765625 C-205.83244372 225.20549039 -202.24196454 232.91822016 -196.70703125 239.8671875 C-196.22878906 240.47046875 -195.75054688 241.07375 -195.2578125 241.6953125 C-186.0477414 251.99574466 -171.68061087 257.93431306 -158.08752441 259.08987427 C-152.1280998 259.39116195 -146.17444417 259.39420098 -140.20898438 259.33374023 C-137.08019183 259.30467041 -133.95309012 259.31319612 -130.82421875 259.32617188 C-117.47636807 259.31338658 -105.3288762 258.71473721 -93.20703125 252.5546875 C-92.08296875 252.00167969 -90.95890625 251.44867187 -89.80078125 250.87890625 C-86.06424044 248.44921115 -84.12958169 246.61748193 -81.70703125 242.8671875 C-81.68492474 234.35618093 -88.69015174 225.04447151 -94.33984375 218.98046875 C-114.26870602 201.18919072 -142.62821232 184.09493233 -169.9296875 184.55859375 C-182.3383429 185.57233085 -193.91323075 192.03574811 -202.3359375 201.125 Z M109.29296875 216.8671875 C108.39578125 217.67027344 107.49859375 218.47335937 106.57421875 219.30078125 C100.59226545 224.93965194 95.41978544 230.67538669 93.90625 238.9921875 C93.92644509 242.43881667 94.84854056 244.31063293 96.99609375 247 C102.3618144 252.23061258 108.06832855 255.06548711 115.29296875 256.8671875 C115.96013916 257.04233887 116.62730957 257.21749023 117.31469727 257.39794922 C126.57525698 259.47271437 136.03042552 259.23933173 145.4699707 259.23779297 C148.4564783 259.24215248 151.44148832 259.27852159 154.42773438 259.31640625 C173.40277129 259.42740882 190.68862261 256.8791646 204.96875 243.31640625 C212.34309997 235.54545259 218.12400068 226.23821023 218.85546875 215.3046875 C218.42506218 207.77257261 214.58018426 201.72373412 209.23046875 196.6171875 C177.87186908 170.7986071 135.24822523 193.51546755 109.29296875 216.8671875 Z M4.29296875 205.8671875 C3.47892578 206.82431641 3.47892578 206.82431641 2.6484375 207.80078125 C1.93300781 208.62707031 1.21757813 209.45335937 0.48046875 210.3046875 C-0.22722656 211.12839844 -0.93492187 211.95210937 -1.6640625 212.80078125 C-4.08363846 215.24811526 -5.70352477 215.81188893 -9.1171875 216 C-9.99246094 215.99742187 -10.86773438 215.99484375 -11.76953125 215.9921875 C-13.08630859 215.99605469 -13.08630859 215.99605469 -14.4296875 216 C-16.70703125 215.8671875 -16.70703125 215.8671875 -18.70703125 214.8671875 C-20.70663137 214.8271955 -22.70750367 214.82371951 -24.70703125 214.8671875 C-24.97515625 215.7128125 -25.24328125 216.5584375 -25.51953125 217.4296875 C-29.20583242 228.10055931 -29.20583242 228.10055931 -33.70703125 231.8671875 C-36.53483661 232.80708842 -39.32842344 233.3664524 -42.24609375 233.9609375 C-44.8226578 234.64964371 -44.8226578 234.64964371 -46.09765625 236.79296875 C-46.9971023 239.85454473 -45.72506713 241.8696374 -44.70703125 244.8671875 C-44.09795173 249.57909434 -44.2158325 252.90298254 -46.39453125 257.1796875 C-48.64771779 259.79825565 -50.91084335 261.84771846 -53.70703125 263.8671875 C-53.18770692 268.00014364 -52.05074715 270.04198028 -49.20703125 273.0546875 C-45.1152925 277.43989112 -44.49153754 279.68607311 -44.5390625 285.6171875 C-44.74131193 288.32638914 -45.58317899 290.40876067 -46.70703125 292.8671875 C-46.70703125 294.1871875 -46.70703125 295.5071875 -46.70703125 296.8671875 C-45.82660156 297.09792969 -44.94617188 297.32867188 -44.0390625 297.56640625 C-31.7358046 301.02115015 -31.7358046 301.02115015 -28.70703125 305.8671875 C-27.45019936 309.82388048 -26.50587751 313.79501999 -25.70703125 317.8671875 C-22.62129694 318.85495052 -22.62129694 318.85495052 -19.58203125 317.9296875 C-15.28668008 316.34227511 -11.23243429 316.27881247 -6.70703125 316.8671875 C-2.1917139 319.12484618 0.2225244 321.94972402 3.29296875 325.8671875 C4.28296875 326.1971875 5.27296875 326.5271875 6.29296875 326.8671875 C7.01484375 326.1246875 7.73671875 325.3821875 8.48046875 324.6171875 C14.42597533 318.80380329 17.6165257 316.64809646 25.8203125 316.6953125 C28.62558358 316.89030765 30.73543196 317.73886245 33.29296875 318.8671875 C35.39609338 318.46399128 35.39609338 318.46399128 37.29296875 317.8671875 C37.53080078 316.65482422 37.53080078 316.65482422 37.7734375 315.41796875 C40.14801162 304.54215688 40.14801162 304.54215688 45.29296875 300.8671875 C49.36384068 298.77673975 53.85996278 297.91908722 58.29296875 296.8671875 C57.80718332 293.74428115 57.29436755 290.87138391 56.29296875 287.8671875 C55.7535875 283.22497186 55.80117889 279.81433834 57.98046875 275.6171875 C60.29296875 272.8671875 60.29296875 272.8671875 63.10546875 270.3046875 C65.53122145 268.10054402 65.53122145 268.10054402 65.48046875 265.3671875 C63.83342721 261.89973162 61.26941017 260.23619189 58.29296875 257.8671875 C55.35596358 253.15431875 55.60709531 247.87172263 56.81640625 242.57421875 C57.01492188 241.86652344 57.2134375 241.15882813 57.41796875 240.4296875 C57.70671875 239.2540625 57.99546875 238.0784375 58.29296875 236.8671875 C55.85350747 234.42772622 54.31649745 234.2905098 50.98046875 233.5546875 C46.07464615 232.2400553 43.21015344 231.24296453 40.29296875 226.8671875 C39.43258875 224.02258186 38.73629723 221.20939264 38.1640625 218.29296875 C37.50783378 215.74679684 37.50783378 215.74679684 35.37109375 214.48046875 C32.30603989 213.57593218 30.29504615 214.84761405 27.29296875 215.8671875 C22.58106191 216.47626702 19.25717371 216.35838625 14.98046875 214.1796875 C12.29296875 211.8671875 12.29296875 211.8671875 10.16796875 209.1796875 C8.10106412 206.63050512 7.37490509 206.44904685 4.29296875 205.8671875 Z M-196.03125 291.546875 C-203.01856348 300.87190334 -208.16372358 309.93944795 -206.70703125 321.8671875 C-203.52301027 332.18030913 -196.02736486 338.31578247 -186.76953125 343.2421875 C-173.77503585 349.29531954 -160.25007948 349.33854311 -146.70703125 344.8671875 C-129.45125997 338.06231959 -111.46832713 328.3822774 -97.70703125 315.8671875 C-97.00707031 315.25875 -96.30710937 314.6503125 -95.5859375 314.0234375 C-89.24590851 308.17479072 -83.59724423 300.43525407 -81.33203125 291.9921875 C-81.74038564 288.58923421 -82.02579518 288.06866374 -84.39453125 285.8046875 C-99.76135779 274.40152653 -117.08292044 272.67722551 -135.60620117 272.62695312 C-137.74112973 272.61731571 -139.87506444 272.58623602 -142.00976562 272.5546875 C-161.57456572 272.40425302 -182.55394878 276.00833948 -196.03125 291.546875 Z M95.29296875 286.7421875 C93.72833524 290.0670337 93.8138709 292.21406636 94.29296875 295.8671875 C102.60690158 317.47538007 127.16266592 329.35709804 146.48046875 339.2421875 C147.4655542 339.75434814 148.45063965 340.26650879 149.46557617 340.79418945 C164.56082952 348.36757594 179.09383895 350.0517419 195.29296875 344.8671875 C205.28126493 340.6721031 212.98523274 333.86926983 217.29296875 323.8671875 C219.70932936 315.61128875 217.69206313 308.58274548 214.29296875 300.8671875 C206.76932658 287.42952853 194.42439661 279.38607924 179.85546875 275.16015625 C170.14053877 272.81575474 160.28013742 272.65385778 150.33886719 272.62695312 C148.19295684 272.61729991 146.04802854 272.58621271 143.90234375 272.5546875 C127.24016394 272.42762224 107.95553048 274.87103588 95.29296875 286.7421875 Z M-123.70703125 348.8671875 C-124.64772461 349.49246338 -124.64772461 349.49246338 -125.60742188 350.13037109 C-141.17700685 360.55221109 -152.4262748 371.48811176 -156.234375 390.57421875 C-157.60813513 400.14512609 -157.61106136 409.26796383 -152.70703125 417.8671875 C-147.34226691 424.22111663 -140.85133368 427.50980376 -132.70703125 428.8671875 C-117.71512507 429.91360243 -105.90257786 426.51061439 -94.14453125 417.1796875 C-89.42606822 412.92642505 -85.58616866 407.87382505 -81.70703125 402.8671875 C-81.02382813 401.98804688 -80.340625 401.10890625 -79.63671875 400.203125 C-66.04797411 382.13808801 -55.24389845 360.64763771 -55.2734375 337.63671875 C-55.78491455 334.36971668 -56.70736523 332.49259935 -58.70703125 329.8671875 C-75.88593828 317.75385562 -109.57160116 339.36614892 -123.70703125 348.8671875 Z M68.00390625 332.6953125 C63.08740712 347.71494721 71.58980115 366.44926338 78.18994141 379.75244141 C83.66665857 390.25251314 90.87806206 399.6770507 98.29296875 408.8671875 C98.96070313 409.71410156 99.6284375 410.56101562 100.31640625 411.43359375 C109.36433219 422.34650034 121.08096305 427.85949213 135.1328125 429.24609375 C143.90967783 429.52231997 152.47615162 428.94908584 159.41796875 423.06640625 C167.34834779 414.5577704 168.79235472 405.12808683 168.5703125 393.79296875 C167.34197057 376.40587519 155.54704472 364.92844323 143.29296875 353.8671875 C126.00334814 338.87499519 100.03111246 326.89666041 76.88671875 327.36328125 C73.04398194 328.10983705 70.28849389 329.45535185 68.00390625 332.6953125 Z M-51.0234375 377.83984375 C-56.15813412 385.27967915 -60.25494869 393.40108398 -64.42382812 401.40625 C-65.48652525 403.44429929 -66.56669522 405.47058352 -67.66015625 407.4921875 C-74.95387007 421.34287637 -78.43587688 435.17749963 -74.08203125 450.6171875 C-70.54875922 460.70870832 -65.92193203 470.60496016 -56.42578125 476.21484375 C-50.04291065 479.19418999 -44.49913085 479.73501489 -37.70703125 477.8671875 C-24.42894637 472.94584393 -14.43429873 465.62026189 -7.984375 452.73828125 C2.51471272 429.13941435 3.49797537 395.0091271 -5.50390625 370.58984375 C-8.21290069 364.45942452 -11.42014006 358.14334949 -16.70703125 353.8671875 C-29.82434237 351.43483842 -44.22319896 368.50312279 -51.0234375 377.83984375 Z M23.29296875 358.8671875 C21.20691394 361.90435729 21.20691394 361.90435729 19.60546875 365.3046875 C19.04472656 366.39652344 18.48398437 367.48835938 17.90625 368.61328125 C12.81851993 380.933614 12.79106963 393.64802506 12.84692383 406.75268555 C12.8554447 409.79609679 12.8265583 412.8376317 12.79492188 415.88085938 C12.73010912 433.86044879 15.0924286 451.35483724 27.79296875 465.1796875 C35.85311932 472.75208312 46.70245062 478.03913098 57.73046875 479.2421875 C65.44316599 478.43032463 71.70574657 473.96923636 76.609375 468.08984375 C84.30211978 457.26648631 88.89306252 446.44324086 87.29296875 432.8671875 C83.63308715 412.09898365 73.55597322 393.85592729 61.29296875 376.9296875 C60.72376709 376.13651123 60.15456543 375.34333496 59.56811523 374.52612305 C52.6484778 365.18781834 43.79115222 357.24161226 32.54296875 353.6796875 C28.26791668 353.92632512 26.15965248 355.89987614 23.29296875 358.8671875 Z " fill="#000000" transform="translate(909.70703125,385.1328125)"/>
<path d="M0 0 C19.14 0 38.28 0 58 0 C61.031875 7.940625 64.06375 15.88125 67.1875 24.0625 C68.71056763 28.05029541 68.71056763 28.05029541 70.2644043 32.11865234 C74.90503559 44.26905712 79.54249167 56.42064939 84.17067909 68.57579994 C85.82419991 72.91777837 87.47905245 77.25924947 89.13369751 81.60079956 C90.03798996 83.97467076 90.94162529 86.34879239 91.84457397 88.72317505 C93.1134423 92.05958619 94.38461843 95.39510999 95.65625 98.73046875 C96.02317459 99.69711456 96.39009918 100.66376038 96.7681427 101.65969849 C99.37858575 108.49718486 102.15326375 115.25764976 105 122 C105.20250366 121.47716934 105.40500732 120.95433868 105.61364746 120.41566467 C107.8107257 114.74348696 110.00847991 109.07157145 112.20663452 103.39981079 C113.06889497 101.17489359 113.93105724 98.94993835 114.79312134 96.72494507 C119.35946285 84.9401863 123.93083953 73.1575522 128.54296875 61.390625 C136.85849794 40.25252585 136.85849794 40.25252585 144.875 19 C145.17881592 18.18249268 145.48263184 17.36498535 145.7956543 16.52270508 C147.43720853 11.98147824 148.64378835 7.4899705 149.57470703 2.75 C150 1 150 1 151 0 C152.71865409 -0.0935919 154.44115744 -0.11744611 156.16235352 -0.11352539 C157.26341934 -0.11344986 158.36448517 -0.11337433 159.49891663 -0.11329651 C160.6968132 -0.10813522 161.89470978 -0.10297394 163.12890625 -0.09765625 C164.34827377 -0.0962413 165.5676413 -0.09482635 166.82395935 -0.09336853 C170.7368307 -0.08774967 174.64964581 -0.07519396 178.5625 -0.0625 C181.20768147 -0.05748743 183.85286383 -0.0529241 186.49804688 -0.04882812 C192.99871726 -0.03777411 199.49935461 -0.02101764 206 0 C206 2.97 206 5.94 206 9 C204.81921875 9.24234375 203.6384375 9.4846875 202.421875 9.734375 C200.86441417 10.07213759 199.30713153 10.41072256 197.75 10.75 C196.97269531 10.90726563 196.19539062 11.06453125 195.39453125 11.2265625 C190.87158599 12.23166145 187.82869211 13.06316047 185 17 C183.99489292 20.09789704 183.87225137 22.94853101 183.86628723 26.19285583 C183.86202225 27.24289795 183.85775726 28.29294006 183.85336304 29.37480164 C183.85381622 30.52140762 183.85426941 31.66801361 183.85473633 32.84936523 C183.85137772 34.0611142 183.8480191 35.27286316 183.84455872 36.52133179 C183.83668735 39.84159185 183.83338122 43.16178938 183.83274293 46.48205447 C183.83203172 48.55722811 183.82989607 50.6323952 183.82724571 52.70756721 C183.81799752 59.94933615 183.81391024 67.19108669 183.81469727 74.43286133 C183.81529818 81.18002492 183.80474233 87.9271086 183.7889536 94.67425197 C183.77587391 100.47054496 183.77051354 106.26681184 183.77115268 112.06311947 C183.7714075 115.52348171 183.76856463 118.98377289 183.75797462 122.44412041 C183.74648639 126.30319208 183.7510431 130.16215424 183.75708008 134.02124023 C183.75146057 135.16582199 183.74584106 136.31040375 183.74005127 137.4896698 C183.74424576 138.54253174 183.74844025 139.59539368 183.75276184 140.68016052 C183.75221707 141.59214927 183.75167231 142.50413801 183.75111103 143.44376278 C184.15127871 147.55372202 185.26438952 150.24152777 188.13671875 153.203125 C191.58099123 155.36460569 194.86389466 156.10764315 198.8125 156.75 C199.50537109 156.87503906 200.19824219 157.00007813 200.91210938 157.12890625 C202.60573839 157.43259145 204.30259781 157.71816718 206 158 C206 161.3 206 164.6 206 168 C181.58 168 157.16 168 132 168 C132 164.7 132 161.4 132 158 C133.08539063 157.90203125 134.17078125 157.8040625 135.2890625 157.703125 C136.73446565 157.55295324 138.17977353 157.40186268 139.625 157.25 C140.33785156 157.188125 141.05070313 157.12625 141.78515625 157.0625 C146.79602815 156.51084438 149.98620834 155.25442567 154 152 C156.86825947 147.6976108 157.12126141 143.88932275 157.15821838 138.80509949 C157.1680072 137.78011353 157.17779602 136.75512756 157.18788147 135.69908142 C157.19363693 134.58561844 157.1993924 133.47215546 157.20532227 132.32495117 C157.21522186 131.144039 157.22512146 129.96312683 157.23532104 128.74642944 C157.26145385 125.5175023 157.28333848 122.28858012 157.30332303 119.05961013 C157.32523788 115.68166597 157.35259959 112.303766 157.37937927 108.92585754 C157.42923198 102.53346618 157.47419824 96.14105018 157.51740164 89.74861079 C157.56683757 82.46928135 157.62173207 75.18999625 157.67708123 67.91070974 C157.79078729 52.94051452 157.89765096 37.97027749 158 23 C157.34 23 156.68 23 156 23 C155.869484 23.7320591 155.73896799 24.46411819 155.60449696 25.2183609 C155.04343884 27.80011287 154.30426638 30.05697273 153.32804871 32.50622559 C152.98220734 33.37991791 152.63636597 34.25361023 152.28004456 35.15377808 C151.90041061 36.10012115 151.52077667 37.04646423 151.12963867 38.02148438 C150.72936462 39.02901764 150.32909058 40.0365509 149.91668701 41.07461548 C148.58794597 44.41600209 147.25305326 47.75489344 145.91796875 51.09375 C144.98375701 53.43839061 144.04986851 55.78316004 143.11628723 58.12805176 C141.1508769 63.0620089 139.18272356 67.99485827 137.2121582 72.92675781 C134.72113822 79.16130726 132.23578078 85.3980924 129.75214958 91.6355896 C110.03251202 141.15417098 110.03251202 141.15417098 100 165 C97.69 165 95.38 165 93 165 C89.69906965 157.2138434 86.58073031 149.38498742 83.6484375 141.453125 C83.24002625 140.35472794 82.83161499 139.25633087 82.41082764 138.12464905 C81.5261719 135.7448945 80.64253718 133.3647602 79.75982666 130.98428345 C77.6046877 125.17279818 75.4431672 119.36368984 73.28156662 113.55460548 C72.76826118 112.17506789 72.25504031 110.79549882 71.7419014 109.41589928 C65.20822164 91.85031841 58.62602801 74.30294521 52.04193878 56.75621033 C51.1228248 54.30670293 50.20382053 51.8571544 49.28485107 49.40759277 C45.85733675 40.27143969 42.42912037 31.1355504 39 22 C38.95352172 35.72653355 38.91805232 49.45304817 38.89637566 63.17964458 C38.88596844 69.55444316 38.87186543 75.92918763 38.84912109 82.30395508 C38.8272832 88.46368245 38.81540838 94.62335799 38.81024551 100.78312111 C38.80656934 103.12527087 38.79939103 105.46741801 38.78853989 107.80954552 C37.95317668 129.74795904 37.95317668 129.74795904 45 150 C48.15653119 152.87864244 51.37122121 153.93097132 55.4375 155.125 C56.54996094 155.45757813 57.66242188 155.79015625 58.80859375 156.1328125 C61.53173499 156.8727603 64.22579153 157.49182723 67 158 C67 161.3 67 164.6 67 168 C44.56 168 22.12 168 -1 168 C-1 164.7 -1 161.4 -1 158 C0.41152344 157.72736328 0.41152344 157.72736328 1.8515625 157.44921875 C3.71941406 157.07216797 3.71941406 157.07216797 5.625 156.6875 C6.85476562 156.44386719 8.08453125 156.20023438 9.3515625 155.94921875 C13.70561196 154.81642001 17.52971423 153.47028577 20.75 150.25 C25.47494489 141.74509919 25.14945167 131.23793645 25.16113281 121.77368164 C25.16609772 120.79356613 25.17106262 119.81345062 25.17617798 118.80363464 C25.19068052 115.5891345 25.19758008 112.37468362 25.203125 109.16015625 C25.20595238 108.05557005 25.20877975 106.95098385 25.21169281 105.81292534 C25.22663382 99.97236775 25.23589657 94.13183456 25.24023438 88.29125977 C25.24572471 82.2782243 25.26977939 76.2654146 25.29820633 70.25244999 C25.31687704 65.60859023 25.32204058 60.96478454 25.32357025 56.32089043 C25.3265851 54.10464679 25.3345739 51.88840383 25.34775543 49.67219734 C25.36491572 46.56652951 25.36291176 43.46140961 25.35644531 40.35571289 C25.3656601 39.45202972 25.37487488 38.54834656 25.3843689 37.61727905 C25.33691029 30.29728211 24.00382996 23.54523762 20.375 17.125 C14.6428367 11.99622231 7.38391815 10.4064606 0 9 C0 6.03 0 3.06 0 0 Z " fill="#000000" transform="translate(236,1051)"/>
<path d="M0 0 C11.36232896 -0.06983416 22.72460598 -0.12297982 34.0871067 -0.15543652 C39.36446394 -0.17102235 44.6416732 -0.19212969 49.91894531 -0.22631836 C55.02181812 -0.25916634 60.12454953 -0.27690612 65.22751999 -0.28463173 C67.16414995 -0.29012994 69.10077311 -0.30086511 71.03734207 -0.31719017 C88.81915777 -0.46098381 107.17525815 0.59755778 121.0625 13.3125 C130.19612637 23.5329123 130.54215731 34.82223295 130.12744141 47.77001953 C129.56857689 57.54907803 124.77922809 65.70938309 117.5546875 72.1953125 C109.47744476 78.38865023 100.41095068 82.28423718 91 86 C91.53403442 86.67651611 91.53403442 86.67651611 92.07885742 87.36669922 C98.67139009 95.73572597 105.18261405 104.14179529 111.375 112.8125 C118.17862494 122.3373629 125.24381786 131.65922091 132.3984375 140.92285156 C133.66483816 142.56531145 134.9154006 144.21998236 136.16015625 145.87890625 C143.20517848 154.00087456 152.75536705 156.4296548 163 158 C163 161.3 163 164.6 163 168 C125.94746907 174.01872138 125.94746907 174.01872138 114.62554932 166.402771 C105.78025986 158.407076 100.30499996 147.2203072 95.04187012 136.69281006 C90.36257352 127.38360432 84.31063775 119.254619 78 111 C77.26322021 110.01580078 76.52644043 109.03160156 75.76733398 108.01757812 C74.11125237 105.81092989 72.43711829 103.62045076 70.75 101.4375 C70.19699219 100.71626953 69.64398437 99.99503906 69.07421875 99.25195312 C66.66940332 96.0123398 66.66940332 96.0123398 64 93 C61.30764224 92.76321284 58.63501844 92.57801975 55.9375 92.4375 C55.17888672 92.39431641 54.42027344 92.35113281 53.63867188 92.30664062 C51.75934562 92.20026367 49.87969756 92.09960066 48 92 C48.09233739 99.88392249 48.19965257 107.76753912 48.31738281 115.65112305 C48.35674536 118.3330514 48.39134236 121.01497842 48.421875 123.69702148 C48.46753953 127.55210682 48.52553299 131.40683969 48.5859375 135.26171875 C48.59748871 136.46084396 48.60903992 137.65996918 48.62094116 138.89543152 C48.64081085 140.01621597 48.66068054 141.13700043 48.68115234 142.29174805 C48.69447601 143.27547897 48.70779968 144.2592099 48.7215271 145.27275085 C49.0223087 148.21848224 49.6579901 150.36429056 51 153 C55.29206964 155.80054397 59.33735565 156.56967569 64.375 157.1875 C65.62023438 157.34605469 66.86546875 157.50460937 68.1484375 157.66796875 C69.08945313 157.77753906 70.03046875 157.88710937 71 158 C71 161.3 71 164.6 71 168 C47.57 168 24.14 168 0 168 C0 164.7 0 161.4 0 158 C0.95261719 157.89042969 1.90523437 157.78085938 2.88671875 157.66796875 C4.14097656 157.50941406 5.39523437 157.35085938 6.6875 157.1875 C7.92886719 157.03667969 9.17023438 156.88585938 10.44921875 156.73046875 C14.00795384 155.99836373 16.14032702 155.21044993 19 153 C21.0072398 149.82860418 21.25265266 147.33376409 21.26069641 143.61732483 C21.27132362 141.9791555 21.27132362 141.9791555 21.28216553 140.30789185 C21.27968811 139.11453217 21.27721069 137.92117249 21.2746582 136.69165039 C21.27976913 135.43113358 21.28488007 134.17061676 21.29014587 132.87190247 C21.30353091 129.41733881 21.30411512 125.9628846 21.30158257 122.50830007 C21.30051253 119.6230956 21.30539708 116.73791325 21.310188 113.85271353 C21.32128145 107.04542825 21.3217215 100.23819815 21.31567383 93.4309082 C21.30963315 86.41104192 21.32194769 79.39137603 21.3432439 72.37154394 C21.36086335 66.34169807 21.36686073 60.31191597 21.36360615 54.2820453 C21.3617937 50.68192784 21.36442556 47.08195334 21.37832069 43.48185921 C21.39323692 39.46702196 21.38392598 35.45259227 21.37231445 31.43774414 C21.37995819 30.24640869 21.38760193 29.05507324 21.39547729 27.82763672 C21.38495583 26.18523766 21.38495583 26.18523766 21.3742218 24.50965881 C21.37447341 23.08636812 21.37447341 23.08636812 21.37473011 21.63432407 C20.92471273 18.47073627 19.85506997 16.58005213 18 14 C16.08084761 12.84366372 16.08084761 12.84366372 13.875 12.3125 C13.08996094 12.085625 12.30492187 11.85875 11.49609375 11.625 C7.67676597 10.6686738 3.85648525 9.79578267 0 9 C0 6.03 0 3.06 0 0 Z M48 10 C48 33.43 48 56.86 48 81 C70.94534519 81.2839263 70.94534519 81.2839263 89.625 70.75 C98.69182828 60.25156726 100.91909848 50.61085401 100.1953125 37.04589844 C99.44553823 29.19201294 95.99827027 22.12798552 90 17 C77.38040473 7.75713237 63.39380154 10 48 10 Z " fill="#000000" transform="translate(1162,1051)"/>
<path d="M0 0 C6.72102108 -0.47393291 13.43214073 -0.81614066 20.16601562 -1.04370117 C22.4486634 -1.13859668 24.73017583 -1.26779669 27.00878906 -1.43334961 C45.36438921 -2.73239844 45.36438921 -2.73239844 51.35925293 1.77313232 C55.56213796 6.18017698 58.6045946 11.16189955 61.53240967 16.47250366 C64.00687525 20.73404898 67.01895474 24.58491935 70 28.5 C71.16911489 30.08152645 72.33607003 31.6646538 73.5 33.25 C74.0775 34.03375 74.655 34.8175 75.25 35.625 C108.5 80.75 108.5 80.75 110.25170898 83.12744141 C111.41252343 84.70275139 112.57349223 86.27794765 113.73461914 87.85302734 C116.74213315 91.93317488 119.74653234 96.01556415 122.74609375 100.1015625 C123.36419922 100.94267578 123.98230469 101.78378906 124.61914062 102.65039062 C125.78682124 104.23948981 126.9535689 105.82927521 128.11914062 107.41992188 C130.93099904 111.24445439 133.78400226 115.02963898 136.70336914 118.77294922 C137.32369522 119.56885468 137.9440213 120.36476013 138.58314514 121.18478394 C139.05070724 121.78380524 139.51826935 122.38282654 140 123 C140.04645854 111.56856577 140.08193772 100.13715422 140.10362434 88.70564461 C140.11403584 83.39682796 140.12814674 78.08807619 140.15087891 72.77929688 C140.17270144 67.65051516 140.18458841 62.52179562 140.18975449 57.39297104 C140.1934334 55.44188331 140.20061717 53.49079877 140.21146011 51.5397377 C140.22610027 48.79481046 140.22797275 46.05013614 140.22705078 43.30517578 C140.23783661 42.11078133 140.23783661 42.11078133 140.24884033 40.89225769 C140.22785157 35.07041253 139.30652987 29.66456199 138 24 C137.566875 22.1128125 137.566875 22.1128125 137.125 20.1875 C132.10301388 12.65452081 120.39187302 11.03189051 112 9 C112 6.03 112 3.06 112 0 C134.77 0 157.54 0 181 0 C181 2.97 181 5.94 181 9 C179.13794922 9.47179688 179.13794922 9.47179688 177.23828125 9.953125 C175.59618207 10.3847625 173.95426434 10.81709067 172.3125 11.25 C171.49587891 11.45496094 170.67925781 11.65992188 169.83789062 11.87109375 C163.17355993 13.63880221 163.17355993 13.63880221 158 18 C154.77628127 26.20987627 154.55777983 34.38905852 154.56762695 43.1003418 C154.55858925 44.48126592 154.54825717 45.86218207 154.53674316 47.24308777 C154.50938238 50.95721574 154.49991745 54.67119065 154.49388909 58.38540626 C154.48445037 62.27985069 154.45824295 66.17418321 154.43388367 70.06855774 C154.39036521 77.427607 154.36172858 84.78663435 154.33856028 92.14577276 C154.31142962 100.53045563 154.26752326 108.9150251 154.22227156 117.29962671 C154.12963541 134.53302591 154.05785887 151.76644965 154 169 C152.08186601 169.10330151 150.16212515 169.17705546 148.2421875 169.23828125 C147.17339355 169.28251221 146.10459961 169.32674316 145.00341797 169.37231445 C141.36479123 168.92125724 140.38966185 167.99492382 138.125 165.1875 C137.13391872 163.7336411 136.14614855 162.27708805 135.19335938 160.79785156 C133.29556458 157.93873519 131.22034189 155.2149442 129.16748047 152.46606445 C127.3351998 150.0091313 125.52089458 147.53982257 123.7109375 145.06640625 C120.15069843 140.20348149 116.57716267 135.35048378 113 130.5 C109.51773141 125.7775976 106.03772535 121.05363763 102.5703125 116.3203125 C96.37896728 107.87796854 90.11512395 99.49980514 83.75 91.1875 C78.91691843 84.87563975 74.16313868 78.52914537 69.58276367 72.03173828 C66.06025035 67.04514114 62.40822422 62.16147373 58.72363281 57.29370117 C55.20277931 52.63400524 51.74188074 47.93189333 48.29077148 43.22045898 C47.78122673 42.52520866 47.27168198 41.82995834 46.74669647 41.11363983 C45.49759664 39.40924052 44.24877077 37.70464042 43 36 C42.95348205 47.90115794 42.91803244 59.80229395 42.89637566 71.70352459 C42.88597698 77.2308494 42.87188993 82.7581116 42.84912109 88.28540039 C42.82725229 93.62816285 42.81540199 98.97086541 42.81024551 104.3136692 C42.80657481 106.34321853 42.79940747 108.37276489 42.78853989 110.40228844 C42.16411945 131.01555572 42.16411945 131.01555572 49 150 C51.71917485 152.3891535 54.0525815 153.51314538 57.546875 154.38671875 C58.81337891 154.7105957 58.81337891 154.7105957 60.10546875 155.04101562 C60.97816406 155.25435547 61.85085938 155.46769531 62.75 155.6875 C63.63816406 155.91244141 64.52632812 156.13738281 65.44140625 156.36914062 C67.6255281 156.92104238 69.81250162 157.46163707 72 158 C72 161.3 72 164.6 72 168 C48.9 168 25.8 168 2 168 C2 164.7 2 161.4 2 158 C3.33675781 157.65066406 4.67351562 157.30132813 6.05078125 156.94140625 C7.80470116 156.48182296 9.55860666 156.02218468 11.3125 155.5625 C12.63411133 155.21735352 12.63411133 155.21735352 13.98242188 154.86523438 C14.82998047 154.64287109 15.67753906 154.42050781 16.55078125 154.19140625 C17.33106689 153.98717041 18.11135254 153.78293457 18.9152832 153.57250977 C20.62605276 153.10269426 22.3169334 152.5610222 24 152 C25.15020525 149.75256244 25.15020525 149.75256244 26 147 C26.350625 146.113125 26.70125 145.22625 27.0625 144.3125 C29.1890996 136.79851474 29.15098749 128.88209741 29.16113281 121.11914062 C29.16609772 120.18764694 29.17106262 119.25615326 29.17617798 118.2964325 C29.19064865 115.2496972 29.19757403 112.20301385 29.203125 109.15625 C29.20595238 108.10774368 29.20877975 107.05923737 29.21169281 105.97895813 C29.2266194 100.43665317 29.23589169 94.89437383 29.24023438 89.35205078 C29.24572781 83.64955664 29.26979312 77.94730019 29.29820633 72.24488068 C29.31688144 67.8369275 29.32204078 63.42903125 29.32357025 59.02104187 C29.32658326 56.9192321 29.33456573 54.81742301 29.34775543 52.71565247 C29.36492795 49.77053923 29.36290909 46.82600319 29.35644531 43.88085938 C29.3656601 43.02550095 29.37487488 42.17014252 29.3843689 41.28886414 C29.34211205 35.10136845 28.00998892 29.83117551 26 24 C25.5359375 22.515 25.5359375 22.515 25.0625 21 C23.71409047 18.46181735 22.58169202 18.19329526 20 17 C19.26523438 16.60941406 18.53046875 16.21882813 17.7734375 15.81640625 C11.99247741 12.79411278 6.30799036 10.6508145 0 9 C0 6.03 0 3.06 0 0 Z " fill="#000000" transform="translate(1420,1051)"/>
<path d="M0 0 C10.90206022 -0.09334191 21.80402288 -0.16408684 32.70640373 -0.20724869 C37.77072298 -0.22798101 42.83476564 -0.25603083 47.89892578 -0.30175781 C52.80082987 -0.34573457 57.70247065 -0.36924451 62.60455704 -0.37950897 C64.45974997 -0.38680859 66.31493114 -0.40105777 68.17000961 -0.42292023 C83.54294427 -0.59662125 98.55082399 0.9648748 112.8125 7.1875 C113.50351807 7.48229248 114.19453613 7.77708496 114.90649414 8.08081055 C134.44546888 16.78107366 148.19549357 32.11215194 155.97265625 51.9609375 C163.49098774 74.20147705 163.48429307 99.86563314 153.46484375 121.28125 C142.95294842 141.77824865 125.85968075 155.83289156 104 163 C88.69910155 167.18776324 73.98253837 168.14863226 58.1796875 168.09765625 C56.46762127 168.09578785 54.75555451 168.09436594 53.04348755 168.09336853 C48.5686695 168.0895766 44.09388465 168.07977524 39.61907959 168.06866455 C35.04032846 168.05837843 30.46157189 168.05385558 25.8828125 168.04882812 C16.92186053 168.03814953 7.96093304 168.02111373 -1 168 C-1 164.7 -1 161.4 -1 158 C0.09699219 157.90203125 1.19398438 157.8040625 2.32421875 157.703125 C3.77873878 157.552981 5.23316118 157.40188917 6.6875 157.25 C7.40873047 157.188125 8.12996094 157.12625 8.87304688 157.0625 C13.66820172 156.53700358 16.51862653 155.59453475 20 152 C21.00876826 148.97369523 21.13044741 146.94064629 21.14044189 143.77554321 C21.14615204 142.69321915 21.15186218 141.61089508 21.15774536 140.49577332 C21.15886322 139.3081691 21.15998108 138.12056488 21.16113281 136.89697266 C21.16609772 135.64635544 21.17106262 134.39573822 21.17617798 133.10722351 C21.18828792 129.6753411 21.19574497 126.24351963 21.20018864 122.8116231 C21.20312061 120.66727339 21.20722563 118.52292902 21.21169281 116.378582 C21.22536467 109.6686088 21.2350331 102.9586478 21.2388947 96.24866164 C21.24337619 88.50427552 21.26092947 80.76006583 21.2898953 73.01573336 C21.31151196 67.02837946 21.32159895 61.0410752 21.32293582 55.05368268 C21.32398378 51.47812897 21.32988953 47.90274117 21.34775543 44.32722855 C21.36729773 40.3386999 21.36294718 36.35039182 21.35644531 32.36181641 C21.3656601 31.17826065 21.37487488 29.9947049 21.3843689 28.77528381 C21.37879974 27.6873201 21.37323059 26.59935638 21.36749268 25.47842407 C21.36969252 24.06424666 21.36969252 24.06424666 21.3719368 22.62150002 C20.92396165 19.46406339 19.84284485 17.58038604 18 15 C12.66011093 11.45079662 6.20685619 10.18225832 0 9 C0 6.03 0 3.06 0 0 Z M54.75 10.51171875 C52.85507812 10.64839966 52.85507812 10.64839966 50.921875 10.7878418 C49.95765625 10.857854 48.9934375 10.92786621 48 11 C47.92983859 27.94209102 47.87697696 44.88413654 47.84456348 61.82633972 C47.82911159 69.69335799 47.80805427 77.56028586 47.77368164 85.42724609 C47.74372778 92.28615633 47.72441281 99.14500108 47.71773452 106.00397491 C47.71383236 109.633897 47.70469705 113.26363176 47.68280983 116.89349365 C47.65854244 120.9512148 47.65803384 125.00861272 47.65942383 129.06640625 C47.648638 130.26259079 47.63785217 131.45877533 47.6267395 132.69120789 C47.65599848 140.58952436 48.06631092 146.86163494 53.6875 152.875 C59.74085911 156.75828697 66.15877594 157.36969724 73.1875 157.3125 C73.92436035 157.30686035 74.6612207 157.3012207 75.42041016 157.29541016 C90.40806447 156.96768704 102.76380135 151.96007014 113.6484375 141.59375 C129.16953397 124.47413529 132.11046697 100.49527192 131.15234375 78.25244141 C129.75107409 57.53431012 122.35907679 38.37609588 107 24 C91.25526189 11.85405917 74.05286702 9.11538867 54.75 10.51171875 Z " fill="#000000" transform="translate(816,1051)"/>
<path d="M0 0 C6.88186883 -0.44844258 13.75509805 -0.77298568 20.64819336 -0.98876953 C22.98596336 -1.07875199 25.32273514 -1.20120958 27.65698242 -1.35791016 C46.47146925 -2.58835106 46.47146925 -2.58835106 52.28036499 1.67276001 C56.30767357 5.88721291 59.14399964 10.70848481 61.84249878 15.84655762 C63.27457902 18.51083323 64.98494949 20.86104808 66.83984375 23.24609375 C67.35756348 23.94758545 67.8752832 24.64907715 68.40869141 25.37182617 C68.91319824 26.05349854 69.41770508 26.7351709 69.9375 27.4375 C71.11072752 29.02600442 72.28390303 30.61454725 73.45703125 32.203125 C74.33222412 33.38745117 74.33222412 33.38745117 75.22509766 34.59570312 C77.01096782 37.0148571 78.79318282 39.43666019 80.57421875 41.859375 C86.01830335 49.26330018 91.47566862 56.65569402 97 64 C103.12466407 72.14241649 109.16541266 80.34553537 115.20019531 88.5546875 C117.01318902 91.01791932 118.83018843 93.47814545 120.6484375 95.9375 C121.25187988 96.75436279 121.85532227 97.57122559 122.47705078 98.4128418 C123.60221837 99.935738 124.72810929 101.45810027 125.85498047 102.97973633 C129.35610957 107.72225263 132.79879439 112.50436333 136.22167969 117.3034668 C136.68263031 117.94929466 137.14358093 118.59512253 137.61849976 119.26052094 C138.74590559 120.84017668 139.87298605 122.42006464 141 124 C141.0465105 112.73349133 141.08196382 101.46700581 141.10362434 90.20042038 C141.11402463 84.96788878 141.12811467 79.73542327 141.15087891 74.50292969 C141.17274192 69.4454611 141.18459681 64.38805575 141.18975449 59.33054352 C141.19342622 57.40901953 141.20059563 55.48749867 141.21146011 53.56600189 C142.0377062 34.97504287 142.0377062 34.97504287 136 18 C131.30605913 14.35394196 126.76031395 12.76866935 121.125 11.25 C120.34125 11.02957031 119.5575 10.80914063 118.75 10.58203125 C116.83597707 10.04517116 114.91833548 9.52124038 113 9 C113 6.03 113 3.06 113 0 C135.44 0 157.88 0 181 0 C181 2.97 181 5.94 181 9 C178.25029364 9.81350483 175.50025107 10.62584054 172.75 11.4375 C171.97269531 11.66759766 171.19539062 11.89769531 170.39453125 12.13476562 C169.64042969 12.35712891 168.88632812 12.57949219 168.109375 12.80859375 C167.07248535 13.11494751 167.07248535 13.11494751 166.01464844 13.42749023 C164 14 164 14 161.81347656 14.44555664 C159.77689284 14.83701824 159.77689284 14.83701824 158.875 17.0625 C155.39060437 28.76011391 154.85424007 40.01164663 154.79467773 52.18237305 C154.78477814 53.45194351 154.77487854 54.72151398 154.76467896 56.02955627 C154.7379149 59.47505667 154.71675325 62.92057036 154.69667697 66.36611533 C154.6746391 69.98025091 154.64733846 73.59434685 154.62062073 77.20845032 C154.57093228 84.03626068 154.52590615 90.86409332 154.48259836 97.6919468 C154.43302065 105.47200751 154.37817944 113.2520284 154.32291877 121.03205049 C154.20946538 137.02133011 154.10254821 153.01064649 154 169 C152.0616754 169.06755706 150.12267794 169.11601706 148.18359375 169.15625 C147.10392334 169.18525391 146.02425293 169.21425781 144.91186523 169.24414062 C142 169 142 169 139.0625 166.5 C138.33384446 165.35858489 137.64789194 164.18911875 137 163 C136.18543219 161.69985003 135.36759064 160.40174669 134.546875 159.10546875 C134.13373047 158.42661621 133.72058594 157.74776367 133.29492188 157.04833984 C131.147602 153.6516555 128.69400302 150.49881797 126.25 147.3125 C125.23029163 145.96205316 124.21209448 144.61046406 123.1953125 143.2578125 C122.67485352 142.5659082 122.15439453 141.87400391 121.61816406 141.16113281 C118.76610946 137.35208222 115.94532724 133.52007146 113.125 129.6875 C112.54153809 128.89472656 111.95807617 128.10195312 111.35693359 127.28515625 C108.97343472 124.04522037 106.59123772 120.8043283 104.20898438 117.56347656 C98.17122526 109.3514643 92.12710556 101.14566232 86 93 C79.87851567 84.86181081 73.84046465 76.66322639 67.80859375 68.45849609 C65.96806415 65.95658828 64.12506362 63.45651968 62.28125 60.95703125 C61.66878418 60.1266333 61.05631836 59.29623535 60.42529297 58.44067383 C59.27348544 56.87915771 58.12148567 55.31778337 56.96923828 53.7565918 C53.89483215 49.58670228 50.83659391 45.40549053 47.79052734 41.21484375 C47.07826996 40.23507568 46.36601257 39.25530762 45.63217163 38.24584961 C45.09355499 37.50471924 44.55493835 36.76358887 44 36 C43.95353666 48.32685144 43.91805985 60.65368184 43.89637566 72.98060322 C43.8859652 78.70528075 43.87185622 84.42989811 43.84912109 90.15454102 C43.82729483 95.68532587 43.8154108 101.21605305 43.81024551 106.74687767 C43.80656727 108.85064793 43.79938483 110.95441526 43.78853989 113.05816078 C42.98478136 131.76929232 42.98478136 131.76929232 49 149 C53.34575213 153.33723105 58.0229673 154.37709068 63.8125 155.75 C65.13797852 156.08064453 65.13797852 156.08064453 66.49023438 156.41796875 C68.65732882 156.95681385 70.8283095 157.47998775 73 158 C73 161.3 73 164.6 73 168 C49.9 168 26.8 168 3 168 C3 164.7 3 161.4 3 158 C4.08539062 157.75765625 5.17078125 157.5153125 6.2890625 157.265625 C7.73452507 156.92772466 9.17982939 156.58914687 10.625 156.25 C11.33785156 156.09273437 12.05070313 155.93546875 12.78515625 155.7734375 C17.54863796 154.63719416 21.09051164 153.08985203 25 150 C32.63863775 137.35673751 30.17416307 118.76869291 30.203125 104.48828125 C30.20595238 103.53511709 30.20877975 102.58195293 30.21169281 101.59990501 C30.22655667 96.56749584 30.23586998 91.53511444 30.24023438 86.50268555 C30.2457386 81.34196632 30.26984455 76.18150825 30.29820633 71.02087116 C30.31691397 67.01345585 30.32204235 63.00610296 30.32357025 58.99864769 C30.32657267 57.09665671 30.33451834 55.19466618 30.34775543 53.29271889 C31.04801688 34.55251582 31.04801688 34.55251582 22.921875 18.45703125 C16.2656634 13.41075701 7.93786453 11.18578878 0 9 C0 6.03 0 3.06 0 0 Z " fill="#000000" transform="translate(620,1051)"/>
<path d="M0 0 C3.63 0 7.26 0 11 0 C11.38518799 1.01570068 11.77037598 2.03140137 12.16723633 3.07788086 C22.05763656 29.14614184 32.06718541 55.16630237 42.17814636 81.14978027 C44.88553582 88.11390973 47.57345594 95.0853493 50.25099182 102.06100464 C52.15640624 107.02456561 54.06961307 111.98511586 55.9828186 116.94567871 C56.90305028 119.33639701 57.82039981 121.72822691 58.73471069 124.12121582 C60.01085439 127.46009342 61.29728377 130.7948407 62.5859375 134.12890625 C62.9591362 135.11317093 63.3323349 136.09743561 63.71684265 137.11152649 C66.92453703 145.35913244 70.39697459 153.95877253 78.8828125 157.8671875 C82.87112321 159.45947885 86.7218555 160.46523194 91 161 C91 164.3 91 167.6 91 171 C67.57 171 44.14 171 20 171 C20 167.7 20 164.4 20 161 C21.18078125 160.79503906 22.3615625 160.59007812 23.578125 160.37890625 C25.13542997 160.10684695 26.6927209 159.83470732 28.25 159.5625 C29.41595703 159.36043945 29.41595703 159.36043945 30.60546875 159.15429688 C31.35957031 159.02216797 32.11367187 158.89003906 32.890625 158.75390625 C33.58188477 158.63345947 34.27314453 158.5130127 34.98535156 158.38891602 C37.01266117 157.99755584 39.00194515 157.51910249 41 157 C39.71100439 147.67390427 36.25697865 139.21712307 32.875 130.5 C32.02973416 128.3062537 31.18676419 126.11167697 30.34744263 123.91564941 C29.82821647 122.55862965 29.30530027 121.20301468 28.77828979 119.84899902 C27 115.22261132 27 115.22261132 27 113 C7.86 113 -11.28 113 -31 113 C-31.99 116.3 -32.98 119.6 -34 123 C-34.59668161 124.82797642 -35.20229882 126.65311171 -35.82421875 128.47265625 C-36.13037109 129.39240234 -36.43652344 130.31214844 -36.75195312 131.25976562 C-37.37800685 133.13531281 -38.01350963 135.00773115 -38.65820312 136.87695312 C-40.50936501 142.50148551 -42.18603308 148.05541961 -41 154 C-36.09445473 159.75370029 -25.14385879 160.32605106 -18 161 C-18 164.3 -18 167.6 -18 171 C-39.12 171 -60.24 171 -82 171 C-82 167.7 -82 164.4 -82 161 C-81.20335937 160.82984375 -80.40671875 160.6596875 -79.5859375 160.484375 C-69.97076288 158.28528397 -63.74662323 155.10061836 -58 147 C-55.99126883 143.15106043 -54.40712153 139.16032206 -52.8125 135.125 C-52.30682779 133.87241555 -51.80036617 132.62014958 -51.29321289 131.36816406 C-49.50190451 126.92262568 -47.74831603 122.46259262 -46 118 C-45.66037231 117.13346802 -45.32074463 116.26693604 -44.9708252 115.37414551 C-39.78304517 102.12423496 -34.6549016 88.85139695 -29.53613281 75.57470703 C-25.71286083 65.6595849 -21.87471614 55.75022664 -18.03445435 45.8416748 C-16.85312111 42.7923534 -15.67339366 39.7424148 -14.49389648 36.69238281 C-9.74615367 24.42753633 -4.91154172 12.20017306 0 0 Z M-3 40 C-5.85397024 47.36171359 -8.70537494 54.72441345 -11.55351925 62.08838272 C-12.87613726 65.50781558 -14.19963288 68.92690328 -15.52514648 72.34521484 C-16.80455073 75.6447132 -18.08163345 78.9451014 -19.35711861 82.24611664 C-20.08062424 84.11678735 -20.80652459 85.98653129 -21.53245544 87.85626221 C-21.97283646 88.99714294 -22.41321747 90.13802368 -22.86694336 91.31347656 C-23.25555038 92.31719299 -23.64415741 93.32090942 -24.04454041 94.3550415 C-25.11979273 97.19159496 -25.11979273 97.19159496 -26 101 C-10.16 101 5.68 101 22 101 C17.04812219 86.91620207 17.04812219 86.91620207 11.765625 72.96875 C11.40152527 72.04074585 11.03742554 71.1127417 10.66229248 70.15661621 C9.90782531 68.23740105 9.1517509 66.31881692 8.39404297 64.40087891 C7.23069167 61.45104107 6.07819595 58.49709375 4.92578125 55.54296875 C4.18554938 53.66380492 3.44468855 51.78488871 2.703125 49.90625 C2.36041565 49.0241687 2.0177063 48.1420874 1.66461182 47.23327637 C1.34377625 46.42733032 1.02294067 45.62138428 0.69238281 44.79101562 C0.27318573 43.72542419 0.27318573 43.72542419 -0.15447998 42.63830566 C-0.89608577 40.80624155 -0.89608577 40.80624155 -3 40 Z " fill="#000000" transform="translate(1064,1048)"/>
<path d="M0 0 C0.91652344 0.01160156 1.83304688 0.02320313 2.77734375 0.03515625 C3.69644531 0.04417969 4.61554688 0.05320312 5.5625 0.0625 C6.27277344 0.07410156 6.98304688 0.08570313 7.71484375 0.09765625 C14.20446821 16.19766364 20.55672457 32.34575704 26.78704834 48.54779053 C28.19496961 52.20848653 29.60513232 55.86831465 31.01611328 59.52783203 C31.50195582 60.78799335 31.98779565 62.0481557 32.47363281 63.30831909 C32.7151004 63.934631 32.95656799 64.56094292 33.20535278 65.20623398 C34.42124918 68.36034378 35.63662576 71.51465385 36.85205078 74.66894531 C40.85843174 85.06568823 44.86543542 95.46217608 48.884552 105.85400391 C49.6734512 107.89525437 50.46131361 109.93690591 51.24801636 111.97900391 C55.07500856 121.91213417 58.94791034 131.82575689 63.00390625 141.66796875 C63.31878998 142.44735809 63.63367371 143.22674744 63.95809937 144.02975464 C66.7547121 150.72575066 69.80825685 155.14817044 76.4765625 158.25 C80.15578902 159.64335455 83.85122284 160.37322733 87.71484375 161.09765625 C87.71484375 164.39765625 87.71484375 167.69765625 87.71484375 171.09765625 C64.61484375 171.09765625 41.51484375 171.09765625 17.71484375 171.09765625 C17.71484375 167.79765625 17.71484375 164.49765625 17.71484375 161.09765625 C18.90722656 160.90429688 20.09960938 160.7109375 21.328125 160.51171875 C22.89459487 160.24907709 24.4609977 159.98603537 26.02734375 159.72265625 C26.81302734 159.59632813 27.59871094 159.47 28.40820312 159.33984375 C29.54418945 159.14648438 29.54418945 159.14648438 30.703125 158.94921875 C31.39962158 158.83400879 32.09611816 158.71879883 32.8137207 158.60009766 C35.02313134 158.12590504 35.02313134 158.12590504 37.71484375 156.09765625 C37.19007717 150.49690915 36.07026372 145.66511062 33.9921875 140.421875 C33.72724991 139.73003616 33.46231232 139.03819733 33.18934631 138.32539368 C32.35210153 136.14195369 31.50318201 133.96333117 30.65234375 131.78515625 C29.79938129 129.58862755 28.94909471 127.39117057 28.10462952 125.19136047 C27.58129177 123.82928476 27.05287266 122.46914781 26.51878357 121.11125183 C25.42487038 118.27464438 24.71484375 116.16871216 24.71484375 113.09765625 C-3.99515625 113.59265625 -3.99515625 113.59265625 -33.28515625 114.09765625 C-41.47289457 132.58412533 -41.47289457 132.58412533 -44.28515625 153.09765625 C-40.15369046 158.70602453 -33.31255013 159.44218056 -26.7890625 160.50390625 C-24.95879482 160.73880692 -23.12227915 160.92434277 -21.28515625 161.09765625 C-21.28515625 164.39765625 -21.28515625 167.69765625 -21.28515625 171.09765625 C-42.40515625 171.09765625 -63.52515625 171.09765625 -85.28515625 171.09765625 C-85.28515625 167.79765625 -85.28515625 164.49765625 -85.28515625 161.09765625 C-84.43953125 160.95070313 -83.59390625 160.80375 -82.72265625 160.65234375 C-74.80065585 159.08594822 -67.98545607 157.37342938 -63.15725708 150.48953247 C-59.86785752 145.37858675 -57.49459554 140.19911741 -55.30859375 134.5390625 C-54.94584854 133.61885818 -54.58310333 132.69865387 -54.20936584 131.75056458 C-53.0184752 128.72343185 -51.83921896 125.69191336 -50.66015625 122.66015625 C-49.81839745 120.51294525 -48.97601946 118.36597689 -48.13305664 116.21923828 C-45.50484262 109.51679504 -42.89331428 102.80792503 -40.28515625 96.09765625 C-39.87597961 95.04564026 -39.46680298 93.99362427 -39.04522705 92.909729 C-35.0915142 82.74357892 -31.14783383 72.57356151 -27.21139526 62.40071106 C-22.28141444 49.6603393 -17.33812662 36.9252277 -12.37039185 24.19952393 C-11.56771752 22.14224718 -10.7660104 20.0845928 -9.96530151 18.02655029 C-8.86350277 15.19509436 -7.75839189 12.36495444 -6.65234375 9.53515625 C-6.16005531 8.26715683 -6.16005531 8.26715683 -5.65782166 6.97354126 C-2.97421962 0.1271034 -2.97421962 0.1271034 0 0 Z M-5.28515625 39.09765625 C-5.51430725 39.68932587 -5.74345825 40.28099548 -5.97955322 40.89059448 C-8.38007957 47.08845076 -10.781376 53.28600829 -13.18310547 59.48339844 C-14.07750594 61.79159121 -14.97171474 64.09985828 -15.86572266 66.40820312 C-17.15606231 69.73978244 -18.44710738 73.07108767 -19.73828125 76.40234375 C-20.13323792 77.42254608 -20.52819458 78.44274841 -20.93511963 79.49386597 C-21.31521179 80.4741275 -21.69530396 81.45438904 -22.08691406 82.46435547 C-22.45095337 83.40454529 -22.81499268 84.34473511 -23.19006348 85.31341553 C-24.60259658 88.90473881 -26.07813967 92.46929786 -27.57000732 96.02835083 C-28.44847717 98.20533071 -28.44847717 98.20533071 -28.28515625 101.09765625 C-12.77515625 101.09765625 2.73484375 101.09765625 18.71484375 101.09765625 C17.9808659 97.42776699 17.23854976 94.57342152 15.90478516 91.15893555 C15.53414948 90.20411789 15.16351379 89.24930023 14.78164673 88.26554871 C14.38061737 87.24463638 13.97958801 86.22372406 13.56640625 85.171875 C13.15321136 84.11031693 12.74001648 83.04875885 12.31430054 81.95503235 C10.99331907 78.56356257 9.66673768 75.17431662 8.33984375 71.78515625 C7.02133364 68.40623313 5.70396174 65.02686811 4.3868103 61.64741516 C3.56758002 59.54673015 2.74733907 57.44643891 1.92593384 55.34660339 C-0.18560854 49.94493285 -2.26389385 44.5337798 -4.28515625 39.09765625 C-4.61515625 39.09765625 -4.94515625 39.09765625 -5.28515625 39.09765625 Z " fill="#000000" transform="translate(534.28515625,1047.90234375)"/>
<path d="M0 0 C25.08 0 50.16 0 76 0 C76 2.97 76 5.94 76 9 C74.74703125 9.27714844 73.4940625 9.55429688 72.203125 9.83984375 C70.55207708 10.20570096 68.90103576 10.57158793 67.25 10.9375 C66.425 11.11990234 65.6 11.30230469 64.75 11.49023438 C63.55117187 11.75610352 63.55117187 11.75610352 62.328125 12.02734375 C61.5949707 12.18968506 60.86181641 12.35202637 60.10644531 12.51928711 C58.06333951 12.98554526 56.03225203 13.48881668 54 14 C51.94601488 20.78053299 51.7095941 27.0299986 51.7253418 34.08813477 C51.72023087 35.27774811 51.71511993 36.46736145 51.70985413 37.69302368 C51.69838638 40.93470037 51.69587611 44.1762174 51.69841743 47.41790891 C51.69949209 50.13163838 51.69459145 52.84534463 51.689812 55.5590691 C51.67874588 61.96281854 51.67826383 68.36650931 51.68432617 74.77026367 C51.69037161 81.36301458 51.678034 87.95555238 51.6567561 94.54826695 C51.63911528 100.22408831 51.63314242 105.89984198 51.63639385 111.57568973 C51.63820203 114.95895663 51.63561674 118.34207128 51.62167931 121.72531319 C51.60933835 125.49746256 51.61609259 129.26911826 51.62768555 133.04125977 C51.62004181 134.15366531 51.61239807 135.26607086 51.60452271 136.41218567 C51.64504257 142.37957272 52.05273518 146.75877855 55 152 C58.90704082 155.30162549 63.40180989 155.88441127 68.3125 156.6875 C69.42334961 156.88182617 69.42334961 156.88182617 70.55664062 157.08007812 C72.36952334 157.3958706 74.18456851 157.69920583 76 158 C76 161.3 76 164.6 76 168 C50.92 168 25.84 168 0 168 C0 164.7 0 161.4 0 158 C1.16917969 157.89042969 2.33835937 157.78085938 3.54296875 157.66796875 C5.09121194 157.50845279 6.63938558 157.34826086 8.1875 157.1875 C9.34088867 157.08211914 9.34088867 157.08211914 10.51757812 156.97460938 C15.02226688 156.49127367 18.32103956 155.86141367 22 153 C24.22454476 149.66318285 24.25522946 148.59322235 24.27415466 144.69961548 C24.28412979 143.6004631 24.29410492 142.50131073 24.30438232 141.36885071 C24.30537933 139.55939217 24.30537933 139.55939217 24.30639648 137.71337891 C24.31472 136.44325455 24.32304352 135.17313019 24.33161926 133.86451721 C24.35357396 130.37892431 24.36236443 126.89341915 24.36744571 123.40776491 C24.37108816 121.22990534 24.37732763 119.05206879 24.3844471 116.87421799 C24.40894503 109.27583557 24.42199421 101.67752145 24.42553711 94.07910156 C24.42917263 86.99722969 24.45906781 79.91579115 24.50094169 72.83405173 C24.535636 66.7532689 24.5510854 60.67262974 24.55178314 54.5917486 C24.55257627 50.96019132 24.56133038 47.32907538 24.58978081 43.69762039 C24.62080857 39.64657264 24.6119062 35.59655726 24.59936523 31.54541016 C24.61419952 30.34315292 24.62903381 29.14089569 24.64431763 27.90220642 C24.78942259 21.27414706 24.78942259 21.27414706 21.60702515 15.78007507 C19.11076115 14.07562764 17.2774519 13.11367902 14.35546875 12.41796875 C13.09379883 12.10375977 13.09379883 12.10375977 11.80664062 11.78320312 C10.94232422 11.58662109 10.07800781 11.39003906 9.1875 11.1875 C7.86202148 10.86362305 7.86202148 10.86362305 6.50976562 10.53320312 C4.343633 10.006306 2.17227615 9.50096653 0 9 C0 6.03 0 3.06 0 0 Z " fill="#000000" transform="translate(1330,1051)"/>
<path d="M0 0 C3.125 0.39453125 3.125 0.39453125 5.1875 2.1328125 C5.826875 2.98230469 6.46625 3.83179688 7.125 4.70703125 C7.89457031 5.71378906 8.66414063 6.72054688 9.45703125 7.7578125 C10.34760078 8.96913656 11.23682409 10.18145103 12.125 11.39453125 C13.19077851 12.82598842 14.25722327 14.25694971 15.32421875 15.6875 C18.31955292 19.72026956 21.28822399 23.77200199 24.25048828 27.82910156 C27.40741523 32.14962622 30.57841515 36.45976174 33.75 40.76953125 C34.32967529 41.55972656 34.90935059 42.34992188 35.5065918 43.1640625 C36.32703979 44.27974609 36.32703979 44.27974609 37.1640625 45.41796875 C37.87876709 46.3912915 37.87876709 46.3912915 38.60791016 47.38427734 C40.4003854 49.75943684 42.25760487 52.0779967 44.125 54.39453125 C44.12055878 53.74751251 44.11611755 53.10049377 44.11154175 52.43386841 C44.06740075 45.71846722 44.03717212 39.00310703 44.01513672 32.28759766 C44.00505989 29.7791171 43.99139821 27.27064833 43.97412109 24.76220703 C43.94994663 21.16305637 43.93853388 17.56406058 43.9296875 13.96484375 C43.91936493 12.8377298 43.90904236 11.71061584 43.89840698 10.54934692 C43.89818039 8.98795486 43.89818039 8.98795486 43.89794922 7.39501953 C43.893508 6.47568634 43.88906677 5.55635315 43.88449097 4.60916138 C44.125 2.39453125 44.125 2.39453125 46.125 0.39453125 C49.125 0.14453125 49.125 0.14453125 52.125 0.39453125 C54.8879106 3.15744185 54.37847741 4.76365196 54.38378906 8.63256836 C54.39009338 9.94410385 54.39639771 11.25563934 54.40289307 12.60691833 C54.39931303 14.04523858 54.395211 15.48355761 54.390625 16.921875 C54.39197181 18.39156661 54.39391247 19.86125779 54.39642334 21.33094788 C54.3993748 24.41362747 54.39507695 27.49619127 54.38574219 30.57885742 C54.37435756 34.53125465 54.38090056 38.48337997 54.39288712 42.43576717 C54.40011372 45.47178699 54.39781395 48.50774235 54.39263153 51.54376411 C54.39129673 53.0010233 54.39293685 54.45828833 54.39759064 55.9155407 C54.4026676 57.95272587 54.39355789 59.98993153 54.38378906 62.02709961 C54.38219788 63.18688828 54.38060669 64.34667694 54.37896729 65.54161072 C54.125 68.39453125 54.125 68.39453125 52.125 71.39453125 C48.8125 71.89453125 48.8125 71.89453125 45.125 71.39453125 C40.58759542 67.50966312 37.28739256 62.71972174 33.8125 57.89453125 C26.70221416 48.1284234 19.40347701 38.51486638 12.05273438 28.92895508 C9.39211194 25.43099136 6.75872476 21.91277094 4.125 18.39453125 C4.12944122 19.04154999 4.13388245 19.68856873 4.13845825 20.35519409 C4.18259925 27.07059528 4.21282788 33.78595547 4.23486328 40.50146484 C4.24494011 43.0099454 4.25860179 45.51841417 4.27587891 48.02685547 C4.30005337 51.62600613 4.31146612 55.22500192 4.3203125 58.82421875 C4.33063507 59.9513327 4.34095764 61.07844666 4.35159302 62.23971558 C4.35174408 63.28064362 4.35189514 64.32157166 4.35205078 65.39404297 C4.356492 66.31337616 4.36093323 67.23270935 4.36550903 68.17990112 C4.125 70.39453125 4.125 70.39453125 2.125 72.39453125 C-0.375 72.64453125 -0.375 72.64453125 -2.875 72.39453125 C-5.67122582 69.59830543 -5.12858491 67.87371807 -5.13378906 63.95703125 C-5.1372937 63.29670898 -5.14079834 62.63638672 -5.14440918 61.95605469 C-5.15322681 59.76877393 -5.14737743 57.58181542 -5.140625 55.39453125 C-5.14197165 53.87760353 -5.14391217 52.36067624 -5.14642334 50.84375 C-5.14937464 47.66271867 -5.14507684 44.48179956 -5.13574219 41.30078125 C-5.12434757 37.21825223 -5.13090702 33.13598616 -5.14288712 29.0534668 C-5.15010561 25.92055267 -5.14781786 22.78770114 -5.14263153 19.65478516 C-5.141295 18.14925099 -5.14294288 16.64371118 -5.14759064 15.13818359 C-5.15265579 13.03597913 -5.14494627 10.93420367 -5.13378906 8.83203125 C-5.13219788 7.63449219 -5.13060669 6.43695312 -5.12896729 5.203125 C-4.7734695 1.27171759 -3.88425074 0.53302897 0 0 Z " fill="#000000" transform="translate(1227.875,1277.60546875)"/>
<path d="M0 0 C7.41252112 6.32776193 7.41252112 6.32776193 7.875 12.0625 C7.771875 13.09375 7.66875 14.125 7.5625 15.1875 C4.75 15.875 4.75 15.875 1.5625 16.1875 C0 15.0625 0 15.0625 -1.4375 13.1875 C-6.29613936 7.29824017 -11.77897329 5.67193369 -19.1796875 4.90234375 C-27.0103772 4.6472363 -34.1260196 5.80323411 -40.5625 10.4375 C-43.00536559 14.02036953 -43.21024691 15.93739198 -42.4375 20.1875 C-35.83648633 27.81992206 -22.36427688 27.04004015 -13.08007812 27.8671875 C-5.0973248 28.68450256 2.27414894 29.81694016 8.0625 35.75 C11.25406955 40.93630052 11.26735481 46.2650992 10.5625 52.1875 C8.31501746 58.18414625 4.13560256 62.22190629 -1.4375 65.1875 C-8.22742195 67.83331684 -14.62541702 68.70786001 -21.875 68.625 C-22.79224854 68.61887695 -23.70949707 68.61275391 -24.65454102 68.60644531 C-31.52103416 68.4480487 -37.32329953 67.47888268 -43.4375 64.1875 C-44.55125 63.61 -45.665 63.0325 -46.8125 62.4375 C-50.2439126 59.4962892 -52.66780924 56.3636394 -54.4375 52.1875 C-54.25 49.1875 -54.25 49.1875 -53.4375 47.1875 C-49.9725 46.6925 -49.9725 46.6925 -46.4375 46.1875 C-42.4375 51.9375 -42.4375 51.9375 -42.4375 54.1875 C-41.715625 54.47625 -40.99375 54.765 -40.25 55.0625 C-38.54396025 55.7449159 -36.84749524 56.45300214 -35.171875 57.20703125 C-25.6955069 60.6049861 -15.76359584 59.34252795 -6.4375 56.1875 C-5.53128906 55.91164063 -4.62507812 55.63578125 -3.69140625 55.3515625 C-1.30048394 54.39151405 -1.30048394 54.39151405 -0.40625 52.19921875 C0.60766166 47.18072667 0.60766166 47.18072667 -0.5 42.25 C-4.31788811 38.18579653 -9.03899591 37.83753684 -14.390625 37.2578125 C-15.74614254 37.10068074 -17.10160979 36.94311469 -18.45703125 36.78515625 C-20.56698579 36.54713265 -22.67721298 36.31359731 -24.78857422 36.08837891 C-44.37382053 33.97142731 -44.37382053 33.97142731 -50.4375 27.1875 C-53.61153565 22.42644652 -53.82595672 18.91723666 -53.4375 13.1875 C-51.58958538 6.71979883 -48.11143196 2.79169577 -42.4375 -0.8125 C-29.08096753 -6.88365112 -13.06591725 -6.88930182 0 0 Z " fill="#000000" transform="translate(867.4375,1281.8125)"/>
<path d="M0 0 C0.81831802 -0.00807175 1.63663605 -0.01614349 2.47975159 -0.02445984 C4.220773 -0.03832663 5.96182191 -0.04903711 7.70288086 -0.05688477 C10.33697376 -0.07394713 12.96976144 -0.11778842 15.60351562 -0.16210938 C25.97333268 -0.25762767 33.84964939 0.39782584 42.81640625 6.05078125 C47.61627672 10.99182439 50.04304724 16.61431393 50.19140625 23.48828125 C50.10159391 29.55560391 48.58337337 34.16167578 44.81640625 38.92578125 C41.11623713 41.90200424 37.1584419 44.07923249 32.94140625 46.23828125 C33.79412109 47.181875 33.79412109 47.181875 34.6640625 48.14453125 C36.27108844 49.92594231 37.87372387 51.71132089 39.47265625 53.5 C40.99418585 55.18764596 42.53255847 56.86049038 44.09765625 58.5078125 C44.72671875 59.18199219 45.35578125 59.85617187 46.00390625 60.55078125 C46.57238281 61.14503906 47.14085937 61.73929688 47.7265625 62.3515625 C49.31227441 64.81425977 49.31199458 66.36270346 48.94140625 69.23828125 C48.28140625 69.89828125 47.62140625 70.55828125 46.94140625 71.23828125 C42.5206634 71.01063502 40.54571724 69.31104896 37.56640625 66.17578125 C36.79039062 65.36496094 36.014375 64.55414062 35.21484375 63.71875 C32.59769119 60.86326568 30.03200267 57.97191622 27.515625 55.02734375 C26.07399444 53.3889646 24.57886166 51.87206206 23.00390625 50.36328125 C20.94140625 48.23828125 20.94140625 48.23828125 20.94140625 46.23828125 C14.01140625 46.23828125 7.08140625 46.23828125 -0.05859375 46.23828125 C-0.03539062 47.80320312 -0.0121875 49.368125 0.01171875 50.98046875 C0.03047348 53.02473483 0.048674 55.06900605 0.06640625 57.11328125 C0.08316406 58.14582031 0.09992187 59.17835937 0.1171875 60.2421875 C0.12363281 61.22832031 0.13007812 62.21445313 0.13671875 63.23046875 C0.14719238 64.1416748 0.15766602 65.05288086 0.16845703 65.99169922 C-0.05859375 68.23828125 -0.05859375 68.23828125 -2.05859375 70.23828125 C-5.12109375 70.42578125 -5.12109375 70.42578125 -8.05859375 70.23828125 C-9.90656576 68.39030924 -9.18635322 65.37032048 -9.18798828 62.8984375 C-9.19061676 61.9057637 -9.19061676 61.9057637 -9.19329834 60.89303589 C-9.19771592 58.69559135 -9.19477922 56.49822667 -9.19140625 54.30078125 C-9.19207932 52.78002914 -9.19304936 51.25927713 -9.19430542 49.73852539 C-9.19578226 46.54735289 -9.19362827 43.35620833 -9.18896484 40.16503906 C-9.18326755 36.06563595 -9.18654663 31.96629829 -9.19253731 27.86689758 C-9.19614329 24.72545881 -9.19500417 21.58403567 -9.19240952 18.44259644 C-9.19174035 16.93065381 -9.19256832 15.41870979 -9.19488907 13.9067688 C-9.1974162 11.79718238 -9.19357419 9.68770338 -9.18798828 7.578125 C-9.18719269 6.37534912 -9.18639709 5.17257324 -9.18557739 3.93334961 C-8.92669367 -1.5611324 -4.4246966 0.04113011 0 0 Z M-0.05859375 8.23828125 C-0.05859375 18.13828125 -0.05859375 28.03828125 -0.05859375 38.23828125 C5.81953125 38.33109375 5.81953125 38.33109375 11.81640625 38.42578125 C13.03054199 38.45309326 14.24467773 38.48040527 15.49560547 38.50854492 C22.68363089 38.56293763 30.59455711 38.44089092 36.62475586 33.99804688 C40.36624623 30.07176702 40.94140625 26.43275596 40.94140625 21.23828125 C39.21486017 16.05864302 36.32445432 13.39407586 31.94140625 10.23828125 C28.02369872 8.31255072 24.8913727 8.00178868 20.546875 8.04296875 C19.46301514 8.04796387 18.37915527 8.05295898 17.26245117 8.05810547 C15.21634644 8.08541748 15.21634644 8.08541748 13.12890625 8.11328125 C6.60109375 8.17515625 6.60109375 8.17515625 -0.05859375 8.23828125 Z " fill="#000000" transform="translate(562.05859375,1278.76171875)"/>
<path d="M0 0 C2.207901 -0.36749268 2.207901 -0.36749268 4.98461914 -0.35644531 C6.02231949 -0.35944641 7.06001984 -0.36244751 8.12916565 -0.36553955 C9.25314255 -0.35319275 10.37711945 -0.34084595 11.53515625 -0.328125 C13.2586454 -0.32531525 13.2586454 -0.32531525 15.01695251 -0.32244873 C17.44891251 -0.3157174 19.88086149 -0.30178169 22.31274414 -0.28125 C26.05039441 -0.25010089 29.78762346 -0.24028179 33.52539062 -0.234375 C35.88281768 -0.22520537 38.24024042 -0.21482972 40.59765625 -0.203125 C41.72365738 -0.19887512 42.84965851 -0.19462524 44.00978088 -0.19024658 C45.04432907 -0.18063904 46.07887726 -0.17103149 47.14477539 -0.16113281 C48.06029678 -0.15430481 48.97581818 -0.14747681 49.91908264 -0.14044189 C52 0 52 0 53 1 C53.04080783 2.99958364 53.04254356 5.00045254 53 7 C50.6699002 8.1650499 49.32752923 8.1209358 46.73388672 8.11352539 C45.41274368 8.11341209 45.41274368 8.11341209 44.06491089 8.11329651 C43.11278717 8.10813522 42.16066345 8.10297394 41.1796875 8.09765625 C40.20589142 8.0962413 39.23209534 8.09482635 38.22879028 8.09336853 C35.11082927 8.08775973 31.9929394 8.07520573 28.875 8.0625 C26.76432395 8.05748613 24.65364678 8.05292303 22.54296875 8.04882812 C17.36192953 8.03863725 12.18104465 8.01906353 7 8 C7 15.59 7 23.18 7 31 C10.00867188 30.98839844 13.01734375 30.97679687 16.1171875 30.96484375 C19.02294815 30.9570507 21.92870764 30.95097535 24.83447266 30.94506836 C26.85791543 30.94003169 28.88135456 30.93320211 30.90478516 30.92456055 C33.80892843 30.91246588 36.71302369 30.90676512 39.6171875 30.90234375 C40.52556366 30.89718246 41.43393982 30.89202118 42.36984253 30.88670349 C43.21056305 30.88662796 44.05128357 30.88655243 44.91748047 30.88647461 C46.03000687 30.88314369 46.03000687 30.88314369 47.16500854 30.87974548 C49 31 49 31 51 32 C51.04254356 33.99954746 51.04080783 36.00041636 51 38 C50 39 50 39 48.24729919 39.12025452 C47.48562943 39.11803391 46.72395966 39.11581329 45.93920898 39.11352539 C45.07839218 39.11344986 44.21757538 39.11337433 43.33067322 39.11329651 C42.39526199 39.10813522 41.45985077 39.10297394 40.49609375 39.09765625 C39.54307877 39.0962413 38.59006378 39.09482635 37.60816956 39.09336853 C34.55124835 39.08775152 31.49439923 39.07519616 28.4375 39.0625 C26.37044376 39.05748719 24.30338638 39.05292391 22.23632812 39.04882812 C17.15750167 39.03862558 12.07883194 39.01905356 7 39 C7 46.59 7 54.18 7 62 C21.85 62 36.7 62 52 62 C52.66 63.65 53.32 65.3 54 67 C53.34 67.99 52.68 68.98 52 70 C49.84352112 70.38095093 49.84352112 70.38095093 47.13891602 70.38818359 C46.1276918 70.39764008 45.11646759 70.40709656 44.07460022 70.4168396 C42.97877121 70.41076691 41.8829422 70.40469421 40.75390625 70.3984375 C39.63185287 70.40130768 38.5097995 70.40417786 37.35374451 70.40713501 C34.97727963 70.40917942 32.60079807 70.40362335 30.22436523 70.39111328 C26.58083516 70.37508068 22.93841702 70.39094236 19.29492188 70.41015625 C16.98958088 70.40817359 14.68424057 70.40432945 12.37890625 70.3984375 C11.28510147 70.40451019 10.19129669 70.41058289 9.06434631 70.4168396 C7.54278175 70.40265488 7.54278175 70.40265488 5.99047852 70.38818359 C5.09716324 70.38579681 4.20384796 70.38341003 3.28346252 70.38095093 C1 70 1 70 -0.78863525 68.86123657 C-2.55033179 66.15442672 -2.37411874 64.04614337 -2.37231445 60.83203125 C-2.37854324 59.56061279 -2.38477203 58.28919434 -2.39118958 56.97924805 C-2.38250149 55.59032805 -2.3731835 54.20141187 -2.36328125 52.8125 C-2.36276258 51.38907878 -2.36328054 49.96565684 -2.36479187 48.54223633 C-2.36470217 45.55962423 -2.35427722 42.57728255 -2.33618164 39.59472656 C-2.31349432 35.77125195 -2.3129505 31.94817245 -2.31969929 28.12464905 C-2.32304053 25.18555183 -2.3164063 22.24654473 -2.30657005 19.3074646 C-2.30272042 17.89765901 -2.30156886 16.4878434 -2.3031559 15.07803345 C-2.30352667 13.10798901 -2.2894275 11.13795785 -2.2746582 9.16796875 C-2.26774712 7.48610474 -2.26774712 7.48610474 -2.26069641 5.77026367 C-2 3 -2 3 0 0 Z " fill="#000000" transform="translate(921,1279)"/>
<path d="M0 0 C1.37447548 0.00213753 1.37447548 0.00213753 2.77671814 0.00431824 C3.81441849 0.00124161 4.85211884 -0.00183502 5.92126465 -0.00500488 C7.60723 0.00577339 7.60723 0.00577339 9.32725525 0.01676941 C11.0507444 0.01745674 11.0507444 0.01745674 12.80905151 0.01815796 C15.24099254 0.0211829 17.67293159 0.02907637 20.10484314 0.04142761 C23.8424612 0.05967889 27.57983167 0.06193739 31.31748962 0.06169128 C33.67491366 0.06660644 36.032336 0.07243475 38.38975525 0.07926941 C40.07875694 0.08093864 40.07875694 0.08093864 41.80187988 0.0826416 C42.83642807 0.08902145 43.87097626 0.09540131 44.93687439 0.10197449 C46.31015648 0.10769218 46.31015648 0.10769218 47.71118164 0.11352539 C49.792099 0.24723816 49.792099 0.24723816 50.792099 1.24723816 C50.979599 3.68473816 50.979599 3.68473816 50.792099 6.24723816 C48.792099 8.24723816 48.792099 8.24723816 46.88117981 8.48774719 C45.71535873 8.48108536 45.71535873 8.48108536 44.52598572 8.47428894 C43.64522369 8.47413788 42.76446167 8.47398682 41.85700989 8.47383118 C40.90488617 8.46350861 39.95276245 8.45318604 38.9717865 8.44255066 C37.51109238 8.43830582 37.51109238 8.43830582 36.02088928 8.43397522 C32.90283551 8.42275729 29.78506632 8.39764986 26.667099 8.37223816 C24.55642606 8.36221044 22.44574862 8.35308423 20.33506775 8.34489441 C15.15387964 8.32451208 9.97330882 8.28536644 4.792099 8.24723816 C4.792099 15.83723816 4.792099 23.42723816 4.792099 31.24723816 C9.30510681 31.21243347 9.30510681 31.21243347 13.9092865 31.17692566 C16.81504392 31.16133958 19.72079674 31.14918889 22.62657166 31.13737488 C24.65003027 31.12730145 26.67347428 31.11364221 28.69688416 31.09635925 C31.60105489 31.07216969 34.50503361 31.06076867 37.4092865 31.05192566 C38.31766266 31.04160309 39.22603882 31.03128052 40.16194153 31.02064514 C41.00266205 31.02049408 41.84338257 31.02034302 42.70957947 31.02018738 C43.82210587 31.01352554 43.82210587 31.01352554 44.95710754 31.00672913 C46.792099 31.24723816 46.792099 31.24723816 48.792099 33.24723816 C48.979599 35.80973816 48.979599 35.80973816 48.792099 38.24723816 C47.792099 39.24723816 47.792099 39.24723816 46.03939819 39.36749268 C45.27772842 39.36527206 44.51605865 39.36305145 43.73130798 39.36076355 C42.87049118 39.36068802 42.00967438 39.36061249 41.12277222 39.36053467 C40.18736099 39.35537338 39.25194977 39.3502121 38.28819275 39.34489441 C37.33517776 39.34347946 36.38216278 39.34206451 35.40026855 39.34060669 C32.34334735 39.33498968 29.28649823 39.32243432 26.229599 39.30973816 C24.16254276 39.30472535 22.09548538 39.30016206 20.02842712 39.29606628 C14.94960067 39.28586374 9.87093094 39.26629172 4.792099 39.24723816 C4.792099 46.83723816 4.792099 54.42723816 4.792099 62.24723816 C8.02893494 62.2356366 11.26577087 62.22403503 14.60069275 62.21208191 C17.72154136 62.20429229 20.84238891 62.19821499 23.96324158 62.19230652 C26.13902773 62.18726508 28.31481047 62.18043209 30.49058533 62.17179871 C33.61062967 62.15972478 36.73062938 62.15400811 39.85069275 62.14958191 C41.31943092 62.14183998 41.31943092 62.14183998 42.81784058 62.13394165 C44.16912804 62.13382835 44.16912804 62.13382835 45.54771423 62.13371277 C46.34491379 62.13149216 47.14211334 62.12927155 47.96347046 62.12698364 C49.792099 62.24723816 49.792099 62.24723816 50.792099 63.24723816 C50.917099 66.24723816 50.917099 66.24723816 50.792099 69.24723816 C49.15715848 70.88217868 47.29994918 70.39115934 45.04454041 70.40837097 C44.03324066 70.41797852 43.02194092 70.42758606 41.97999573 70.43748474 C40.87900543 70.44173462 39.77801514 70.4459845 38.6436615 70.45036316 C36.95845901 70.45891327 36.95845901 70.45891327 35.23921204 70.46763611 C32.85678555 70.47710306 30.47434587 70.48362678 28.09190369 70.48747253 C24.4396539 70.49717822 20.78796655 70.52818639 17.135849 70.55973816 C14.82595652 70.56626775 12.51606 70.57151839 10.2061615 70.57536316 C8.56074875 70.59388336 8.56074875 70.59388336 6.88209534 70.61277771 C5.86449127 70.60977661 4.84688721 70.60677551 3.79844666 70.60368347 C2.90211517 70.6073291 2.00578369 70.61097473 1.08229065 70.61473083 C-1.207901 70.24723816 -1.207901 70.24723816 -2.99752808 69.1171875 C-4.77005071 66.37875254 -4.58200424 64.21715976 -4.58021545 60.97160339 C-4.58955864 59.02960304 -4.58955864 59.02960304 -4.59909058 57.04837036 C-4.59040342 55.63418696 -4.58108554 54.22000732 -4.57118225 52.80583191 C-4.57066364 51.35759481 -4.57118137 49.90935701 -4.57269287 48.46112061 C-4.57260317 45.42723572 -4.56217816 42.39361672 -4.54408264 39.35978699 C-4.52137508 35.46671381 -4.5208552 31.57402846 -4.52760029 27.68090725 C-4.53093775 24.6912388 -4.52431478 21.70165915 -4.51447105 18.71200752 C-4.51061641 17.27625556 -4.50947193 15.84049373 -4.5110569 14.40473747 C-4.51142678 12.40096196 -4.49734765 10.39719936 -4.4825592 8.39347839 C-4.47795181 7.25225021 -4.47334442 6.11102203 -4.46859741 4.93521118 C-4.14100096 1.55744922 -3.46210832 0.38768282 0 0 Z " fill="#000000" transform="translate(1332.2079010009766,1278.7527618408203)"/>
<path d="M0 0 C5.21791514 5.16494138 7.29491713 9.41440904 7.375 16.75 C7.242332 24.73495528 5.8060427 29.1939573 0.1875 34.8125 C-6.77012388 39.58733992 -12.67329271 41.03059106 -21 40 C-27.65072464 38.25145268 -32.3168163 34.80856183 -36 29 C-38.97957284 22.9586592 -38.72196938 16.57959727 -38 10 C-35.66289687 3.54036732 -30.70814814 -0.68240741 -25 -4.25 C-15.93554877 -7.64916921 -7.3889272 -6.03375278 0 0 Z " fill="#000000" transform="translate(931,634)"/>
<path d="M0 0 C3 -0.375 3 -0.375 6 0 C8.04833674 3.0725051 8.24942381 3.69745301 8.25537109 7.16088867 C8.26233002 7.99573288 8.26928894 8.83057709 8.27645874 9.6907196 C8.27546173 10.59071182 8.27446472 11.49070404 8.2734375 12.41796875 C8.29373742 14.33138594 8.3145884 16.24479735 8.3359375 18.15820312 C8.35847557 21.1687507 8.37498355 24.17906939 8.38085938 27.18969727 C8.39043202 30.09954073 8.42427837 33.00835747 8.4609375 35.91796875 C8.45589203 36.80783981 8.45084656 37.69771088 8.44564819 38.61454773 C8.56234464 46.09858219 10.48879966 51.37199965 15.6875 56.8125 C22.39847623 61.24427675 28.33365643 62.67374455 36.3515625 61.640625 C42.69057295 60.10729504 47.45618044 56.45203009 51 51 C53.5321911 46.20692399 53.31292588 41.49921523 53.34375 36.2109375 C53.3583728 35.27069733 53.37299561 34.33045715 53.38806152 33.36172485 C53.45020987 29.34903265 53.49000362 25.33619033 53.53173828 21.32324219 C53.56542863 18.3898089 53.61053823 15.45670404 53.65625 12.5234375 C53.6615271 11.61403412 53.6668042 10.70463074 53.67224121 9.76766968 C53.69236267 8.50087875 53.69236267 8.50087875 53.71289062 7.20849609 C53.72018188 6.46634857 53.72747314 5.72420105 53.73498535 4.95956421 C54 3 54 3 56 0 C59 -0.375 59 -0.375 62 0 C64.58348047 3.87522071 64.30576686 7.12553006 64.30078125 11.62109375 C64.30506638 12.47623062 64.3093515 13.33136749 64.31376648 14.2124176 C64.31951322 16.02726356 64.32000751 17.84213254 64.31567383 19.65698242 C64.31254727 22.39608804 64.33585049 25.13407749 64.36132812 27.87304688 C64.45276809 52.33316656 64.45276809 52.33316656 56.078125 62.02734375 C48.8973806 68.84365187 40.87865528 71.93613981 31.0546875 72.02734375 C21.99902151 71.57571846 13.3742632 69.27212189 6.6015625 62.96484375 C-0.7826253 53.90570603 -2.15244506 44.15562498 -2.16796875 32.890625 C-2.17129715 32.0419989 -2.17462555 31.1933728 -2.17805481 30.31903076 C-2.18308981 28.53739968 -2.1854642 26.75575928 -2.18530273 24.97412109 C-2.18750459 22.24431106 -2.20573795 19.51489577 -2.22460938 16.78515625 C-2.22754092 15.04948054 -2.22952731 13.31380293 -2.23046875 11.578125 C-2.23765427 10.76249084 -2.24483978 9.94685669 -2.25224304 9.10650635 C-2.2364476 5.21498489 -2.2085431 3.31281466 0 0 Z " fill="#000000" transform="translate(655,1278)"/>
<path d="M0 0 C10.41400737 -0.53405166 20.34800562 2.62876661 28.328125 9.37109375 C29.875 11.1875 29.875 11.1875 30.4375 14.625 C30.1590625 15.8934375 30.1590625 15.8934375 29.875 17.1875 C26.75 18 26.75 18 22.875 18.1875 C19.875 15.9375 19.875 15.9375 18.375 14.53515625 C12.84231435 9.56438398 6.48841682 9.65907864 -0.6171875 9.84765625 C-7.74121934 10.53784642 -13.04129842 12.6448467 -18.0625 17.8125 C-22.91011171 23.95204597 -24.95752917 31.41722771 -24.125 39.1875 C-22.39514192 47.93769877 -18.81898077 54.90434767 -11.375 60.0625 C-4.68448746 63.82193085 2.26893502 65.06007093 9.70703125 63.01953125 C14.47928899 61.18801612 18.5413592 58.63881498 22 54.875 C23.875 53.1875 23.875 53.1875 27.0625 52.875 C29.875 53.1875 29.875 53.1875 30.875 54.1875 C31.46084917 57.26320812 31.45941164 59.30408706 29.69921875 61.96484375 C23.30803535 68.93565715 14.47651737 72.61057656 5.1484375 73.42578125 C-4.89119884 73.68286089 -13.41467551 71.37106601 -21.27734375 64.9453125 C-29.94624427 56.69794414 -33.46317124 48.15438703 -34.1875 36.30859375 C-33.97462455 25.67812588 -29.97741331 17.27864737 -23 9.5 C-16.67376049 3.45061999 -8.54345834 0.75383456 0 0 Z " fill="#000000" transform="translate(479.125,1276.8125)"/>
<path d="M0 0 C3.0625 0.1875 3.0625 0.1875 5.0625 2.1875 C5.30300903 4.74380493 5.30300903 4.74380493 5.28955078 8.01416016 C5.28939972 9.23527496 5.28924866 10.45638977 5.28909302 11.71450806 C5.27887903 13.05186118 5.26844702 14.38921265 5.2578125 15.7265625 C5.2540828 17.09133701 5.25123563 18.45611419 5.24923706 19.82089233 C5.24159714 23.41470723 5.22194572 27.00836073 5.1998291 30.60211182 C5.17937832 34.26857317 5.170237 37.93506057 5.16015625 41.6015625 C5.13870003 48.79694862 5.10455992 55.9922017 5.0625 63.1875 C6.35986084 63.18226318 7.65722168 63.17702637 8.99389648 63.17163086 C13.78897415 63.15358531 18.5840488 63.14206963 23.37915039 63.13256836 C25.45793156 63.12752712 27.53670916 63.12069426 29.61547852 63.11206055 C32.59652586 63.09998578 35.57752649 63.09426976 38.55859375 63.08984375 C39.96171059 63.08210182 39.96171059 63.08210182 41.39317322 63.07420349 C42.25399002 63.07412796 43.11480682 63.07405243 44.00170898 63.07397461 C44.76337875 63.071754 45.52504852 63.06953339 46.30979919 63.06724548 C48.0625 63.1875 48.0625 63.1875 49.0625 64.1875 C49.10330783 66.18708364 49.10504356 68.18795254 49.0625 70.1875 C46.6338955 71.40180225 45.08251176 71.31438439 42.36914062 71.31689453 C40.90752502 71.32162277 40.90752502 71.32162277 39.41638184 71.32644653 C37.83355408 71.32341019 37.83355408 71.32341019 36.21875 71.3203125 C34.59870056 71.32174759 34.59870056 71.32174759 32.94592285 71.32321167 C30.65942324 71.32389304 28.37292169 71.32204178 26.08642578 71.31787109 C22.57710444 71.31252226 19.06791109 71.31781758 15.55859375 71.32421875 C13.34114555 71.32355796 11.12369743 71.32227678 8.90625 71.3203125 C7.85103149 71.32233673 6.79581299 71.32436096 5.70861816 71.32644653 C4.73420776 71.32329437 3.75979736 71.32014221 2.75585938 71.31689453 C1.89585327 71.31609894 1.03584717 71.31530334 0.14978027 71.31448364 C-1.9375 71.1875 -1.9375 71.1875 -3.9375 70.1875 C-3.96062566 61.20829223 -3.97841623 52.22909463 -3.98931217 43.24986362 C-3.99454051 39.08087172 -4.00163726 34.91190013 -4.01293945 30.74291992 C-4.02377008 26.72292314 -4.02977721 22.70294595 -4.03237724 18.68293571 C-4.03423118 17.14587025 -4.03785119 15.60880591 -4.04323006 14.07174873 C-4.05044284 11.92614513 -4.05149084 9.78062345 -4.05102539 7.63500977 C-4.053246 6.41145279 -4.05546661 5.18789581 -4.05775452 3.92726135 C-3.8910434 0.12907832 -3.81860873 0.24374098 0 0 Z " fill="#000000" transform="translate(1081.9375,1277.8125)"/>
<path d="M0 0 C2.5 0.25 2.5 0.25 4.5 2.25 C4.75396729 5.13452148 4.75396729 5.13452148 4.75878906 8.87109375 C4.7622937 9.55092316 4.76579834 10.23075256 4.76940918 10.93118286 C4.77822781 13.18339176 4.77237705 15.43528778 4.765625 17.6875 C4.76697162 19.24926819 4.76891212 20.81103598 4.77142334 22.37280273 C4.77437477 25.64798977 4.77007639 28.92306781 4.76074219 32.19824219 C4.74934757 36.40183691 4.75590695 40.60517625 4.76788712 44.8087616 C4.77510523 48.03432142 4.77281803 51.25982045 4.76763153 54.48538208 C4.7662949 56.03557363 4.76794324 57.58577065 4.77259064 59.13595581 C4.77765516 61.30042193 4.7699471 63.46447127 4.75878906 65.62890625 C4.75640228 67.47850952 4.75640228 67.47850952 4.75396729 69.36547852 C4.5 72.25 4.5 72.25 2.5 74.25 C0 74.5 0 74.5 -2.5 74.25 C-5.32665591 71.42334409 -4.75367965 69.58838076 -4.75878906 65.62890625 C-4.7622937 64.94907684 -4.76579834 64.26924744 -4.76940918 63.56881714 C-4.77822781 61.31660824 -4.77237705 59.06471222 -4.765625 56.8125 C-4.76697162 55.25073181 -4.76891212 53.68896402 -4.77142334 52.12719727 C-4.77437477 48.85201023 -4.77007639 45.57693219 -4.76074219 42.30175781 C-4.74934757 38.09816309 -4.75590695 33.89482375 -4.76788712 29.6912384 C-4.77510523 26.46567858 -4.77281803 23.24017955 -4.76763153 20.01461792 C-4.7662949 18.46442637 -4.76794324 16.91422935 -4.77259064 15.36404419 C-4.77765516 13.19957807 -4.7699471 11.03552873 -4.75878906 8.87109375 C-4.75719788 7.6380249 -4.75560669 6.40495605 -4.75396729 5.13452148 C-4.42791791 1.43130267 -3.75994669 0.37599467 0 0 Z " fill="#000000" transform="translate(1173.5,1275.75)"/>
<path d="M0 0 C2.5 0.25 2.5 0.25 4.5 2.25 C4.75396729 5.13452148 4.75396729 5.13452148 4.75878906 8.87109375 C4.7622937 9.55092316 4.76579834 10.23075256 4.76940918 10.93118286 C4.77822781 13.18339176 4.77237705 15.43528778 4.765625 17.6875 C4.76697162 19.24926819 4.76891212 20.81103598 4.77142334 22.37280273 C4.77437477 25.64798977 4.77007639 28.92306781 4.76074219 32.19824219 C4.74934757 36.40183691 4.75590695 40.60517625 4.76788712 44.8087616 C4.77510523 48.03432142 4.77281803 51.25982045 4.76763153 54.48538208 C4.7662949 56.03557363 4.76794324 57.58577065 4.77259064 59.13595581 C4.77765516 61.30042193 4.7699471 63.46447127 4.75878906 65.62890625 C4.75640228 67.47850952 4.75640228 67.47850952 4.75396729 69.36547852 C4.5 72.25 4.5 72.25 2.5 74.25 C0 74.5 0 74.5 -2.5 74.25 C-5.32665591 71.42334409 -4.75367965 69.58838076 -4.75878906 65.62890625 C-4.7622937 64.94907684 -4.76579834 64.26924744 -4.76940918 63.56881714 C-4.77822781 61.31660824 -4.77237705 59.06471222 -4.765625 56.8125 C-4.76697162 55.25073181 -4.76891212 53.68896402 -4.77142334 52.12719727 C-4.77437477 48.85201023 -4.77007639 45.57693219 -4.76074219 42.30175781 C-4.74934757 38.09816309 -4.75590695 33.89482375 -4.76788712 29.6912384 C-4.77510523 26.46567858 -4.77281803 23.24017955 -4.76763153 20.01461792 C-4.7662949 18.46442637 -4.76794324 16.91422935 -4.77259064 15.36404419 C-4.77765516 13.19957807 -4.7699471 11.03552873 -4.75878906 8.87109375 C-4.75719788 7.6380249 -4.75560669 6.40495605 -4.75396729 5.13452148 C-4.42791791 1.43130267 -3.75994669 0.37599467 0 0 Z " fill="#000000" transform="translate(769.5,1275.75)"/>
</svg>
