<svg xmlns="http://www.w3.org/2000/svg" version="1.1" viewBox="568.2022372881356 341.18944860000005 694.9830508474577 629.356" style="max-height: 500px" width="694.9830508474577" height="629.356">
<path transform="translate(910.7734375,385.1328125)" fill="#FFFFFF" d="M0 0 C7.42980088 1.99687142 14.79460416 -1.0207893 21.95703125 -3.09765625 C32.02730584 -5.72213663 42.29886301 -6.50439097 52.6640625 -6.8203125 C54.43620117 -6.87457397 54.43620117 -6.87457397 56.24414062 -6.92993164 C59.57163355 -7.01779911 62.89828827 -7.08387511 66.2265625 -7.1328125 C67.02465332 -7.14505859 67.82274414 -7.15730469 68.64501953 -7.16992188 C77.75698427 -7.21323999 83.63269104 -5.00146396 91.2265625 -0.1328125 C92.42118763 0.56684856 93.61932019 1.26054447 94.8203125 1.94921875 C108.61719391 9.90841405 122.77576555 19.39604044 132.76171875 32.01171875 C137.68172551 37.71144133 142.83495114 38.60040921 149.9140625 40.0546875 C171.83901843 44.95453262 199.43744888 56.61233462 212.2265625 75.8671875 C214.37718923 79.62904429 216.31773327 83.47792865 218.2265625 87.3671875 C219.01365601 88.96167725 219.01365601 88.96167725 219.81665039 90.58837891 C224.9556743 101.14131775 229.17877167 111.58630763 232.05419922 122.97387695 C234.04854242 130.80035669 235.81699436 136.51252745 242.2265625 141.8671875 C257.0410495 154.49036496 277.58764214 178.42537747 279.40356445 198.85888672 C279.72591311 211.02594309 279.11971456 222.86320541 277.4765625 234.9296875 C277.31969971 236.10450684 277.16283691 237.27932617 277.0012207 238.48974609 C275.93587491 245.76271106 274.27114526 252.61156361 272.02246094 259.61108398 C270.80138526 264.60663195 270.78806742 269.2467127 272.25 274.1796875 C272.57484375 275.33017578 272.57484375 275.33017578 272.90625 276.50390625 C273.36070768 278.04855174 273.81638531 279.59283897 274.2734375 281.13671875 C277.85346608 293.83529073 278.62057208 306.71349998 278.65209961 319.83032227 C278.66414472 322.19583468 278.71368523 324.55885007 278.76367188 326.92382812 C278.85964191 335.69667225 278.13497325 342.36952646 273.2265625 349.8671875 C272.27848602 351.53154456 271.3345558 353.1982695 270.39453125 354.8671875 C265.19848226 363.65837337 260.0567119 372.22621553 253.2265625 379.8671875 C252.45183594 380.74890625 251.67710937 381.630625 250.87890625 382.5390625 C243.43541092 390.91450765 243.43541092 390.91450765 240.2265625 393.8671875 C239.5665625 393.8671875 238.9065625 393.8671875 238.2265625 393.8671875 C237.9584375 394.4034375 237.6903125 394.9396875 237.4140625 395.4921875 C236.57532271 397.16966707 235.69610635 398.82719781 234.7890625 400.46875 C232.95406928 404.45986025 232.02994825 408.35637879 231.0390625 412.6171875 C227.53910837 426.59673401 221.38499108 438.99464542 214.5390625 451.6171875 C214.08772949 452.45113037 213.63639648 453.28507324 213.17138672 454.14428711 C208.71111318 462.16607352 204.17643729 467.41205293 196.2265625 472.1171875 C195.444021 472.58535889 194.66147949 473.05353027 193.85522461 473.53588867 C180.06391451 481.62466948 165.88455951 488.15293532 150.5234375 492.61328125 C149.82025391 492.81937012 149.11707031 493.02545898 148.39257812 493.23779297 C146.88433787 493.67605304 145.37224852 494.10119065 143.85742188 494.51611328 C138.71157301 496.03628457 135.78862463 497.6746719 132.2265625 501.8671875 C120.85897631 513.99121196 108.0560731 523.02326555 93.7890625 531.4921875 C92.78278809 532.09643555 91.77651367 532.70068359 90.73974609 533.32324219 C81.78213545 538.51524252 74.24651191 540.23859642 63.9765625 540.1171875 C63.11667725 540.10969482 62.25679199 540.10220215 61.37084961 540.09448242 C43.27027474 539.80097731 25.46774481 537.61424827 8.2265625 531.8671875 C3.45555992 531.34860026 -0.03274816 532.17535508 -4.5859375 533.6796875 C-23.06723703 539.67017769 -55.20092958 545.88037677 -73.5234375 537.3046875 C-74.95464828 536.51808951 -76.36945023 535.70140596 -77.7734375 534.8671875 C-78.753125 534.28582031 -79.7328125 533.70445312 -80.7421875 533.10546875 C-108.58410914 516.23459004 -108.58410914 516.23459004 -116.56640625 506.58203125 C-123.53253548 498.17897458 -129.02421825 494.86765492 -139.61425781 492.39746094 C-155.69715548 488.44765839 -170.18674594 481.42159105 -184.2734375 472.8671875 C-184.90781738 472.48852539 -185.54219727 472.10986328 -186.19580078 471.71972656 C-195.37886687 465.96432974 -200.9855379 458.73940001 -205.7734375 449.1171875 C-206.53817383 447.61079712 -206.53817383 447.61079712 -207.31835938 446.07397461 C-213.43698748 433.82225128 -218.91143534 421.43930941 -221.9609375 408.0546875 C-224.11408735 398.77097646 -227.56222674 394.74446702 -234.671875 388.7265625 C-244.91758326 379.66158642 -252.15918426 367.77572282 -259.0859375 356.1171875 C-259.49440918 355.43269531 -259.90288086 354.74820312 -260.32373047 354.04296875 C-273.31773584 331.78279021 -269.7813385 304.83545548 -263.7734375 280.51171875 C-263.13869647 278.19838524 -262.44441024 275.89994068 -261.671875 273.62890625 C-259.59740091 267.25215328 -260.64825547 261.87257028 -262.5859375 255.5546875 C-266.83557585 241.24807582 -268.09581381 227.0262866 -268.30114746 212.14901733 C-268.32407887 210.60378203 -268.35633079 209.05865285 -268.39855957 207.51382446 C-268.64576648 197.50425384 -267.54373996 190.35570906 -261.7734375 181.8671875 C-261.09669952 180.66078865 -260.43296748 179.44689431 -259.7890625 178.22265625 C-252.17770753 164.56599943 -242.83717205 148.92311499 -229.97827148 139.56005859 C-224.10478159 135.24138458 -222.89933878 130.40001898 -221.2109375 123.4921875 C-220.62654961 121.3243968 -220.03799773 119.15772437 -219.4453125 116.9921875 C-219.16236328 115.9403125 -218.87941406 114.8884375 -218.58789062 113.8046875 C-212.37460373 91.39513477 -200.76273457 68.35024654 -180.24169922 56.3918457 C-177.67202352 54.99593251 -175.08062292 53.66675787 -172.4609375 52.3671875 C-171.51814941 51.89796875 -170.57536133 51.42875 -169.60400391 50.9453125 C-157.11770945 44.89839924 -143.82233623 40.24808876 -130.1484375 37.765625 C-126.83531213 36.51230455 -125.14527046 34.46987391 -122.7734375 31.8671875 C-110.40903563 18.75719356 -96.42345215 8.72467656 -80.7734375 -0.1328125 C-79.71511719 -0.74382812 -78.65679688 -1.35484375 -77.56640625 -1.984375 C-56.36567651 -13.96122634 -22.30203842 -6.69522893 0 0 Z M-66.7734375 65.8671875 C-75.12375843 78.51574619 -78.01680049 91.94417866 -75.0703125 106.8671875 C-69.1569365 131.63976264 -51.71295057 161.59671792 -29.7421875 175.1171875 C-25.37405658 177.53646001 -21.81650163 178.9674924 -16.7734375 177.8671875 C-7.55777314 170.89102867 -3.97863191 157.8299387 -2.05102539 146.94046021 C-1.15578371 140.25400085 -1.33599884 133.44320944 -1.38232422 126.71118164 C-1.39839043 123.93781197 -1.38240932 121.16590344 -1.36328125 118.39257812 C-1.34103171 99.94636937 -3.79538393 81.99277423 -16.7734375 67.8671875 C-17.33417969 67.25230469 -17.89492188 66.63742187 -18.47265625 66.00390625 C-25.30417355 59.32057805 -36.98432208 52.88867376 -46.6640625 52.54296875 C-55.01223744 53.82611416 -61.6795234 59.42585096 -66.7734375 65.8671875 Z M25.17578125 70.07421875 C22.8410521 73.41957215 20.81829859 76.82439247 18.9140625 80.4296875 C18.42558838 81.31986572 18.42558838 81.31986572 17.92724609 82.22802734 C11.9471263 94.28467031 11.73251141 108.31351526 11.83544922 121.4855957 C11.85157588 123.93171708 11.83547227 126.37619277 11.81640625 128.82226562 C11.79364883 146.22818736 13.90207836 163.59906537 26.2265625 176.8671875 C28.95732423 179.14199296 28.95732423 179.14199296 31.58984375 178.6484375 C52.40251789 172.48171923 64.73522307 151.70237264 74.640625 133.859375 C77.33596215 128.79935544 79.63985246 123.61747073 81.7890625 118.3046875 C82.11156982 117.50844971 82.43407715 116.71221191 82.76635742 115.8918457 C88.02375255 102.2408406 89.04493467 89.14655872 83.1953125 75.453125 C78.82467508 67.0957575 72.48614602 57.15764664 63.2265625 53.8671875 C49.1912536 51.49231054 33.98012206 59.41257278 25.17578125 70.07421875 Z M-150.7734375 111.8671875 C-157.91617984 121.87959465 -158.74881677 132.97133735 -156.7734375 144.8671875 C-152.27304236 163.13781343 -137.30585042 176.38667294 -121.7734375 185.8671875 C-94.01194031 202.3531178 -94.01194031 202.3531178 -62.7734375 204.1171875 C-59.5530486 202.77535879 -58.42414928 201.89349243 -56.7734375 198.8671875 C-52.07220047 184.76347642 -60.50111051 166.51725874 -66.7734375 153.8671875 C-72.50376432 143.25364515 -79.22268878 133.26592061 -86.7734375 123.8671875 C-87.35480469 123.12082031 -87.93617188 122.37445313 -88.53515625 121.60546875 C-96.171817 112.25990489 -106.77660193 105.73569028 -118.7734375 103.8671875 C-129.9224405 103.12956366 -142.58702382 102.9584432 -150.7734375 111.8671875 Z M94.2265625 126.8671875 C90.84540424 131.33904197 88.00540805 136.01239951 85.2265625 140.8671875 C84.70884277 141.7555127 84.19112305 142.64383789 83.65771484 143.55908203 C76.48054269 155.9537678 70.29419048 167.81810403 67.2265625 181.8671875 C67.030625 182.76179688 66.8346875 183.65640625 66.6328125 184.578125 C65.52970969 190.79368505 65.64108231 195.55078584 69.2265625 200.8671875 C74.90768848 205.20278364 81.32824956 205.39716199 88.2265625 204.8671875 C91.67606309 204.12081844 94.9610621 203.03448744 98.2890625 201.8671875 C99.20083252 201.55467041 100.11260254 201.24215332 101.05200195 200.92016602 C109.50454596 197.93313232 117.38500385 194.18895562 125.2265625 189.8671875 C126.5878125 189.13048828 126.5878125 189.13048828 127.9765625 188.37890625 C144.33410961 179.07292993 161.63632221 165.47526006 167.2265625 146.8671875 C169.76166125 136.26586544 168.44861678 124.54330273 163.3515625 114.8671875 C158.48835316 108.00148019 152.27571558 105.65588819 144.2265625 103.8671875 C123.36324527 101.66176285 107.29933581 111.38026211 94.2265625 126.8671875 Z M-196.7734375 195.8671875 C-197.7221875 196.5478125 -198.6709375 197.2284375 -199.6484375 197.9296875 C-203.69803672 201.62196914 -206.43600499 205.83029488 -207.046875 211.328125 C-207.44965831 222.88490768 -203.78142241 232.77372173 -196.1875 241.51953125 C-183.33500371 254.01847991 -168.14211013 258.96777871 -150.43359375 259.10546875 C-149.43444443 259.1135405 -148.4352951 259.12161224 -147.40586853 259.12992859 C-145.29199943 259.14372845 -143.17810843 259.15446883 -141.06420898 259.16235352 C-138.92807363 259.17382335 -136.79196578 259.1941949 -134.65600586 259.22387695 C-116.71325639 259.4727921 -98.92783635 258.79150656 -84.5859375 246.3671875 C-82.29564397 243.20816194 -82.46031172 241.71009485 -82.7734375 237.8671875 C-91.21550122 214.428884 -118.47772733 200.9470579 -139.45703125 190.90625 C-144.4105131 188.68428344 -149.47517996 187.06408303 -154.7734375 185.8671875 C-155.5778125 185.68027344 -156.3821875 185.49335937 -157.2109375 185.30078125 C-172.25118929 182.7558606 -185.00380234 186.49996851 -196.7734375 195.8671875 Z M111.2265625 214.8671875 C110.30875 215.60839844 109.3909375 216.34960938 108.4453125 217.11328125 C102.00492803 222.55463017 95.66704357 228.90883398 93.625 237.35546875 C93.364658 241.43187642 94.03992768 243.54368714 96.1015625 247.1171875 C105.37270458 256.54502494 120.90448837 258.89306163 133.47019958 259.08308411 C134.81719688 259.09416451 134.81719688 259.09416451 136.19140625 259.10546875 C137.61786217 259.11757637 137.61786217 259.11757637 139.07313538 259.12992859 C141.08267427 259.14371079 143.09223599 259.15445895 145.10180664 259.16235352 C147.12726864 259.1738187 149.15270174 259.19418274 151.17797852 259.22387695 C171.79776637 259.52544914 190.19746567 257.40925307 205.86328125 242.54296875 C212.92595018 234.54639319 218.27306337 224.76389158 218.2265625 213.8671875 C217.11807427 206.18085705 212.81269397 199.90208287 206.96484375 194.953125 C175.90042271 172.03275155 137.0495857 193.42728271 111.2265625 214.8671875 Z M4.2265625 205.8671875 C2.39927201 207.80249516 0.75760872 209.85766373 -0.921875 211.921875 C-3.54246094 214.67514884 -5.48717275 215.74897937 -9.28125 216.09765625 C-10.14492188 216.08347656 -11.00859375 216.06929687 -11.8984375 216.0546875 C-12.76726562 216.04824219 -13.63609375 216.04179688 -14.53125 216.03515625 C-16.7734375 215.8671875 -16.7734375 215.8671875 -18.7734375 214.8671875 C-21.7734375 214.53385417 -21.7734375 214.53385417 -24.7734375 214.8671875 C-26.69154626 217.74435063 -27.28072421 219.51961487 -28.0859375 222.8046875 C-29.0260538 225.95980951 -29.66285199 227.73241141 -31.7734375 230.3046875 C-36.22409903 232.62274038 -40.9017831 233.74099069 -45.7734375 234.8671875 C-46.61078326 238.28053447 -46.8195494 239.71444184 -45.7734375 243.1796875 C-44.33722366 248.47572603 -44.7117217 252.53141273 -47.0234375 257.6171875 C-49.00062666 260.15928785 -51.25400655 261.87816306 -53.7734375 263.8671875 C-54.1034375 264.8571875 -54.4334375 265.8471875 -54.7734375 266.8671875 C-54.0309375 267.5890625 -53.2884375 268.3109375 -52.5234375 269.0546875 C-51.6159375 269.9828125 -50.7084375 270.9109375 -49.7734375 271.8671875 C-49.0309375 272.6096875 -48.2884375 273.3521875 -47.5234375 274.1171875 C-44.54918702 278.79100969 -44.20660619 283.29133381 -45.390625 288.671875 C-46.11380552 291.10313902 -46.89438941 293.48829465 -47.7734375 295.8671875 C-44.88651486 297.79180259 -43.73123988 298.16570215 -40.4609375 298.6796875 C-35.61170896 299.68270383 -33.22443373 301.33202063 -29.7734375 304.8671875 C-28.1137479 307.71067003 -27.31024169 310.40271003 -26.6484375 313.6171875 C-26.39707031 314.81601562 -26.39707031 314.81601562 -26.140625 316.0390625 C-26.01945312 316.64234375 -25.89828125 317.245625 -25.7734375 317.8671875 C-22.66302978 318.85278099 -22.66302978 318.85278099 -19.5859375 317.9296875 C-15.06520355 316.22185468 -10.42429301 315.93780389 -5.8125 317.5546875 C-1.43214988 319.85006748 1.28300902 322.94244953 4.2265625 326.8671875 C7.02614152 325.76735289 8.23630523 324.85452195 10.1015625 322.4296875 C13.03357033 318.894031 15.80689583 317.14078938 20.4375 316.6171875 C24.88618341 316.49895007 28.14337197 317.00058611 32.2265625 318.8671875 C33.5465625 318.8671875 34.8665625 318.8671875 36.2265625 318.8671875 C36.39671875 318.05894531 36.566875 317.25070312 36.7421875 316.41796875 C39.26920074 305.27491568 39.26920074 305.27491568 43.2265625 301.8671875 C46.78122434 300.05632204 50.25438939 298.83885545 54.1015625 297.8671875 C55.6484375 297.3721875 55.6484375 297.3721875 57.2265625 296.8671875 C58.38718118 293.38533145 58.04154146 292.95822625 56.6640625 289.7421875 C54.85425618 284.64484309 55.23495615 280.86077611 57.2265625 275.8671875 C59.4532989 272.45285835 61.8636502 270.1491637 65.2265625 267.8671875 C64.65665598 264.27361031 63.36273773 262.69469479 60.7265625 260.2421875 C56.28900286 256.07742866 56.28900286 256.07742866 56.09375 252.29296875 C56.107754 246.71237553 56.22742501 241.36244368 57.2265625 235.8671875 C54.85379435 234.87215569 52.50740371 233.94714229 50.03125 233.2421875 C46.42481449 232.19477389 43.74938327 231.30745762 40.8515625 228.8671875 C38.45095351 224.43529399 37.35708261 219.75754343 36.2265625 214.8671875 C33.34718811 213.98737866 32.43779125 213.7951777 29.4765625 214.8046875 C24.97720597 216.27563098 20.8171817 216.80923084 16.3359375 215.1796875 C11.8886789 212.85937866 9.31687584 209.75215285 6.2265625 205.8671875 C5.5665625 205.8671875 4.9065625 205.8671875 4.2265625 205.8671875 Z M-196.4609375 291.4296875 C-203.65605201 299.86185679 -207.83884271 308.71409753 -207.21875 319.9296875 C-205.979941 328.10148017 -201.22619341 333.88593833 -194.7734375 338.8671875 C-181.13624241 347.04307949 -168.27275861 350.1138681 -152.5234375 346.3671875 C-144.04457151 344.01604197 -136.44432307 340.10545507 -128.7734375 335.8671875 C-127.60361328 335.22571777 -127.60361328 335.22571777 -126.41015625 334.57128906 C-116.33050369 329.00497375 -106.64878915 323.24909055 -97.7734375 315.8671875 C-97.1134375 315.33222656 -96.4534375 314.79726563 -95.7734375 314.24609375 C-89.44274889 308.57956221 -84.74586827 300.15330197 -81.796875 292.25 C-81.57065658 289.72038445 -81.57065658 289.72038445 -83.2421875 287.3125 C-86.33183089 284.32775191 -89.42529427 282.58858767 -93.2734375 280.7421875 C-94.33594727 280.22289673 -94.33594727 280.22289673 -95.41992188 279.69311523 C-108.35834234 273.56953233 -121.48392702 272.66503698 -135.59716797 272.62695312 C-137.74096798 272.6173332 -139.88377113 272.58627595 -142.02734375 272.5546875 C-162.1432472 272.40019769 -181.97178645 276.50586192 -196.4609375 291.4296875 Z M95.2265625 285.8671875 C93.29153609 288.41790414 93.2265625 289.75626375 93.2265625 292.9921875 C95.78039297 306.99318748 109.33300793 317.22352556 120.2265625 324.8671875 C139.17408106 337.49259461 162.52960959 351.47625651 186 347.17578125 C197.90408464 344.49241643 207.28289 338.97379407 214.546875 329.06640625 C218.43766905 322.49558972 218.22531879 315.25225948 216.56640625 307.96875 C212.89074042 296.60760106 204.54033207 287.01697717 194.18359375 281.140625 C168.12022731 268.49817963 118.65466621 265.59520139 95.2265625 285.8671875 Z M-146.7734375 366.8671875 C-154.34656769 377.20991959 -156.97406472 387.49776485 -157.1484375 400.1171875 C-157.16253662 400.86178223 -157.17663574 401.60637695 -157.19116211 402.37353516 C-157.12556632 409.84481206 -155.09695961 416.39156476 -149.7734375 421.8671875 C-141.06047818 428.92053552 -130.62911078 429.91849862 -119.7734375 428.8671875 C-98.73964716 424.63171436 -86.09461791 409.63826236 -74.61328125 392.67578125 C-64.25418614 376.40860878 -54.75287251 356.65044736 -55.7734375 336.8671875 C-56.8890415 333.44343729 -57.93721873 331.13616251 -60.7734375 328.8671875 C-87.35718852 320.00593716 -129.60799996 347.64060924 -146.7734375 366.8671875 Z M68.2265625 331.8671875 C63.66139377 342.98238093 68.2040675 357.27333397 72.42431641 367.94775391 C79.22806721 384.22623499 89.00516582 398.33842624 100.2265625 411.8671875 C100.88269531 412.66511719 101.53882813 413.46304688 102.21484375 414.28515625 C110.46300068 423.41641349 122.68607221 428.27199846 134.7578125 429.11328125 C144.26447609 429.42700115 150.9366142 428.04115648 159.0390625 423.1796875 C165.95015486 415.87367558 168.09995857 407.33143521 168.29296875 397.4765625 C167.80969518 384.17921712 163.07902908 374.60651321 154.2265625 364.8671875 C153.57042969 364.12984375 152.91429687 363.3925 152.23828125 362.6328125 C134.79001663 344.10019246 108.16871141 329.94540865 82.6796875 327.53125 C81.09414063 327.51191406 81.09414063 327.51191406 79.4765625 327.4921875 C78.40921875 327.46382812 77.341875 327.43546875 76.2421875 327.40625 C72.39154984 327.99481897 70.86768291 329.01366929 68.2265625 331.8671875 Z M-50.58203125 376.63671875 C-63.01395683 394.96328285 -79.30313669 419.65650566 -76.40625 442.80078125 C-73.82767161 455.29574444 -68.64504632 468.46788796 -57.6796875 475.78515625 C-51.85155155 479.09333997 -46.57830669 479.77752153 -40.046875 478.21484375 C-27.28089716 474.37185559 -16.99249669 467.53794265 -10.0546875 456.01171875 C-4.14240502 444.810262 -1.63563652 433.42547586 -1.5703125 420.83984375 C-1.56461243 419.9738707 -1.55891235 419.10789764 -1.55303955 418.21568298 C-1.54362048 416.38427946 -1.53706791 414.55285922 -1.53320312 412.72143555 C-1.52357702 409.96957235 -1.49255755 407.21848263 -1.4609375 404.46679688 C-1.37622786 390.77593926 -1.99381034 377.47522884 -8.7109375 365.1796875 C-9.04544922 364.51775391 -9.37996094 363.85582031 -9.72460938 363.17382812 C-11.62433943 359.53176375 -13.42537549 356.30270222 -16.7734375 353.8671875 C-29.73464012 351.92300711 -43.40187284 367.28075476 -50.58203125 376.63671875 Z M24.2265625 356.8671875 C12.82263909 371.37696115 12.03130944 389.94506646 11.98632812 407.62084961 C11.9766855 409.90060826 11.9456099 412.17943854 11.9140625 414.45898438 C11.77275723 434.19435356 15.2233596 451.67217722 28.87890625 466.68359375 C36.03255682 473.38248902 46.83401037 478.78633146 56.7265625 478.89453125 C64.98755079 478.41509889 69.86953737 474.73574449 75.4921875 468.9140625 C78.63613519 465.20363775 81.00819581 461.18291905 83.2265625 456.8671875 C83.56945312 456.20460938 83.91234375 455.54203125 84.265625 454.859375 C89.32732353 442.7964486 86.81059108 426.58312423 82.2265625 414.8671875 C77.35285576 403.17851313 71.78610183 392.0542172 64.2265625 381.8671875 C63.06060547 380.27777344 63.06060547 380.27777344 61.87109375 378.65625 C59.68687341 375.70263352 57.47170721 372.77490312 55.2265625 369.8671875 C54.62328125 369.02414062 54.02 368.18109375 53.3984375 367.3125 C50.67549535 364.24674139 47.6994128 362.31207571 44.2265625 360.1796875 C43.30230469 359.59477539 43.30230469 359.59477539 42.359375 358.99804688 C33.51410729 353.22775781 33.51410729 353.22775781 24.2265625 356.8671875 Z"/>
<path transform="translate(236,1051)" fill="#FFFFFF" d="M0 0 C19.14 0 38.28 0 58 0 C63.73278357 12.61212385 63.73278357 12.61212385 66.13671875 19.171875 C66.41364059 19.91636902 66.69056244 20.66086304 66.97587585 21.42791748 C67.57194371 23.03101441 68.16635138 24.63472946 68.75921631 26.23901367 C70.38885532 30.64715023 72.03246026 35.0500743 73.67578125 39.453125 C74.02217651 40.38181396 74.36857178 41.31050293 74.72546387 42.26733398 C78.87422661 53.3707768 83.12505804 64.43498561 87.375 75.5 C93.3164949 90.97569197 99.22930718 106.45962547 105 122 C109.34478262 113.00663048 112.84825283 103.72980877 116.3586731 94.39041138 C118.11170277 89.72824625 119.8771729 85.07081178 121.64453125 80.4140625 C122.18535591 78.98898125 122.18535591 78.98898125 122.73710632 77.53511047 C127.00038546 66.3297915 131.41818558 55.18593777 135.86279297 44.05151367 C138.89413302 36.44518179 141.86869516 28.81835059 144.74609375 21.15234375 C145.16907494 20.04555016 145.16907494 20.04555016 145.6006012 18.91639709 C147.93592372 12.62757135 149.34220255 6.63118979 151 0 C169.48 0 187.96 0 207 0 C207 2.97 207 5.94 207 9 C205.73542969 9.25394531 204.47085938 9.50789063 203.16796875 9.76953125 C201.50768863 10.11659546 199.84753901 10.46428434 198.1875 10.8125 C197.35412109 10.97814453 196.52074219 11.14378906 195.66210938 11.31445312 C194.85966797 11.48525391 194.05722656 11.65605469 193.23046875 11.83203125 C192.49207764 11.98389893 191.75368652 12.1357666 190.99291992 12.29223633 C188.63622125 13.12919204 187.55983611 14.05995934 186 16 C184.99123174 19.02630477 184.86955259 21.05935371 184.85955811 24.22445679 C184.85384796 25.30678085 184.84813782 26.38910492 184.84225464 27.50422668 C184.84113678 28.6918309 184.84001892 29.87943512 184.83886719 31.10302734 C184.83390228 32.35364456 184.82893738 33.60426178 184.82382202 34.89277649 C184.81171208 38.3246589 184.80425503 41.75648037 184.79981136 45.1883769 C184.79687939 47.33272661 184.79277437 49.47707098 184.78830719 51.621418 C184.77463533 58.3313912 184.7649669 65.0413522 184.7611053 71.75133836 C184.75662381 79.49572448 184.73907053 87.23993417 184.7101047 94.98426664 C184.68848804 100.97162054 184.67840105 106.9589248 184.67706418 112.94631732 C184.67601622 116.52187103 184.67011047 120.09725883 184.65224457 123.67277145 C184.63270227 127.6613001 184.63705282 131.64960818 184.64355469 135.63818359 C184.62973251 137.41351723 184.62973251 137.41351723 184.6156311 139.22471619 C184.62120026 140.3126799 184.62676941 141.40064362 184.63250732 142.52157593 C184.63104076 143.46436087 184.6295742 144.40714581 184.6280632 145.37849998 C185.07948128 148.56020318 186.1069424 150.42017886 188 153 C193.89812878 156.38828675 200.33330576 157.06950901 207 158 C207 161.3 207 164.6 207 168 C182.25 168 157.5 168 132 168 C132 164.7 132 161.4 132 158 C133.08539063 157.89042969 134.17078125 157.78085938 135.2890625 157.66796875 C136.73444152 157.50841392 138.17975051 157.34822389 139.625 157.1875 C140.33785156 157.11724609 141.05070313 157.04699219 141.78515625 156.97460938 C146.39239984 156.44625575 150.03830925 155.58497417 154 153 C156.53821196 149.48096896 157.37399008 147.04542888 157.36076355 142.72917175 C157.36488754 141.68735748 157.36901154 140.64554321 157.3732605 139.57215881 C157.36247467 138.43999435 157.35168884 137.3078299 157.34057617 136.14135742 C157.34101425 134.94093811 157.34145233 133.7405188 157.34190369 132.50372314 C157.34017435 129.22091187 157.32515063 125.93848647 157.30418181 122.65575194 C157.28540141 119.22179711 157.28366351 115.78783433 157.28010559 112.35383606 C157.2707891 105.85509972 157.24618079 99.35651517 157.21605712 92.8578456 C157.18250069 85.45765007 157.166024 78.0574472 157.15097082 70.6571945 C157.1196308 55.43804183 157.06687813 40.2190405 157 25 C151.6165734 38.38055386 146.234544 51.76166904 140.85404682 65.14340115 C138.35408993 71.36090856 135.85369563 77.57823927 133.35229492 83.79516602 C122.47611842 110.82740383 111.606253 137.86046458 101 165 C98.36 165 95.72 165 93 165 C92.70757919 164.21185913 92.41515839 163.42371826 92.11387634 162.61169434 C73.52536412 112.48413861 73.52536412 112.48413861 54.78620911 62.41278076 C51.71365833 54.24350732 48.65023941 46.07080768 45.5859375 37.8984375 C45.30990314 37.16226826 45.03386879 36.42609901 44.74946976 35.66762161 C43.16622077 31.44511572 41.58307082 27.2225727 40 23 C39.92968126 37.26531715 39.8771004 51.53060712 39.84456348 65.79606247 C39.82894322 72.42090641 39.8077714 79.04563347 39.77368164 85.67041016 C39.74095851 92.07004182 39.72311964 98.46956142 39.71536827 104.86927032 C39.70984799 107.3043621 39.6990685 109.73944812 39.68280983 112.17449188 C39.66086362 115.59920757 39.65804027 119.0234669 39.65942383 122.44824219 C39.648638 123.44303085 39.63785217 124.43781952 39.6267395 125.4627533 C39.66574484 134.4524115 40.86441669 143.42263661 46 151 C52.04558921 155.13307797 59.97256751 156.43042117 67 158 C67 161.3 67 164.6 67 168 C44.56 168 22.12 168 -1 168 C-1 164.7 -1 161.4 -1 158 C0.01320312 157.82984375 1.02640625 157.6596875 2.0703125 157.484375 C3.42200801 157.24031887 4.77356338 156.99548568 6.125 156.75 C6.79015625 156.64042969 7.4553125 156.53085938 8.140625 156.41796875 C13.65695204 155.39041763 17.71996218 153.28003782 21.75 149.25 C25.4479852 142.59362664 25.29713347 135.24577009 25.29052734 127.84570312 C25.29724457 126.75523178 25.30396179 125.66476044 25.31088257 124.54124451 C25.32980323 120.95453271 25.33378334 117.36800852 25.3359375 113.78125 C25.3423679 111.27836023 25.34909644 108.77547121 25.35610962 106.27258301 C25.36806635 101.034086 25.37187787 95.79563628 25.37060547 90.55712891 C25.36940324 84.51760026 25.39053244 78.47842847 25.4220928 72.43899012 C25.45147156 66.60732758 25.45857967 60.7758056 25.45738602 54.94407654 C25.45974255 52.47218872 25.46856898 50.0002981 25.48405075 47.52845764 C25.50368941 44.07010369 25.49788084 40.61266621 25.48583984 37.15429688 C25.50269836 35.63134254 25.50269836 35.63134254 25.51989746 34.07762146 C25.45169427 26.35211537 23.66341116 21.16729976 18.6875 15.25 C13.59632387 11.32859802 6.16516143 10.40402531 0 9 C0 6.03 0 3.06 0 0 Z"/>
<path transform="translate(1162,1051)" fill="#FFFFFF" d="M0 0 C11.45814072 -0.09320201 22.91618938 -0.16401756 34.37463379 -0.20724869 C39.69683341 -0.22801076 45.01877128 -0.25611734 50.34082031 -0.30175781 C55.48910041 -0.3456254 60.63713074 -0.36922237 65.7855835 -0.37950897 C67.73732426 -0.38682765 69.68905334 -0.40111626 71.64068604 -0.42292023 C88.93643948 -0.60824255 104.62576813 1.12553178 119.25 11.25 C127.63027952 19.63027952 131.06285338 28.55343021 131.4375 40.3125 C131.18436319 51.20838878 128.60921358 60.98188008 121 69 C120.17242188 69.88751953 120.17242188 69.88751953 119.328125 70.79296875 C111.75402943 78.12430485 101.5750622 81.95041955 92 86 C92.38631592 86.51159668 92.77263184 87.02319336 93.1706543 87.55029297 C100.01192847 96.6187943 106.8240767 105.70107969 113.4375 114.9375 C118.32849719 121.73801702 123.28355054 128.48827729 128.3125 135.1875 C128.95823975 136.06075928 129.60397949 136.93401855 130.26928711 137.83374023 C138.97191099 149.34474063 147.28719605 155.64024102 161.65625 157.703125 C162.81640625 157.85007812 162.81640625 157.85007812 164 158 C164 161.3 164 164.6 164 168 C157.57735232 168.24789033 151.15750657 168.42896459 144.73120117 168.54931641 C142.54743946 168.5994955 140.36401193 168.66765942 138.18139648 168.75439453 C120.18019396 169.45163865 120.18019396 169.45163865 115.27636719 166.18652344 C113.41777675 163.55165427 112.25197934 160.96867031 111 158 C109.64899881 155.89247173 108.25836171 153.80999733 106.8359375 151.75 C105.73130492 150.07852622 104.6266802 148.40704718 103.52252197 146.73526001 C92.64293786 130.28336829 81.12862595 114.36943385 69.23583984 98.63720703 C68 97 68 97 66.85791016 94.84326172 C63.97836297 91.98641792 60.65693039 92.32386678 56.8125 92.25 C55.68811523 92.20552734 55.68811523 92.20552734 54.54101562 92.16015625 C52.69458693 92.0895921 50.84728739 92.04251524 49 92 C49.1076099 99.493266 49.22026518 106.98644179 49.33933926 114.47953415 C49.39447368 117.95898084 49.44787825 121.43843607 49.49731445 124.91796875 C49.55424124 128.91936197 49.61871887 132.92060269 49.68359375 136.921875 C49.70030624 138.16990906 49.71701874 139.41794312 49.73423767 140.70379639 C49.7641555 142.44514862 49.7641555 142.44514862 49.79467773 144.22167969 C49.81799416 145.75390167 49.81799416 145.75390167 49.84178162 147.31707764 C49.98195428 149.69399728 50.32393052 151.72566899 51 154 C58.00629124 155.8849413 64.76410027 157.39700836 72 158 C72 161.3 72 164.6 72 168 C48.24 168 24.48 168 0 168 C0 164.7 0 161.4 0 158 C1.19238281 157.79503906 2.38476562 157.59007812 3.61328125 157.37890625 C5.17970853 157.10689193 6.74611364 156.83474985 8.3125 156.5625 C9.09818359 156.42779297 9.88386719 156.29308594 10.69335938 156.15429688 C11.45068359 156.02216797 12.20800781 155.89003906 12.98828125 155.75390625 C14.03302612 155.57323608 14.03302612 155.57323608 15.09887695 155.38891602 C17.2095331 154.99664201 17.2095331 154.99664201 20 154 C22.3617691 147.3436102 22.28409981 140.82056752 22.25878906 133.82006836 C22.2622937 132.62070145 22.26579834 131.42133453 22.26940918 130.18562317 C22.27667174 126.91708068 22.27501415 123.64870184 22.26865101 120.380162 C22.26356096 116.94814527 22.26829066 113.51613889 22.27142334 110.0841217 C22.27505378 104.32355813 22.27028766 98.56304598 22.26074219 92.80249023 C22.24985422 86.15524902 22.25338938 79.50813049 22.264395 72.86089224 C22.27348805 67.13836526 22.27474346 61.41587509 22.26951766 55.69334322 C22.2664097 52.28216929 22.26595628 48.87105291 22.27259064 45.45988274 C22.27767509 41.65668338 22.2699185 37.85371899 22.25878906 34.05053711 C22.26283752 32.92878082 22.26688599 31.80702454 22.27105713 30.65127563 C22.24087802 25.0784074 22.09269869 20.20540339 20 15 C15.87048313 12.16020028 11.4970847 11.27772433 6.625 10.3125 C5.37976562 10.06113281 4.13453125 9.80976562 2.8515625 9.55078125 C1.91054687 9.36902344 0.96953125 9.18726563 0 9 C0 6.03 0 3.06 0 0 Z M49 10 C49 33.43 49 56.86 49 81 C72.4301116 81.31904438 72.4301116 81.31904438 90.9765625 70.18359375 C99.01786659 61.71456072 101.33085169 51.5290535 101.21875 40.13671875 C100.56823302 30.80876996 97.04732238 23.69746036 90.25 17.3125 C78.52762525 7.47873007 63.73205377 10 49 10 Z"/>
<path transform="translate(621,1051)" fill="#FFFFFF" d="M0 0 C6.73953183 -0.42364086 13.47118047 -0.73011295 20.22094727 -0.93383789 C22.5100812 -1.01879976 24.79830677 -1.13443538 27.08422852 -1.2824707 C45.48954151 -2.44360047 45.48954151 -2.44360047 51.25888062 1.5723877 C55.24922597 5.51790047 58.11171099 10.06793314 60.83444214 14.94692993 C62.29572722 17.52090825 64.01814188 19.81924904 65.83984375 22.1484375 C66.87401896 23.55610064 67.90660863 24.9649302 68.9375 26.375 C70.11323723 27.97659481 71.28901982 29.57815633 72.46484375 31.1796875 C73.34052002 32.37416504 73.34052002 32.37416504 74.23388672 33.59277344 C77.14940731 37.56665138 80.07517969 41.53296477 83 45.5 C84.16671664 47.08329651 85.33338329 48.66662986 86.5 50.25 C87.0775 51.03375 87.655 51.8175 88.25 52.625 C94.66666667 61.33333333 101.08333333 70.04166667 107.5 78.75 C108.0779834 79.53439453 108.6559668 80.31878906 109.25146484 81.12695312 C110.41329315 82.70374329 111.5750773 84.28056599 112.73681641 85.85742188 C115.72714107 89.91613927 118.7183273 93.97421743 121.7109375 98.03125 C122.32453125 98.86333984 122.938125 99.69542969 123.5703125 100.55273438 C124.72366622 102.11675192 125.87728575 103.6805735 127.03125 105.24414062 C130.10554605 109.41374746 133.16357836 113.59474647 136.20947266 117.78515625 C137.27785873 119.25480835 137.27785873 119.25480835 138.36782837 120.75415039 C138.90644501 121.49528076 139.44506165 122.23641113 140 123 C140.0930421 111.22927738 140.16393782 99.45864353 140.20724869 87.68762684 C140.22804501 82.22073609 140.25621613 76.75409857 140.30175781 71.28735352 C140.34550074 66.00292693 140.3691968 60.71874258 140.37950897 55.43414879 C140.38684958 53.426899 140.40118284 51.41966114 140.42292023 49.41251564 C140.81703501 33.24049034 140.81703501 33.24049034 136 18 C129.74784632 12.3908117 120.00749867 10.84788431 112 9 C112 6.03 112 3.06 112 0 C134.77 0 157.54 0 181 0 C181 2.97 181 5.94 181 9 C179.75863281 9.30292969 178.51726562 9.60585937 177.23828125 9.91796875 C175.59612062 10.34023863 173.9542061 10.76346643 172.3125 11.1875 C171.49587891 11.38408203 170.67925781 11.58066406 169.83789062 11.78320312 C164.60748867 13.15962469 161.48765569 14.63189894 158 19 C154.22016282 27.50463366 154.83687288 37.28019889 154.79467773 46.39257812 C154.78508283 47.73364553 154.77507185 49.07471002 154.76467896 50.41577148 C154.73779829 54.03499822 154.71669832 57.65423777 154.69667697 61.27350807 C154.67471271 65.0638318 154.64737541 68.85411679 154.62062073 72.64440918 C154.57083429 79.81231328 154.52584373 86.98023903 154.48259836 94.14818525 C154.43310542 102.31269083 154.37823225 110.47715751 154.32291877 118.6416254 C154.20931458 135.42771436 154.10242914 152.21383906 154 169 C152.08359698 169.10047511 150.16567052 169.17217123 148.24755859 169.23168945 C147.17976166 169.27469681 146.11196472 169.31770416 145.0118103 169.36201477 C141.4052849 168.9285162 140.35834445 168.01429405 138.0390625 165.29296875 C136.86104134 163.61858564 135.72473969 161.91430782 134.625 160.1875 C133.34791884 158.33836029 132.07056875 156.48940628 130.79296875 154.640625 C129.84623291 153.22426758 129.84623291 153.22426758 128.88037109 151.77929688 C126.0304095 147.56688935 122.98143581 143.51061877 119.9375 139.4375 C118.77712968 137.86309548 117.61827542 136.28757246 116.4609375 134.7109375 C115.88956055 133.93331055 115.31818359 133.15568359 114.72949219 132.35449219 C113.5764974 130.78483073 112.4235026 129.21516927 111.27050781 127.64550781 C104.72141866 118.73239324 98.14592511 109.84122425 91.5 101 C84.26891297 91.38032164 77.12504253 81.69836274 70 72 C67.62609395 68.77002731 65.25082258 65.54106313 62.875 62.3125 C62.36187256 61.61374756 61.84874512 60.91499512 61.32006836 60.19506836 C57.49883646 55.00214252 53.63624715 49.84083639 49.76611328 44.68432617 C48.9329232 43.57382023 48.9329232 43.57382023 48.082901 42.44087982 C46.72206821 40.62715244 45.3610977 38.81352859 44 37 C43.95358552 49.62216092 43.91808449 62.24430142 43.89637566 74.86653042 C43.88595462 80.72802694 43.87182607 86.58946491 43.84912109 92.45092773 C43.82733287 98.11138036 43.81541874 103.7717768 43.81024551 109.43226814 C43.80656049 111.58793077 43.79936463 113.74359045 43.78853989 115.89922905 C43.77394557 118.92694534 43.77202538 121.95443172 43.77294922 124.98217773 C43.76575867 125.86619263 43.75856812 126.75020752 43.75115967 127.66101074 C43.77700722 135.5296015 44.42867839 144.90338236 50 151 C56.42032528 155.32190727 64.5528206 156.48063728 72 158 C72 161.3 72 164.6 72 168 C49.23 168 26.46 168 3 168 C3 164.7 3 161.4 3 158 C4.08539062 157.75765625 5.17078125 157.5153125 6.2890625 157.265625 C7.73452507 156.92772466 9.17982939 156.58914687 10.625 156.25 C11.33785156 156.09273437 12.05070313 155.93546875 12.78515625 155.7734375 C17.54577119 154.63787797 21.1056599 153.10724874 25 150 C29.19735264 142.32897622 29.15093215 134.3166135 29.16113281 125.80126953 C29.16609772 124.80033264 29.17106262 123.79939575 29.17617798 122.76812744 C29.19072475 119.47301535 29.19758824 116.17795136 29.203125 112.8828125 C29.20888155 110.58267212 29.21463921 108.28253174 29.22039795 105.98239136 C29.23088589 101.16583026 29.23674334 96.34928575 29.24023438 91.53271484 C29.2457218 85.37379516 29.26976469 79.21509624 29.29820633 73.0562458 C29.31686501 68.30690883 29.32203998 63.55762477 29.32357025 58.80825424 C29.32658876 56.53815374 29.33459009 54.26805399 29.34775543 51.99798965 C29.36488721 48.81766347 29.36291839 45.63787365 29.35644531 42.45751953 C29.3656601 41.52839752 29.37487488 40.59927551 29.3843689 39.64199829 C29.33874303 32.45439867 28.07552569 26.24135288 24.1640625 20.1328125 C17.82396908 13.88427277 8.41428264 11.22731011 0 9 C0 6.03 0 3.06 0 0 Z"/>
<path transform="translate(817,1051)" fill="#FFFFFF" d="M0 0 C10.82352094 -0.06989734 21.64698707 -0.12301127 32.47068882 -0.15543652 C37.49803779 -0.17100885 42.52523092 -0.19209065 47.55249023 -0.22631836 C52.41546572 -0.25921561 57.27829249 -0.2769162 62.14137077 -0.28463173 C63.98506952 -0.29012129 65.8287613 -0.30083879 67.67239571 -0.31719017 C93.65067316 -0.53816693 118.59733716 5.5748759 138 24 C156.12795299 42.80590895 160.46025475 65.1088119 160.21484375 90.47265625 C159.73608353 111.26750237 151.65254739 129.13363666 136.83886719 143.69775391 C115.11151382 164.05958011 86.80356263 168.18998964 58.1796875 168.09765625 C56.46762127 168.09578785 54.75555451 168.09436594 53.04348755 168.09336853 C48.5686695 168.0895766 44.09388465 168.07977524 39.61907959 168.06866455 C35.04032846 168.05837843 30.46157189 168.05385558 25.8828125 168.04882812 C16.92186053 168.03814953 7.96093304 168.02111373 -1 168 C-1 164.7 -1 161.4 -1 158 C0.02480469 157.89042969 1.04960938 157.78085938 2.10546875 157.66796875 C3.46621867 157.50843255 4.82689194 157.3482416 6.1875 157.1875 C6.86103516 157.11724609 7.53457031 157.04699219 8.22851562 156.97460938 C12.48519311 156.45550236 15.64797769 155.72696514 19 153 C20.74118647 149.45444917 21.25188929 146.58987216 21.26069641 142.66238403 C21.27132362 141.07697311 21.27132362 141.07697311 21.28216553 139.45953369 C21.27968811 138.31031433 21.27721069 137.16109497 21.2746582 135.97705078 C21.27976913 134.75861481 21.28488007 133.54017883 21.29014587 132.28482056 C21.30165353 128.94996013 21.30411711 125.6153485 21.30158257 122.28048563 C21.3005111 119.49234703 21.30540082 116.70423123 21.310188 113.91609752 C21.32127548 107.3354864 21.32172511 100.75493235 21.31567383 94.17431641 C21.30963624 87.39588203 21.32194119 80.61765535 21.3432439 73.83925641 C21.36088511 68.0106309 21.36685723 62.18207135 21.36360615 56.35342014 C21.36179688 52.87621275 21.3643935 49.39915347 21.37832069 45.92197037 C21.39328086 42.04181078 21.38390685 38.16191366 21.37231445 34.28173828 C21.37995819 33.13656738 21.38760193 31.99139648 21.39547729 30.81152344 C21.3556796 24.78267315 21.01766055 20.28201133 18 15 C15.85910112 13.40603412 15.85910112 13.40603412 13.3125 12.6875 C12.43464844 12.38714844 11.55679688 12.08679687 10.65234375 11.77734375 C7.1158321 10.74086979 3.59829806 9.79962179 0 9 C0 6.03 0 3.06 0 0 Z M54.74609375 10.51171875 C53.48337646 10.60283936 52.22065918 10.69395996 50.91967773 10.7878418 C49.47443726 10.89286011 49.47443726 10.89286011 48 11 C47.90649055 28.35049685 47.8359885 45.70091487 47.79275131 63.05160618 C47.77214045 71.10813898 47.74404823 79.16451506 47.69824219 87.22094727 C47.65832904 94.24428744 47.63255645 101.2675141 47.62364602 108.29096454 C47.61843879 112.00866466 47.60623117 115.72604006 47.57707977 119.44363594 C47.54477331 123.59741648 47.54404345 127.7506352 47.54589844 131.90454102 C47.53151733 133.13237305 47.51713623 134.36020508 47.50231934 135.62524414 C47.53461142 142.30322846 47.93052751 146.6047618 52 152 C53.8674034 153.57863177 53.8674034 153.57863177 55.9375 154.375 C56.58589844 154.67148438 57.23429688 154.96796875 57.90234375 155.2734375 C71.0420113 159.82460727 87.57020897 157.39974522 99.98046875 151.609375 C102.44194631 150.19430469 104.71855501 148.68776042 107 147 C107.63164063 146.54882812 108.26328125 146.09765625 108.9140625 145.6328125 C122.31317609 135.18504551 127.93872698 117.24308484 130 101 C130.23506599 96.14731202 130.23086512 91.29536725 130.25 86.4375 C130.270625 85.15552734 130.29125 83.87355469 130.3125 82.55273438 C130.38599462 64.35362798 125.60878982 47.84751622 115 33 C114.56300781 32.36578125 114.12601563 31.7315625 113.67578125 31.078125 C104.88341099 19.56619277 90.06932255 13.02515409 76.1875 10.6875 C68.88046078 9.76322058 62.06534659 9.98195233 54.74609375 10.51171875 Z"/>
<path transform="translate(1420,1051)" fill="#FFFFFF" d="M0 0 C6.81323359 -0.27307932 13.62324866 -0.47204355 20.44067383 -0.60424805 C22.75634267 -0.65937917 25.07163179 -0.73431054 27.38598633 -0.82983398 C47.68066238 -1.64616103 47.68066238 -1.64616103 52.40991211 2.26904297 C54.7215961 5.07381935 56.37853773 7.75623518 58 11 C58.83340925 12.1741517 59.68740006 13.3343974 60.57421875 14.46875 C61.27160156 15.4690625 61.96898437 16.469375 62.6875 17.5 C66.63950433 23.11446818 70.67053448 28.66494676 74.75 34.1875 C75.34256592 34.98994141 75.93513184 35.79238281 76.5456543 36.61914062 C77.75867825 38.26110709 78.97197755 39.90287017 80.18554688 41.54443359 C83.12794685 45.52649212 86.0637044 49.51343938 89 53.5 C90.16663334 55.08335789 91.33330004 56.6666912 92.5 58.25 C113.5 86.75 113.5 86.75 115.25268555 89.12866211 C116.41037815 90.6998048 117.56809271 92.27093131 118.72583008 93.84204102 C121.7799874 97.98675346 124.83367646 102.13180988 127.88671875 106.27734375 C128.52287109 107.14101562 129.15902344 108.0046875 129.81445312 108.89453125 C131.03334382 110.54937555 132.25210088 112.20431828 133.47070312 113.859375 C134.02048828 114.60574219 134.57027344 115.35210938 135.13671875 116.12109375 C135.61842529 116.7752124 136.10013184 117.42933105 136.59643555 118.10327148 C138.05574916 120.07533749 139.52723714 122.03796576 141 124 C141.04660296 113.30683977 141.08200997 102.61370421 141.10362434 91.92046261 C141.11400481 86.9536928 141.12805755 81.98699313 141.15087891 77.02026367 C141.17281399 72.2156513 141.1846116 67.41110585 141.18975449 62.60644722 C141.19341353 60.78509024 141.20055713 58.96373639 141.21146011 57.14240837 C142.27449665 35.93114297 142.27449665 35.93114297 135 17 C128.86559952 12.03858566 119.50408333 10.83693706 112 9 C112 6.03 112 3.06 112 0 C134.77 0 157.54 0 181 0 C181 2.97 181 5.94 181 9 C179.98679687 9.25394531 178.97359375 9.50789063 177.9296875 9.76953125 C176.57803342 10.11683126 175.22647599 10.46450759 173.875 10.8125 C173.20984375 10.97814453 172.5446875 11.14378906 171.859375 11.31445312 C164.11626604 13.28897454 164.11626604 13.28897454 158.25 18.375 C154.87700553 28.15668398 154.69950711 38.52720601 154.68115234 48.77661133 C154.67110672 50.08548813 154.6610611 51.39436493 154.65071106 52.74290466 C154.62371931 56.28746431 154.60835471 59.83198495 154.59528303 63.37661958 C154.57951549 67.09753469 154.55276974 70.81837163 154.5272522 74.53923035 C154.48070312 81.56529559 154.44384453 88.59137594 154.41057932 95.61751527 C154.37218788 103.62496819 154.32282309 111.63234213 154.27259517 119.63972819 C154.16963095 136.09309517 154.08025659 152.54650623 154 169 C152.07891098 169.09448499 150.15648148 169.16198321 148.23388672 169.21801758 C147.16355194 169.25848709 146.09321716 169.2989566 144.990448 169.34065247 C141.48554222 168.9413963 140.4939273 168.16419538 138.2578125 165.51171875 C137.17326969 163.93052712 136.13072975 162.31995452 135.125 160.6875 C133.94378016 158.93417326 132.76145681 157.18158955 131.578125 155.4296875 C130.98837891 154.52702148 130.39863281 153.62435547 129.79101562 152.69433594 C126.97176757 148.45316615 123.92180321 144.39158334 120.875 140.3125 C119.70499956 138.72579816 118.53572 137.13856448 117.3671875 135.55078125 C114.26564216 131.35139855 111.13818147 127.17204605 108 123 C100.66108784 113.24330499 93.43979989 103.40038207 86.20898438 93.56347656 C79.69706131 84.70654951 73.1678315 75.86480964 66.55615234 67.08203125 C61.8961777 60.88325363 57.30148651 54.6368977 52.71875 48.38085938 C52.161875 47.62224609 51.605 46.86363281 51.03125 46.08203125 C50.54205078 45.41405518 50.05285156 44.7460791 49.54882812 44.05786133 C47.74787537 41.66501284 45.87443991 39.3355508 44 37 C43.93027551 49.43994446 43.87707506 61.87984189 43.84456348 74.31994247 C43.82895409 80.09731737 43.80780257 85.87455789 43.77368164 91.65185547 C43.74091916 97.2345231 43.72311149 102.81706202 43.71536827 108.39981842 C43.70985497 110.52231113 43.69908935 112.64479736 43.68280983 114.7672348 C43.45438571 130.62790941 43.45438571 130.62790941 47 146 C47.31810135 146.90192078 47.6362027 147.80384155 47.96394348 148.73309326 C48.80686583 151.1785419 48.80686583 151.1785419 51.18359375 152.18359375 C52.57771484 152.58771484 52.57771484 152.58771484 54 153 C55.12535156 153.34160156 56.25070312 153.68320313 57.41015625 154.03515625 C58.61542969 154.37417969 59.82070312 154.71320313 61.0625 155.0625 C62.27035156 155.40410156 63.47820312 155.74570313 64.72265625 156.09765625 C67.13999857 156.76321772 69.56756893 157.39189223 72 158 C72 161.3 72 164.6 72 168 C49.23 168 26.46 168 3 168 C3 164.7 3 161.4 3 158 C4.08539062 157.75765625 5.17078125 157.5153125 6.2890625 157.265625 C7.73452507 156.92772466 9.17982939 156.58914687 10.625 156.25 C11.33785156 156.09273437 12.05070312 155.93546875 12.78515625 155.7734375 C17.54466474 154.6381419 21.11169739 153.11416091 25 150 C27.84779441 144.59901061 29.11354515 139.47409601 29.14717102 133.40388489 C29.15432632 132.51114868 29.16148163 131.61841248 29.16885376 130.69862366 C29.17154266 129.73178146 29.17423157 128.76493927 29.17700195 127.76879883 C29.18357315 126.74049957 29.19014435 125.71220032 29.19691467 124.65274048 C29.21660341 121.25416994 29.22830062 117.85564351 29.23828125 114.45703125 C29.24439454 112.7119053 29.24439454 112.7119053 29.25063133 110.93152428 C29.27147344 104.77328037 29.2857831 98.61505863 29.29516602 92.45678711 C29.30622504 86.10951833 29.34062493 79.76260061 29.38033772 73.41545582 C29.40653202 68.52281561 29.41486039 63.63025871 29.41844749 58.73755455 C29.4233063 56.39849159 29.4349 54.05943217 29.45348549 51.720438 C29.47793553 48.43940323 29.47690078 45.15927256 29.4699707 41.87817383 C29.48278076 40.92145279 29.49559082 39.96473175 29.50878906 38.97901917 C29.45424649 31.85597314 28.31490725 24.43437183 23.18127918 19.11573505 C16.57792951 13.66594361 8.16430687 11.12981918 0 9 C0 6.03 0 3.06 0 0 Z"/>
<path transform="translate(532,1048)" fill="#FFFFFF" d="M0 0 C3.63 0 7.26 0 11 0 C11.44577393 1.16716553 11.89154785 2.33433105 12.35083008 3.53686523 C21.76864768 28.18892256 31.22216117 52.8266521 40.78881836 77.42138672 C41.57932621 79.4540775 42.36977193 81.48679244 43.16015625 83.51953125 C43.55236862 84.52820251 43.94458099 85.53687378 44.34867859 86.57611084 C46.89260087 93.12644274 49.41559977 99.68451299 51.92573547 106.24786377 C53.65444461 110.76662886 55.38918648 115.28306755 57.1242981 119.79937744 C57.94930006 121.95183481 58.77136755 124.10541953 59.59030151 126.26019287 C60.72711999 129.25063915 61.87419683 132.23696603 63.0234375 135.22265625 C63.3528685 136.09750168 63.6822995 136.97234711 64.02171326 137.873703 C67.12492595 145.88034491 70.68275376 154.09039696 78.8828125 157.8671875 C82.87112321 159.45947885 86.7218555 160.46523194 91 161 C91 164.3 91 167.6 91 171 C67.57 171 44.14 171 20 171 C20 167.7 20 164.4 20 161 C21.18078125 160.80664062 22.3615625 160.61328125 23.578125 160.4140625 C25.13547331 160.15137724 26.69276191 159.88833782 28.25 159.625 C29.02730469 159.49867188 29.80460938 159.37234375 30.60546875 159.2421875 C31.35957031 159.11328125 32.11367188 158.984375 32.890625 158.8515625 C33.92751465 158.67874756 33.92751465 158.67874756 34.98535156 158.50244141 C37.19306262 157.95185132 39.00563724 157.08321271 41 156 C39.37139521 146.93959743 36.06362012 138.53917232 32.875 129.9375 C30.93625 124.678125 28.9975 119.41875 27 114 C7.86 113.67 -11.28 113.34 -31 113 C-31.99 116.3 -32.98 119.6 -34 123 C-34.59668161 124.82797642 -35.20229882 126.65311171 -35.82421875 128.47265625 C-36.13037109 129.39240234 -36.43652344 130.31214844 -36.75195312 131.25976562 C-37.37800685 133.13531281 -38.01350963 135.00773115 -38.65820312 136.87695312 C-40.50936501 142.50148551 -42.18603308 148.05541961 -41 154 C-36.09445473 159.75370029 -25.14385879 160.32605106 -18 161 C-18 164.3 -18 167.6 -18 171 C-39.12 171 -60.24 171 -82 171 C-82 167.7 -82 164.4 -82 161 C-81.20335937 160.82984375 -80.40671875 160.6596875 -79.5859375 160.484375 C-69.98845711 158.28933082 -63.7135435 155.11411759 -58 147 C-55.93243903 142.98285373 -54.28255424 138.8252581 -52.625 134.625 C-52.11165542 133.35152609 -51.59738283 132.07842594 -51.08227539 130.80566406 C-49.36570026 126.54591731 -47.68159445 122.27365136 -46 118 C-45.3979804 116.47427155 -44.79592916 114.94855558 -44.19384766 113.42285156 C-39.79865077 102.27080635 -35.45926416 91.09726201 -31.13061523 79.91925049 C-29.13527169 74.76727002 -27.1377581 69.61613071 -25.140625 64.46484375 C-22.67926595 58.1158675 -20.21815583 51.76679546 -17.75830078 45.41723633 C-11.88486906 30.25988383 -5.97002484 15.11959099 0 0 Z M-3 40 C-5.7962492 47.2396974 -8.58927915 54.48063081 -11.38012695 61.72241211 C-12.32893869 64.18330665 -13.27847356 66.64392251 -14.22875977 69.10424805 C-15.59844395 72.65079017 -16.96548189 76.19834273 -18.33203125 79.74609375 C-18.96501884 81.38257118 -18.96501884 81.38257118 -19.61079407 83.05210876 C-20.01098251 84.09250809 -20.41117096 85.13290741 -20.82348633 86.20483398 C-21.17212234 87.10862289 -21.52075836 88.0124118 -21.87995911 88.94358826 C-23.34126284 92.9312515 -24.65698597 96.97095792 -26 101 C-10.16 101 5.68 101 22 101 C19.58364805 93.71753442 19.58364805 93.71753442 16.96289062 86.52783203 C16.59240601 85.55717804 16.22192139 84.58652405 15.84020996 83.5864563 C15.44950317 82.57050385 15.05879639 81.55455139 14.65625 80.5078125 C14.24588501 79.44005585 13.83552002 78.37229919 13.41271973 77.27218628 C12.54998335 75.03124147 11.6859906 72.79077997 10.82080078 70.55078125 C9.49703207 67.11730203 8.18409038 63.67979794 6.87109375 60.2421875 C6.02931361 58.05963816 5.18688835 55.87733751 4.34375 53.6953125 C3.95304321 52.66721466 3.56233643 51.63911682 3.15979004 50.5798645 C2.78930542 49.62812347 2.4188208 48.67638245 2.03710938 47.69580078 C1.71528687 46.85912872 1.39346436 46.02245667 1.06188965 45.16043091 C-0.02412559 42.95091612 -1.16217659 41.6153479 -3 40 Z"/>
<path transform="translate(1067.28515625,1047.90234375)" fill="#FFFFFF" d="M0 0 C2.57161458 0.03255208 5.14322917 0.06510417 7.71484375 0.09765625 C12.47356503 11.21688584 16.7927467 22.50534339 21.15234375 33.78515625 C21.98165972 35.92737049 22.81108944 38.0695407 23.640625 40.21166992 C28.01623441 51.51493874 32.3815154 62.82219144 36.74327278 74.13081169 C37.46986204 76.01460187 38.19652671 77.89836295 38.92320251 79.78211975 C41.24643671 85.80493741 43.56854594 91.82818507 45.88842773 97.85229492 C48.04229475 103.44376932 50.20499582 109.03177797 52.37060547 114.61871338 C53.55268795 117.67799049 54.72718603 120.74000108 55.89865875 123.80334568 C56.6353703 125.72603224 57.37593944 127.64718314 58.11804199 129.5677948 C59.0512588 131.98356384 59.97848721 134.40165823 60.89855957 136.82246399 C65.67206257 149.58810596 65.67206257 149.58810596 75.71484375 158.09765625 C79.68106708 159.27076456 83.67079532 160.23387892 87.71484375 161.09765625 C87.71484375 164.39765625 87.71484375 167.69765625 87.71484375 171.09765625 C64.61484375 171.09765625 41.51484375 171.09765625 17.71484375 171.09765625 C17.71484375 167.79765625 17.71484375 164.49765625 17.71484375 161.09765625 C18.90722656 160.90429688 20.09960938 160.7109375 21.328125 160.51171875 C22.89459487 160.24907709 24.4609977 159.98603537 26.02734375 159.72265625 C26.81302734 159.59632813 27.59871094 159.47 28.40820312 159.33984375 C29.54418945 159.14648438 29.54418945 159.14648438 30.703125 158.94921875 C31.39962158 158.83400879 32.09611816 158.71879883 32.8137207 158.60009766 C35.02313134 158.12590504 35.02313134 158.12590504 37.71484375 156.09765625 C37.19007717 150.49690915 36.07026372 145.66511062 33.9921875 140.421875 C33.72724991 139.73003616 33.46231232 139.03819733 33.18934631 138.32539368 C32.35210153 136.14195369 31.50318201 133.96333117 30.65234375 131.78515625 C29.79938129 129.58862755 28.94909471 127.39117057 28.10462952 125.19136047 C27.58129177 123.82928476 27.05287266 122.46914781 26.51878357 121.11125183 C25.42487038 118.27464438 24.71484375 116.16871216 24.71484375 113.09765625 C-3.99515625 113.59265625 -3.99515625 113.59265625 -33.28515625 114.09765625 C-42.10822459 133.65218025 -42.10822459 133.65218025 -43.28515625 155.09765625 C-36.06125949 158.38996318 -29.14648478 160.07109101 -21.28515625 161.09765625 C-21.28515625 164.39765625 -21.28515625 167.69765625 -21.28515625 171.09765625 C-42.40515625 171.09765625 -63.52515625 171.09765625 -85.28515625 171.09765625 C-85.28515625 167.79765625 -85.28515625 164.49765625 -85.28515625 161.09765625 C-84.43953125 160.95070313 -83.59390625 160.80375 -82.72265625 160.65234375 C-74.3549802 158.99782599 -67.86421076 157.17307332 -62.7910614 149.97889709 C-59.02418167 143.72991289 -56.16226035 137.39966431 -53.5546875 130.59375 C-53.12645187 129.49799149 -52.69821625 128.40223297 -52.25700378 127.27326965 C-50.86188709 123.69720332 -49.47969195 120.1162959 -48.09765625 116.53515625 C-47.1222455 114.02436224 -46.14409329 111.51463892 -45.16601562 109.00488281 C-42.91870408 103.23367865 -40.68042092 97.45902368 -38.44633675 91.68268776 C-36.00728126 85.37703744 -33.55854676 79.0751636 -31.109375 72.7734375 C-25.76788115 59.02262712 -20.44164388 45.26591862 -15.12402344 31.50585938 C-13.4469604 27.16644788 -11.76753715 22.82795696 -10.08642578 18.4901123 C-9.47473578 16.91018183 -8.86403896 15.32986643 -8.25439453 13.74914551 C-7.43107373 11.61439228 -6.60460587 9.48088457 -5.77734375 7.34765625 C-5.3169873 6.1565625 -4.85663086 4.96546875 -4.38232422 3.73828125 C-2.88022689 0.12308662 -2.88022689 0.12308662 0 0 Z M-5.28515625 39.09765625 C-8.14112426 46.44132603 -10.99268481 53.78668537 -13.8386755 61.1342268 C-15.16039947 64.54613551 -16.48361882 67.95744817 -17.81030273 71.36743164 C-19.09119375 74.65987813 -20.36809484 77.95384646 -21.64227486 81.24889565 C-22.36463763 83.11387171 -23.09109548 84.97725996 -23.81761169 86.84062195 C-24.25799271 87.98142715 -24.69837372 89.12223236 -25.15209961 90.29760742 C-25.54070663 91.29910324 -25.92931366 92.30059906 -26.32969666 93.33244324 C-27.46707091 96.42275925 -27.46707091 96.42275925 -28.28515625 101.09765625 C-12.77515625 101.09765625 2.73484375 101.09765625 18.71484375 101.09765625 C18.05514658 97.7991704 17.51050017 95.26788713 16.33544922 92.2355957 C16.05780731 91.51326248 15.78016541 90.79092926 15.49411011 90.04670715 C15.19312408 89.27590317 14.89213806 88.50509918 14.58203125 87.7109375 C14.26710724 86.89505661 13.95218323 86.07917572 13.62771606 85.23857117 C12.61886481 82.62762137 11.60444059 80.01887798 10.58984375 77.41015625 C9.9306233 75.70652189 9.27176588 74.00274702 8.61328125 72.29882812 C6.65276557 67.22957801 4.68463693 62.1633073 2.71484375 57.09765625 C2.03027093 55.33642675 1.34570061 53.57519629 0.66113281 51.81396484 C-0.98683397 47.57488526 -2.63572346 43.33616561 -4.28515625 39.09765625 C-4.61515625 39.09765625 -4.94515625 39.09765625 -5.28515625 39.09765625 Z"/>
<path transform="translate(1331,1051)" fill="#FFFFFF" d="M0 0 C25.08 0 50.16 0 76 0 C76 2.97 76 5.94 76 9 C74.67484375 9.24234375 73.3496875 9.4846875 71.984375 9.734375 C70.23942643 10.07210698 68.49464309 10.41069351 66.75 10.75 C65.87730469 10.90726563 65.00460937 11.06453125 64.10546875 11.2265625 C59.29620478 12.18107291 56.04121619 12.84694134 53 17 C51.7410613 19.5178774 51.86852098 21.24727439 51.85955811 24.0662384 C51.85384796 25.13877365 51.84813782 26.2113089 51.84225464 27.31634521 C51.84113678 28.49819397 51.84001892 29.68004272 51.83886719 30.89770508 C51.83390228 32.1384227 51.82893738 33.37914032 51.82382202 34.65745544 C51.8116995 38.06667065 51.80425148 41.4758244 51.79981136 44.88505387 C51.79688147 47.01482487 51.7927768 49.14459047 51.78830719 51.27435875 C51.77462948 57.93734901 51.76496451 64.60032695 51.7611053 71.26333028 C51.75662553 78.95565654 51.73908272 86.64780502 51.7101047 94.34007722 C51.68848674 100.2849485 51.67840094 106.22976977 51.67706418 112.17467993 C51.6760161 115.7256568 51.67010817 119.27646662 51.65224457 122.82740211 C51.6326999 126.78969682 51.63705335 130.75176954 51.64355469 134.71411133 C51.6343399 135.88988739 51.62512512 137.06566345 51.6156311 138.27706909 C51.62398483 139.89856117 51.62398483 139.89856117 51.63250732 141.55281067 C51.63104076 142.48952008 51.6295742 143.4262295 51.6280632 144.39132404 C52.21349761 148.49742129 53.93474736 151.1612335 57.16796875 153.70703125 C60.82276395 155.3756343 64.36576443 156.04205531 68.3125 156.6875 C69.42334961 156.88182617 69.42334961 156.88182617 70.55664062 157.08007812 C72.36952334 157.3958706 74.18456851 157.69920583 76 158 C76 161.3 76 164.6 76 168 C50.92 168 25.84 168 0 168 C0 164.7 0 161.4 0 158 C1.15757813 157.90203125 2.31515625 157.8040625 3.5078125 157.703125 C5.04696119 157.55296415 6.58601932 157.40187309 8.125 157.25 C8.88554688 157.188125 9.64609375 157.12625 10.4296875 157.0625 C15.57002382 156.53074107 18.92870089 155.4244572 23 152 C24.01020682 148.96937953 24.12808177 146.93849117 24.13371277 143.76881409 C24.13797775 142.68504486 24.14224274 141.60127563 24.14663696 140.48466492 C24.14595718 138.70090202 24.14595718 138.70090202 24.14526367 136.88110352 C24.14862228 135.62888 24.1519809 134.37665649 24.15544128 133.08648682 C24.16332157 129.65053654 24.16661931 126.21464669 24.16725707 122.77869153 C24.16820646 119.91084655 24.17188507 117.04300738 24.17542917 114.17516464 C24.18357291 107.40966081 24.18601346 100.64417028 24.18530273 93.87866211 C24.18470179 86.8980373 24.19525712 79.91748972 24.2110464 72.93688446 C24.2241179 66.94445067 24.2294868 60.95204213 24.22884732 54.95959419 C24.22859224 51.38020134 24.23144904 47.80087714 24.24202538 44.22149849 C24.25349629 40.23039855 24.24896192 36.23940477 24.24291992 32.24829102 C24.25134918 30.46756447 24.25134918 30.46756447 24.25994873 28.65086365 C24.25575424 27.5642746 24.25155975 26.47768555 24.24723816 25.35816956 C24.24805531 23.94260946 24.24805531 23.94260946 24.24888897 22.49845219 C23.98479073 19.84732295 23.42551588 18.23737418 22 16 C15.43973259 12.11872625 7.35571568 10.66830665 0 9 C0 6.03 0 3.06 0 0 Z"/>
<path transform="translate(1225,1278)" fill="#FFFFFF" d="M0 0 C2.8125 -0.5 2.8125 -0.5 6 0 C10.51623666 3.91917486 13.83291555 8.66799019 17.3125 13.5 C23.22823495 21.62985773 29.26965264 29.65220912 35.40551758 37.6171875 C36.03353271 38.43574219 36.66154785 39.25429687 37.30859375 40.09765625 C37.85314209 40.80414307 38.39769043 41.51062988 38.95874023 42.23852539 C42.05760244 46.43075484 45.01041068 50.72915811 48 55 C48 37.18 48 19.36 48 1 C50.73247348 -0.36623674 52.98198902 -0.128426 56 0 C57.84601312 1.84601312 57.13741323 4.85305491 57.14526367 7.32397461 C57.14862228 7.98415085 57.1519809 8.64432709 57.15544128 9.32450867 C57.16497695 11.51713925 57.1668957 13.70969369 57.16796875 15.90234375 C57.17117955 17.4207004 57.17454349 18.93905673 57.17805481 20.45741272 C57.18405265 23.64438596 57.18589404 26.83133206 57.18530273 30.01831055 C57.18520108 34.108696 57.19885343 38.19890797 57.21607494 42.28925228 C57.22717571 45.42644556 57.22922254 48.56359666 57.22869301 51.70080757 C57.22987603 53.2091386 57.23431575 54.71747061 57.24202538 56.22578239 C57.25178662 58.33285659 57.24896282 60.43955098 57.24291992 62.54663086 C57.24434494 63.74718613 57.24576996 64.94774139 57.24723816 66.18467712 C57 69 57 69 55 71 C51.62890625 71.39453125 51.62890625 71.39453125 48 71 C45.83984375 69.26171875 45.83984375 69.26171875 43.9375 66.6875 C43.17695312 65.68074219 42.41640625 64.67398437 41.6328125 63.63671875 C40.75496108 62.42465821 39.87737706 61.21240396 39 60 C37.93663417 58.56771819 36.87142064 57.13680692 35.8046875 55.70703125 C32.80809613 51.67672212 29.84030783 47.6260327 26.87890625 43.56982422 C23.70228247 39.22508124 20.50657764 34.89441807 17.3125 30.5625 C16.7244458 29.76392578 16.1363916 28.96535156 15.53051758 28.14257812 C14.98032959 27.39556641 14.4301416 26.64855469 13.86328125 25.87890625 C13.38157471 25.2247876 12.89986816 24.57066895 12.40356445 23.89672852 C10.94425084 21.92466251 9.47276286 19.96203424 8 18 C8.00666183 18.63227005 8.01332367 19.2645401 8.02018738 19.91596985 C8.08646147 26.48551355 8.13176761 33.05496259 8.16479492 39.62475586 C8.17989881 42.07792008 8.20038321 44.53105724 8.22631836 46.98413086 C8.26263057 50.50641555 8.27971036 54.02834381 8.29296875 57.55078125 C8.30845261 58.65086014 8.32393646 59.75093903 8.33988953 60.88435364 C8.34022942 62.41560127 8.34022942 62.41560127 8.34057617 63.9777832 C8.34723801 64.87713089 8.35389984 65.77647858 8.36076355 66.70307922 C8 69 8 69 6.67402649 70.8256073 C5 72 5 72 1.875 71.8125 C0.92625 71.544375 -0.0225 71.27625 -1 71 C-2.39845247 68.20309507 -2.13497311 65.89085174 -2.14526367 62.76196289 C-2.15164352 61.4504274 -2.15802338 60.13889191 -2.16459656 58.78761292 C-2.16612516 57.3492944 -2.16723916 55.91097539 -2.16796875 54.47265625 C-2.17118086 53.00296496 -2.1745449 51.53327399 -2.17805481 50.06358337 C-2.18404745 46.98093932 -2.18589456 43.8983233 -2.18530273 40.81567383 C-2.18520109 36.86329654 -2.1988553 32.91109879 -2.21607494 28.95876408 C-2.22718674 25.92275667 -2.2292222 22.88679279 -2.22869301 19.85076714 C-2.22987429 18.39350198 -2.23430435 16.93623574 -2.24202538 15.47899055 C-2.25180846 13.44182772 -2.24768733 11.40461239 -2.24291992 9.36743164 C-2.24434494 8.20764297 -2.24576996 7.04785431 -2.24723816 5.85292053 C-2 3 -2 3 0 0 Z"/>
<path transform="translate(869.82421875,1283.35546875)" fill="#FFFFFF" d="M0 0 C3.81192399 2.88118492 5.84328853 5.554577 6.61328125 10.39453125 C6.46890625 11.13703125 6.32453125 11.87953125 6.17578125 12.64453125 C3.17578125 14.64453125 3.17578125 14.64453125 0.86328125 14.70703125 C-2.64279923 13.32090641 -4.03750054 11.18842207 -6.35546875 8.296875 C-10.05136273 4.13899427 -15.81558639 3.86353049 -21.078125 3.48046875 C-28.67279238 3.2189935 -35.31186121 4.56578903 -41.88671875 8.45703125 C-44.36965606 11.26034757 -44.82421875 12.9108245 -44.82421875 16.64453125 C-43.55332253 19.75116645 -42.67188741 21.2245409 -39.64379883 22.72485352 C-36.35938684 23.796148 -33.26944749 24.22148325 -29.8359375 24.609375 C-28.47589412 24.77133887 -27.11586863 24.933453 -25.75585938 25.09570312 C-23.63683496 25.3401777 -21.51749918 25.58138305 -19.39770508 25.8190918 C0.75370251 28.10406087 0.75370251 28.10406087 5.61328125 33.70703125 C8.93151907 38.00442121 9.53543515 42.30827106 9.17578125 47.64453125 C8.0514318 53.25650155 5.70946378 57.07546203 1.17578125 60.64453125 C-7.16435938 65.42386508 -13.44500307 66.84143507 -22.94921875 66.89453125 C-23.84898437 66.91515625 -24.74875 66.93578125 -25.67578125 66.95703125 C-34.55007629 67.00803295 -42.80215717 65.36016277 -49.82421875 59.64453125 C-53.96869178 55.50005822 -55.7102277 52.57206576 -55.82421875 46.64453125 C-55.16421875 45.98453125 -54.50421875 45.32453125 -53.82421875 44.64453125 C-50.38671875 44.64453125 -50.38671875 44.64453125 -46.82421875 45.64453125 C-45.77195147 47.61753241 -44.77632987 49.62129512 -43.82421875 51.64453125 C-35.73043693 57.5909832 -26.72653921 58.16830308 -16.953125 57.1875 C-11.50635798 56.24230572 -6.93232897 54.49711296 -2.76171875 50.83203125 C-1.3843209 47.61810294 -1.44788605 45.09424763 -1.82421875 41.64453125 C-5.54361348 36.83273704 -12.15522178 36.05766203 -17.85253906 35.17578125 C-22.13705946 34.66340011 -26.4277998 34.24326029 -30.72265625 33.828125 C-39.53375183 32.89328925 -46.87104212 31.82336189 -52.82421875 24.64453125 C-55.70401441 19.89895248 -55.41324555 15.02991911 -54.82421875 9.64453125 C-53.23195265 4.00213862 -49.2309194 0.89857204 -44.36328125 -2.06640625 C-30.35450552 -9.17855393 -13.14859597 -8.40446803 0 0 Z"/>
<path transform="translate(563.15625,1278.6640625)" fill="#FFFFFF" d="M0 0 C0.81690308 -0.0066568 1.63380615 -0.0133136 2.47546387 -0.02017212 C4.21050769 -0.03031338 5.94559063 -0.03498868 7.68066406 -0.03466797 C10.3060187 -0.03900024 12.92963519 -0.07518682 15.5546875 -0.11328125 C25.44799027 -0.18149911 34.22551019 -0.19286799 42.28125 6.30078125 C42.796875 6.95175781 43.3125 7.60273437 43.84375 8.2734375 C44.38 8.92183594 44.91625 9.57023437 45.46875 10.23828125 C49.76697717 16.79551986 49.6874621 23.71670068 48.84375 31.3359375 C46.68237769 37.16807021 42.58805186 41.53023034 36.97265625 44.23828125 C35.27987984 44.97738081 33.56334599 45.66158613 31.84375 46.3359375 C32.41222656 46.8928125 32.98070312 47.4496875 33.56640625 48.0234375 C38.55471382 52.95345099 43.28080549 58.01250224 47.84375 63.3359375 C48.17375 63.6659375 48.50375 63.9959375 48.84375 64.3359375 C49.09375 66.7734375 49.09375 66.7734375 48.84375 69.3359375 C45.84375 71.3359375 45.84375 71.3359375 43.48046875 71.296875 C39.94441328 70.00817923 38.03683001 67.74632821 35.65625 64.9609375 C35.17269043 64.42944092 34.68913086 63.89794434 34.19091797 63.3503418 C31.79482125 60.6981647 29.67177758 58.08515711 27.64453125 55.12890625 C23.55651653 49.52300913 23.55651653 49.52300913 17.35742188 46.76953125 C11.19402647 46.0242701 5.03781191 46.04615183 -1.15625 46.3359375 C-1.15101318 47.02743896 -1.14577637 47.71894043 -1.14038086 48.43139648 C-1.119675 51.54540102 -1.10661037 54.65939111 -1.09375 57.7734375 C-1.08537109 58.86205078 -1.07699219 59.95066406 -1.06835938 61.07226562 C-1.06513672 62.10673828 -1.06191406 63.14121094 -1.05859375 64.20703125 C-1.05335693 65.16536865 -1.04812012 66.12370605 -1.04272461 67.11108398 C-1.15625 69.3359375 -1.15625 69.3359375 -2.15625 70.3359375 C-4.48922433 70.37686687 -6.82330225 70.37835473 -9.15625 70.3359375 C-10.55659018 67.53525713 -10.29123646 65.21499172 -10.30151367 62.08203125 C-10.30789352 60.76726807 -10.31427338 59.45250488 -10.32084656 58.09790039 C-10.322375 56.65641313 -10.32348908 55.21492538 -10.32421875 53.7734375 C-10.32743055 52.30135058 -10.33079456 50.82926398 -10.33430481 49.35717773 C-10.34029683 46.27033752 -10.34214459 43.18352531 -10.34155273 40.09667969 C-10.341451 36.13523612 -10.35511468 32.17397133 -10.37232494 28.21257019 C-10.38342487 25.17231414 -10.38547258 22.13210163 -10.38494301 19.09182739 C-10.38612572 17.63094465 -10.39056373 16.17006087 -10.39827538 14.709198 C-10.40803623 12.66943658 -10.40394314 10.62962294 -10.39916992 8.58984375 C-10.40059494 7.42783447 -10.40201996 6.2658252 -10.40348816 5.06860352 C-9.84560075 -1.09759664 -4.93555025 0.01391342 0 0 Z M-1.15625 8.3359375 C-1.15625 18.2359375 -1.15625 28.1359375 -1.15625 38.3359375 C2.948125 38.3978125 7.0525 38.4596875 11.28125 38.5234375 C13.19442017 38.56440552 13.19442017 38.56440552 15.14624023 38.60620117 C23.37316445 38.6658584 30.41452979 38.26506309 36.84375 32.7734375 C39.97531727 28.95683989 40.19074515 26.47376827 40.12109375 21.65234375 C39.68670811 18.02430592 38.23458691 16.04135822 35.84375 13.3359375 C30.25826317 9.03045807 26.47549339 8.20559909 19.546875 8.23828125 C18.46051758 8.24077881 17.37416016 8.24327637 16.25488281 8.24584961 C14.19512207 8.25950562 14.19512207 8.25950562 12.09375 8.2734375 C7.72125 8.2940625 3.34875 8.3146875 -1.15625 8.3359375 Z"/>
<path transform="translate(924.2079010009766,1278.7527618408203)" fill="#FFFFFF" d="M0 0 C1.37447548 0.00213753 1.37447548 0.00213753 2.77671814 0.00431824 C3.81441849 0.00124161 4.85211884 -0.00183502 5.92126465 -0.00500488 C7.60723 0.00577339 7.60723 0.00577339 9.32725525 0.01676941 C11.0507444 0.01745674 11.0507444 0.01745674 12.80905151 0.01815796 C15.24099254 0.0211829 17.67293159 0.02907637 20.10484314 0.04142761 C23.8424612 0.05967889 27.57983167 0.06193739 31.31748962 0.06169128 C33.67491366 0.06660644 36.032336 0.07243475 38.38975525 0.07926941 C40.07875694 0.08093864 40.07875694 0.08093864 41.80187988 0.0826416 C42.83642807 0.08902145 43.87097626 0.09540131 44.93687439 0.10197449 C46.31015648 0.10769218 46.31015648 0.10769218 47.71118164 0.11352539 C49.792099 0.24723816 49.792099 0.24723816 50.792099 1.24723816 C50.979599 3.68473816 50.979599 3.68473816 50.792099 6.24723816 C48.792099 8.24723816 48.792099 8.24723816 46.88117981 8.48774719 C45.71535873 8.48108536 45.71535873 8.48108536 44.52598572 8.47428894 C43.64522369 8.47413788 42.76446167 8.47398682 41.85700989 8.47383118 C40.90488617 8.46350861 39.95276245 8.45318604 38.9717865 8.44255066 C37.51109238 8.43830582 37.51109238 8.43830582 36.02088928 8.43397522 C32.90283551 8.42275729 29.78506632 8.39764986 26.667099 8.37223816 C24.55642606 8.36221044 22.44574862 8.35308423 20.33506775 8.34489441 C15.15387964 8.32451208 9.97330882 8.28536644 4.792099 8.24723816 C4.792099 15.83723816 4.792099 23.42723816 4.792099 31.24723816 C9.30510681 31.21243347 9.30510681 31.21243347 13.9092865 31.17692566 C16.81504392 31.16133958 19.72079674 31.14918889 22.62657166 31.13737488 C24.65003027 31.12730145 26.67347428 31.11364221 28.69688416 31.09635925 C31.60105489 31.07216969 34.50503361 31.06076867 37.4092865 31.05192566 C38.31766266 31.04160309 39.22603882 31.03128052 40.16194153 31.02064514 C41.00266205 31.02049408 41.84338257 31.02034302 42.70957947 31.02018738 C43.82210587 31.01352554 43.82210587 31.01352554 44.95710754 31.00672913 C46.792099 31.24723816 46.792099 31.24723816 48.792099 33.24723816 C48.23654344 37.80279371 48.23654344 37.80279371 46.792099 39.24723816 C43.68958699 39.33597951 40.6094178 39.36242271 37.50694275 39.34489441 C36.57612381 39.34347946 35.64530487 39.34206451 34.6862793 39.34060669 C31.70068709 39.33498988 28.7151687 39.32243456 25.729599 39.30973816 C23.71071987 39.30472532 21.69183957 39.30016204 19.67295837 39.29606628 C14.71262029 39.28586403 9.7524427 39.26629198 4.792099 39.24723816 C4.792099 46.83723816 4.792099 54.42723816 4.792099 62.24723816 C8.02893494 62.2356366 11.26577087 62.22403503 14.60069275 62.21208191 C17.72154136 62.20429229 20.84238891 62.19821499 23.96324158 62.19230652 C26.13902773 62.18726508 28.31481047 62.18043209 30.49058533 62.17179871 C33.61062967 62.15972478 36.73062938 62.15400811 39.85069275 62.14958191 C41.31943092 62.14183998 41.31943092 62.14183998 42.81784058 62.13394165 C44.16912804 62.13382835 44.16912804 62.13382835 45.54771423 62.13371277 C46.34491379 62.13149216 47.14211334 62.12927155 47.96347046 62.12698364 C49.792099 62.24723816 49.792099 62.24723816 50.792099 63.24723816 C50.83290683 65.2468218 50.83464256 67.2476907 50.792099 69.24723816 C48.34868232 70.4689465 46.75405931 70.38060025 44.02281189 70.39250183 C43.03160843 70.39888168 42.04040497 70.40526154 41.01916504 70.41183472 C39.40823219 70.41350395 39.40823219 70.41350395 37.76475525 70.41520691 C36.66489792 70.41853531 35.56504059 70.42186371 34.43185425 70.42529297 C32.1024772 70.43036251 29.77309288 70.43270129 27.44371033 70.43254089 C23.87286968 70.43472697 20.30233805 70.45288151 16.73155212 70.47184753 C14.47178756 70.47478147 12.21202152 70.47676627 9.95225525 70.47770691 C8.88032425 70.48489243 7.80839325 70.49207794 6.70397949 70.4994812 C5.21244606 70.49486626 5.21244606 70.49486626 3.69078064 70.49015808 C2.81523026 70.4915831 1.93967987 70.49300812 1.03759766 70.49447632 C-1.207901 70.24723816 -1.207901 70.24723816 -4.207901 68.24723816 C-4.5821228 65.51457214 -4.5821228 65.51457214 -4.58021545 61.99333191 C-4.58644424 60.67856873 -4.59267303 59.36380554 -4.59909058 58.00920105 C-4.59040278 56.56770958 -4.58108483 55.12622179 -4.57118225 53.68473816 C-4.57066381 52.21265158 -4.5711809 50.74056429 -4.57269287 49.26847839 C-4.57260309 46.18154074 -4.56216117 43.0948639 -4.54408264 40.00798035 C-4.52139503 36.04649911 -4.52085061 32.08539917 -4.52760029 28.12387085 C-4.53093811 25.08358864 -4.52431376 22.04339372 -4.51447105 19.00312805 C-4.51061552 17.54225623 -4.5094723 16.08137471 -4.5110569 14.62049866 C-4.51142679 12.58069182 -4.49734738 10.54089767 -4.4825592 8.50114441 C-4.47564812 6.75813049 -4.47564812 6.75813049 -4.46859741 4.97990417 C-4.14413047 1.57878416 -3.49190387 0.39101929 0 0 Z"/>
<path transform="translate(930.5,632.6875)" fill="#FFFFFF" d="M0 0 C4.68637047 3.97513337 8.12609815 9.26429339 8.703125 15.51171875 C8.84101958 22.83162245 7.98154006 28.36147939 3.1875 34.0625 C-4.34031446 40.36485629 -9.8284655 42.08563926 -19.5 41.3125 C-26.02043251 40.04107398 -30.52451829 36.56055654 -34.5 31.3125 C-37.92360235 25.35154697 -38.56574318 18.83158156 -36.99609375 12.17578125 C-34.88894258 5.85432773 -31.4766325 1.14026453 -25.5 -2 C-17.24672558 -5.94360088 -7.55769847 -5.30315052 0 0 Z"/>
<path transform="translate(1333.2079010009766,1278.7527618408203)" fill="#FFFFFF" d="M0 0 C1.37447548 0.00213753 1.37447548 0.00213753 2.77671814 0.00431824 C3.81441849 0.00124161 4.85211884 -0.00183502 5.92126465 -0.00500488 C7.60723 0.00577339 7.60723 0.00577339 9.32725525 0.01676941 C11.0507444 0.01745674 11.0507444 0.01745674 12.80905151 0.01815796 C15.24099254 0.0211829 17.67293159 0.02907637 20.10484314 0.04142761 C23.8424612 0.05967889 27.57983167 0.06193739 31.31748962 0.06169128 C33.67491366 0.06660644 36.032336 0.07243475 38.38975525 0.07926941 C40.07875694 0.08093864 40.07875694 0.08093864 41.80187988 0.0826416 C42.83642807 0.08902145 43.87097626 0.09540131 44.93687439 0.10197449 C46.31015648 0.10769218 46.31015648 0.10769218 47.71118164 0.11352539 C49.792099 0.24723816 49.792099 0.24723816 50.792099 1.24723816 C50.979599 3.68473816 50.979599 3.68473816 50.792099 6.24723816 C48.792099 8.24723816 48.792099 8.24723816 46.84321594 8.48774719 C46.048237 8.48330597 45.25325806 8.47886475 44.43418884 8.47428894 C43.53340607 8.47413788 42.63262329 8.47398682 41.70454407 8.47383118 C40.73054657 8.46350861 39.75654907 8.45318604 38.7530365 8.44255066 C37.75704437 8.43972076 36.76105225 8.43689087 35.73487854 8.43397522 C32.54549782 8.42275656 29.35639522 8.39764897 26.167099 8.37223816 C24.00824888 8.36221054 21.84939437 8.35308431 19.6905365 8.34489441 C14.39086329 8.32451105 9.09179343 8.28536546 3.792099 8.24723816 C3.792099 15.83723816 3.792099 23.42723816 3.792099 31.24723816 C8.41338806 31.21243347 8.41338806 31.21243347 13.1280365 31.17692566 C16.10329272 31.16133988 19.07854445 31.14918902 22.05381775 31.13737488 C24.12577847 31.12730104 26.19772493 31.1136415 28.26963806 31.09635925 C31.24330664 31.07217152 34.2167877 31.06076908 37.1905365 31.05192566 C38.12078644 31.04160309 39.05103638 31.03128052 40.00947571 31.02064514 C40.87021698 31.02049408 41.73095825 31.02034302 42.61778259 31.02018738 C43.37723175 31.01574615 44.13668091 31.01130493 44.91914368 31.00672913 C46.792099 31.24723816 46.792099 31.24723816 48.792099 33.24723816 C48.23654344 37.80279371 48.23654344 37.80279371 46.792099 39.24723816 C45.44114918 39.33992815 44.08542809 39.36471142 42.73130798 39.36076355 C41.87049118 39.36068802 41.00967438 39.36061249 40.12277222 39.36053467 C39.18736099 39.35537338 38.25194977 39.3502121 37.28819275 39.34489441 C36.33517776 39.34347946 35.38216278 39.34206451 34.40026855 39.34060669 C31.34334735 39.33498968 28.28649823 39.32243432 25.229599 39.30973816 C23.16254276 39.30472535 21.09548538 39.30016206 19.02842712 39.29606628 C13.94960067 39.28586374 8.87093094 39.26629172 3.792099 39.24723816 C3.792099 46.83723816 3.792099 54.42723816 3.792099 62.24723816 C7.10112244 62.2356366 10.41014587 62.22403503 13.81944275 62.21208191 C17.00979008 62.20429235 20.20013637 62.19821501 23.39048767 62.19230652 C25.61477632 62.18726499 27.83906163 62.18043193 30.06333923 62.17179871 C33.25288209 62.15972517 36.44238129 62.1540082 39.63194275 62.14958191 C41.13349159 62.14183998 41.13349159 62.14183998 42.66537476 62.13394165 C43.58625381 62.13386612 44.50713287 62.13379059 45.45591736 62.13371277 C46.67836403 62.13038185 46.67836403 62.13038185 47.92550659 62.12698364 C49.792099 62.24723816 49.792099 62.24723816 50.792099 63.24723816 C50.979599 65.68473816 50.979599 65.68473816 50.792099 68.24723816 C48.28551996 70.7538172 47.48539014 70.49972876 44.02281189 70.50602722 C42.5360067 70.5154837 42.5360067 70.5154837 41.01916504 70.52513123 C39.40823219 70.51905853 39.40823219 70.51905853 37.76475525 70.51286316 C36.11496925 70.51573334 36.11496925 70.51573334 34.43185425 70.5186615 C32.10247062 70.52002439 29.77307942 70.51632072 27.44371033 70.50798035 C23.87281755 70.49729269 20.30242906 70.50786711 16.73155212 70.52067566 C14.47178539 70.51935388 12.21201896 70.51679112 9.95225525 70.51286316 C8.88032425 70.51691162 7.80839325 70.52096008 6.70397949 70.52513123 C5.21244606 70.51567474 5.21244606 70.51567474 3.69078064 70.50602722 C2.81523026 70.50443604 1.93967987 70.50284485 1.03759766 70.50120544 C-1.207901 70.24723816 -1.207901 70.24723816 -4.207901 68.24723816 C-4.5821228 65.51457214 -4.5821228 65.51457214 -4.58021545 61.99333191 C-4.58644424 60.67856873 -4.59267303 59.36380554 -4.59909058 58.00920105 C-4.59040278 56.56770958 -4.58108483 55.12622179 -4.57118225 53.68473816 C-4.57066381 52.21265158 -4.5711809 50.74056429 -4.57269287 49.26847839 C-4.57260309 46.18154074 -4.56216117 43.0948639 -4.54408264 40.00798035 C-4.52139503 36.04649911 -4.52085061 32.08539917 -4.52760029 28.12387085 C-4.53093811 25.08358864 -4.52431376 22.04339372 -4.51447105 19.00312805 C-4.51061552 17.54225623 -4.5094723 16.08137471 -4.5110569 14.62049866 C-4.51142679 12.58069182 -4.49734738 10.54089767 -4.4825592 8.50114441 C-4.47564812 6.75813049 -4.47564812 6.75813049 -4.46859741 4.97990417 C-4.14413047 1.57878416 -3.49190387 0.39101929 0 0 Z"/>
<path transform="translate(659.0625,1277.8125)" fill="#FFFFFF" d="M0 0 C2.9375 0.1875 2.9375 0.1875 3.9375 1.1875 C4.06098183 4.18317693 4.12372073 7.15928252 4.1484375 10.15625 C4.17653378 12.02605001 4.20519838 13.89584154 4.234375 15.765625 C4.27544492 18.71679193 4.31232287 21.66780543 4.33886719 24.61914062 C4.36669427 27.46517934 4.41259579 30.31049521 4.4609375 33.15625 C4.46419037 34.02536011 4.46744324 34.89447021 4.47079468 35.78991699 C4.60976974 42.81115676 5.98864088 48.93940147 9.625 55 C14.5087488 59.61976238 20.47524547 61.91595063 27.125 62.4375 C34.60691425 61.94688267 40.72871872 59.75968463 45.9375 54.1875 C49.65772712 47.89292307 50.5272102 42.17969674 50.51171875 34.97265625 C50.52588333 34.03570419 50.54004791 33.09875214 50.55464172 32.13340759 C50.59622029 29.1721516 50.61173052 26.21150562 50.625 23.25 C50.65407172 20.26378183 50.68855692 17.27771605 50.72749329 14.29161072 C50.74996309 12.44090203 50.76579319 10.59009843 50.77433777 8.73927307 C50.78137222 7.90758102 50.78840668 7.07588898 50.7956543 6.21899414 C50.79913376 5.48669083 50.80261322 4.75438751 50.80619812 3.99989319 C50.9375 2.1875 50.9375 2.1875 51.9375 0.1875 C54.27044775 0.14508277 56.60452567 0.14657063 58.9375 0.1875 C60.48935108 1.73935108 60.07991742 3.22146726 60.09863281 5.38085938 C60.10824036 6.27268921 60.1178479 7.16451904 60.12774658 8.08337402 C60.13199646 9.0561731 60.13624634 10.02897217 60.140625 11.03125 C60.14632507 12.02950806 60.15202515 13.02776611 60.15789795 14.05627441 C60.16736941 16.17813044 60.1738904 18.30000132 60.17773438 20.421875 C60.1873762 23.6461021 60.21835263 26.86967445 60.25 30.09375 C60.25653628 32.15624622 60.26178429 34.218747 60.265625 36.28125 C60.2779718 37.23785522 60.2903186 38.19446045 60.30303955 39.18005371 C60.26878786 49.64635802 57.59314358 56.45342874 50.33203125 64.01953125 C47.08441426 66.95986963 44.07758337 68.79675355 39.9375 70.1875 C38.92623047 70.53748047 38.92623047 70.53748047 37.89453125 70.89453125 C27.70738541 73.77068354 17.74261228 72.06564298 8.6015625 66.9765625 C0.9465407 61.83580006 -3.10496576 55.14186464 -5.0625 46.1875 C-5.66207006 39.69970097 -5.55544366 33.17714643 -5.47412109 26.66870117 C-5.43721205 23.60106748 -5.4331052 20.53463125 -5.43359375 17.46679688 C-5.42377562 15.51821866 -5.41212436 13.56964863 -5.3984375 11.62109375 C-5.39621185 10.70347763 -5.39398621 9.78586151 -5.39169312 8.84043884 C-5.37893341 7.99518143 -5.36617371 7.14992401 -5.35302734 6.27905273 C-5.34540375 5.53501694 -5.33778015 4.79098114 -5.32992554 4.0243988 C-4.82099691 0.52865793 -3.30635341 0.2024298 0 0 Z"/>
<path transform="translate(503.73828125,1283.3671875)" fill="#FFFFFF" d="M0 0 C2.3717523 1.7122495 4.3539577 3.41295229 6.26171875 5.6328125 C5.96171875 9.9328125 5.96171875 9.9328125 4.26171875 11.6328125 C1.35621463 11.93659202 -0.24614995 11.9343496 -2.765625 10.390625 C-3.39597656 9.85179687 -4.02632813 9.31296875 -4.67578125 8.7578125 C-10.67130364 3.66100291 -16.78041942 3.18576007 -24.41015625 3.31640625 C-30.81884671 3.92568316 -35.78661454 5.97181956 -40.67578125 10.1328125 C-41.35640625 10.9578125 -42.03703125 11.7828125 -42.73828125 12.6328125 C-43.29515625 13.2515625 -43.85203125 13.8703125 -44.42578125 14.5078125 C-48.38615083 20.91983944 -48.50235608 28.30887568 -47.73828125 35.6328125 C-45.48959917 44.001619 -41.60538913 50.13117479 -34.07421875 54.5546875 C-27.65492956 57.51743636 -20.78323034 58.41788842 -13.94140625 56.53515625 C-9.1800699 54.58503445 -4.70139655 51.68712387 -1.140625 47.9609375 C0.26171875 46.6328125 0.26171875 46.6328125 2.82421875 46.3203125 C5.26171875 46.6328125 5.26171875 46.6328125 7.26171875 48.6328125 C7.41463433 51.92049744 6.87464017 53.8957148 4.7578125 56.44140625 C-3.75902387 64.44207072 -13.87191142 67.02531231 -25.28515625 66.91015625 C-33.8456051 66.22260889 -41.61586089 62.66104177 -47.73828125 56.6328125 C-55.27132801 47.68404234 -58.50289055 37.69457577 -58.12109375 26.0625 C-56.95681117 15.63147854 -52.15621583 7.11997937 -44.17578125 0.3828125 C-30.4573541 -9.21746348 -13.75210867 -8.45942917 0 0 Z"/>
<path transform="translate(1079,1278)" fill="#FFFFFF" d="M0 0 C2.33294775 -0.04241723 4.66702567 -0.04092937 7 0 C8 1 8 1 8.12025452 3.47401428 C8.1169236 5.12281837 8.1169236 5.12281837 8.11352539 6.80493164 C8.11344986 8.04614273 8.11337433 9.28735382 8.11329651 10.56617737 C8.10818911 11.9308374 8.1029731 13.29549702 8.09765625 14.66015625 C8.095792 16.04878183 8.09436813 17.43740807 8.09336853 18.82603455 C8.08954387 22.48721115 8.07971403 26.1483483 8.06866455 29.80950928 C8.05844932 33.54292263 8.05387067 37.27634234 8.04882812 41.00976562 C8.03809171 48.33986177 8.02101591 55.66992536 8 63 C8.82352211 62.99666908 8.82352211 62.99666908 9.66368103 62.99327087 C15.35707959 62.97121642 21.0504661 62.95609274 26.74389648 62.94506836 C28.87118014 62.94002702 30.99846031 62.93319409 33.12573242 62.92456055 C36.17627826 62.91248621 39.22677845 62.90676986 42.27734375 62.90234375 C43.71327126 62.89460182 43.71327126 62.89460182 45.1782074 62.88670349 C46.49946373 62.88659019 46.49946373 62.88659019 47.84741211 62.88647461 C49.0165641 62.88314369 49.0165641 62.88314369 50.20933533 62.87974548 C52 63 52 63 53 64 C53.1875 66.4375 53.1875 66.4375 53 69 C50.49055695 71.50944305 49.68235913 71.2525033 46.21484375 71.25878906 C45.2204126 71.26509338 44.22598145 71.27139771 43.20141602 71.27789307 C42.12432373 71.2738446 41.04723145 71.26979614 39.9375 71.265625 C38.835271 71.26753845 37.73304199 71.2694519 36.59741211 71.27142334 C34.26383232 71.27278612 31.93024497 71.26908322 29.59667969 71.26074219 C26.01480153 71.25004421 22.43342497 71.26063458 18.8515625 71.2734375 C16.58854055 71.27211592 14.32551892 71.26955357 12.0625 71.265625 C10.98540771 71.26967346 9.90831543 71.27372192 8.79858398 71.27789307 C7.80415283 71.27158875 6.80972168 71.26528442 5.78515625 71.25878906 C4.90738525 71.25719788 4.02961426 71.25560669 3.12524414 71.25396729 C1 71 1 71 -1 69 C-1.24723816 66.22937012 -1.24723816 66.22937012 -1.24291992 62.65429688 C-1.24481827 62.00372818 -1.24671661 61.35315948 -1.24867249 60.68287659 C-1.25238331 58.52804592 -1.24167187 56.37355082 -1.23046875 54.21875 C-1.22927698 52.72424357 -1.22882378 51.22973638 -1.2290802 49.73522949 C-1.2275148 46.60127074 -1.21922099 43.46742613 -1.20581055 40.33349609 C-1.18882061 36.31156082 -1.18499619 32.28975107 -1.18575573 28.26778412 C-1.1854841 25.18120114 -1.18000402 22.09464572 -1.17275429 19.0080719 C-1.16956682 17.52486886 -1.16760003 16.0416627 -1.16686058 14.55845642 C-1.16469784 12.48748427 -1.15595508 10.41664651 -1.14526367 8.34570312 C-1.14145187 7.16592896 -1.13764008 5.98615479 -1.13371277 4.77062988 C-1 2 -1 2 0 0 Z"/>
<path transform="translate(1177,1276)" fill="#FFFFFF" d="M0 0 C2.42010254 3.63015382 2.25312035 5.32112527 2.25878906 9.64282227 C2.2622937 10.31304413 2.26579834 10.98326599 2.26940918 11.67379761 C2.27820849 13.88810598 2.27238453 16.10209466 2.265625 18.31640625 C2.26697201 19.85432497 2.26891285 21.39224327 2.27142334 22.93016052 C2.27437202 26.15229346 2.27008463 29.3743155 2.26074219 32.59643555 C2.24933815 36.7316217 2.25591464 40.86654852 2.26788712 45.0017252 C2.27510448 48.17667098 2.27281854 51.35155499 2.26763153 54.52650261 C2.26629518 56.05157438 2.26794223 57.57665172 2.27259064 59.101717 C2.27765498 61.23015393 2.26994782 63.35816701 2.25878906 65.48657227 C2.25640228 67.30500389 2.25640228 67.30500389 2.25396729 69.16017151 C2 72 2 72 0 74 C-2.31 73.67 -4.62 73.34 -7 73 C-7 49.24 -7 25.48 -7 1 C-4.46578263 -0.26710868 -2.80561762 -0.28056176 0 0 Z"/>
<path transform="translate(770.5,1275.6875)" fill="#FFFFFF" d="M0 0 C1.2375 0.1546875 1.2375 0.1546875 2.5 0.3125 C4.92010254 3.94265382 4.75312035 5.63362527 4.75878906 9.95532227 C4.7622937 10.62554413 4.76579834 11.29576599 4.76940918 11.98629761 C4.77820849 14.20060598 4.77238453 16.41459466 4.765625 18.62890625 C4.76697201 20.16682497 4.76891285 21.70474327 4.77142334 23.24266052 C4.77437202 26.46479346 4.77008463 29.6868155 4.76074219 32.90893555 C4.74933815 37.0441217 4.75591464 41.17904852 4.76788712 45.3142252 C4.77510448 48.48917098 4.77281854 51.66405499 4.76763153 54.83900261 C4.76629518 56.36407438 4.76794223 57.88915172 4.77259064 59.414217 C4.77765498 61.54265393 4.76994782 63.67066701 4.75878906 65.79907227 C4.75640228 67.61750389 4.75640228 67.61750389 4.75396729 69.47267151 C4.5 72.3125 4.5 72.3125 2.5 74.3125 C-1.125 73.9375 -1.125 73.9375 -4.5 73.3125 C-4.54627979 64.08980794 -4.58184694 54.86715566 -4.60362434 45.64437294 C-4.61407483 41.36215752 -4.62825697 37.08002136 -4.65087891 32.79785156 C-4.67256238 28.66761874 -4.68455909 24.53746231 -4.68975449 20.40717697 C-4.69345835 18.82906262 -4.7006908 17.25095259 -4.71146011 15.67287064 C-4.72591549 13.46753049 -4.72798048 11.26250858 -4.72705078 9.05712891 C-4.731492 7.80026276 -4.73593323 6.54339661 -4.74050903 5.2484436 C-4.43398557 1.50664819 -3.77727768 0.47215971 0 0 Z"/>
</svg>