<?xml version="1.0" encoding="UTF-8"?>
<svg version="1.1" xmlns="http://www.w3.org/2000/svg" width="1835" height="1729">
<path d="M0 0 C7.41993174 1.70347219 14.81244234 -0.87306883 22.0390625 -2.6875 C35.85033211 -6.15517888 49.28478947 -6.76384761 63.48925781 -7.10449219 C65.96580866 -7.17189751 68.43257621 -7.28513747 70.90625 -7.4140625 C82.58030668 -7.49069745 91.14625435 -1.46027235 100.5390625 4.8125 C101.69801025 5.57941162 101.69801025 5.57941162 102.88037109 6.36181641 C122.75088004 19.62995671 122.75088004 19.62995671 129.671875 28.56640625 C137.4712275 38.02601696 146.59662556 39.46775764 158.140625 42.21484375 C177.6012098 46.87662371 200.41046647 58.57216877 212.5390625 74.8125 C214.04776026 77.40039296 215.27581912 80.07026174 216.4765625 82.8125 C217.15966089 84.32704643 217.84326382 85.8413654 218.52734375 87.35546875 C218.86330566 88.10747559 219.19926758 88.85948242 219.54541016 89.63427734 C220.45556679 91.62946591 221.40905568 93.59195741 222.39453125 95.55078125 C225.88697569 102.60505645 228.52151276 109.56313642 230.7265625 117.125 C230.98203857 117.9905249 231.23751465 118.8560498 231.50073242 119.74780273 C232.48162546 123.09420799 233.44518987 126.428521 234.2734375 129.81640625 C236.34084558 136.78816573 241.3698546 140.67380295 246.62573242 145.37182617 C262.01671194 159.19051914 279.39861495 182.56340756 280.65966797 203.84814453 C280.82235737 211.23424335 279.94279597 218.52465799 279.04980469 225.84204102 C278.79178751 227.97744723 278.5516775 230.1143657 278.3125 232.25195312 C277.08012064 242.76517853 274.89286775 252.75108424 271.5390625 262.8125 C271.02189869 267.57040704 271.83960591 271.02663023 273.3515625 275.5625 C277.6469578 288.81425147 279.06557557 302.94211806 279.5390625 316.8125 C279.57161133 317.57626953 279.60416016 318.34003906 279.63769531 319.12695312 C280.66896133 345.27319262 266.21457143 366.61786488 248.84375 385.44140625 C245.55716867 388.82268569 242.15288508 392.07866848 238.703125 395.29296875 C234.50632846 400.17913079 233.21323477 405.75658949 231.9140625 411.9375 C228.47857362 426.57469127 221.74920628 440.10806138 214.4765625 453.1875 C213.77176758 454.47950317 213.77176758 454.47950317 213.05273438 455.79760742 C208.12378464 464.36833432 201.54529059 469.69740866 192.9140625 474.3125 C192.2223999 474.68995361 191.5307373 475.06740723 190.81811523 475.45629883 C188.73143773 476.58734821 186.63625326 477.70109484 184.5390625 478.8125 C183.93755371 479.13782715 183.33604492 479.4631543 182.71630859 479.79833984 C176.04860073 483.39502092 169.29689489 486.41542473 162.1640625 488.9375 C161.44943848 489.19120361 160.73481445 489.44490723 159.99853516 489.70629883 C156.51194731 490.9081776 153.07088507 491.95610526 149.46484375 492.734375 C138.55411982 495.23738427 133.0052599 500.64043728 125.4765625 508.73046875 C116.39863102 518.40598596 104.70208957 525.28685531 93.25976562 531.82666016 C91.63119375 532.75971538 90.01440997 533.71325865 88.3984375 534.66796875 C86.98304688 535.48201172 86.98304688 535.48201172 85.5390625 536.3125 C84.7346875 536.7765625 83.9303125 537.240625 83.1015625 537.71875 C63.38766461 546.13321861 31.11788842 538.62500495 11.5390625 532.8125 C10.8790625 532.4825 10.2190625 532.1525 9.5390625 531.8125 C4.77953555 531.28366367 1.26652347 532.12314422 -3.2734375 533.625 C-21.69991796 539.59086394 -41.2431095 540.20630795 -60.4609375 539.8125 C-61.79125 539.80476562 -61.79125 539.80476562 -63.1484375 539.796875 C-69.82479297 539.46305723 -74.85744644 536.23107545 -80.4609375 532.8125 C-81.49476563 532.19890625 -82.52859375 531.5853125 -83.59375 530.953125 C-97.63266174 522.49594925 -111.37357322 513.59321779 -121.6953125 500.63671875 C-126.95347794 495.20405667 -132.73947869 493.71125477 -139.8359375 492 C-158.93395617 487.06031478 -179.80581546 478.38083771 -194.4609375 464.8125 C-194.98300781 464.34328125 -195.50507812 463.8740625 -196.04296875 463.390625 C-201.31772254 457.99061321 -204.21990308 450.75995279 -207.41113281 444.01806641 C-208.45805073 441.8185649 -209.53078559 439.63333782 -210.609375 437.44921875 C-215.17854455 428.10677675 -218.68400864 418.89287807 -221.22265625 408.77734375 C-221.46628906 407.81957031 -221.70992187 406.86179687 -221.9609375 405.875 C-222.156875 405.04097656 -222.3528125 404.20695312 -222.5546875 403.34765625 C-224.53634322 397.80414522 -227.9278806 394.17728515 -232.3984375 390.5 C-244.78886829 379.44595389 -253.43835525 365.32865963 -261.31689453 350.85839844 C-262.03727615 349.57013596 -262.78973845 348.29881098 -263.58544922 347.05566406 C-268.82939294 338.77269902 -268.75563453 329.7610111 -268.2109375 320.25 C-268.15719971 319.1993335 -268.10346191 318.14866699 -268.0480957 317.06616211 C-267.30569359 303.64865183 -265.75068166 290.85023299 -262.4609375 277.8125 C-262.30133545 277.1618457 -262.1417334 276.51119141 -261.97729492 275.84082031 C-261.6172571 274.4265441 -261.22691902 273.01978557 -260.8137207 271.62011719 C-259.21307452 265.73136724 -259.78844707 261.80203986 -261.6484375 256.0625 C-267.29800853 236.440312 -273.95187022 205.13701257 -264.5859375 185.875 C-263.26593602 183.81782027 -261.88765149 181.79716107 -260.4609375 179.8125 C-259.65766097 178.50314583 -258.8666294 177.18622557 -258.0859375 175.86328125 C-250.04647407 162.33407173 -240.81138667 148.06756159 -228.1484375 138.5 C-222.93822547 134.07234946 -222.07251197 128.21782565 -220.4609375 121.8125 C-214.15628797 99.89893443 -204.29752987 70.15449421 -183.18359375 58.1875 C-181.63822072 57.38030451 -180.08442419 56.58907127 -178.5234375 55.8125 C-177.69078369 55.38880127 -176.85812988 54.96510254 -176.00024414 54.52856445 C-173.49710887 53.26829296 -170.98275243 52.03490647 -168.4609375 50.8125 C-167.39697754 50.29308838 -167.39697754 50.29308838 -166.31152344 49.76318359 C-158.72890305 46.11154358 -151.14643019 43.27406106 -143.0234375 41.0625 C-141.86968628 40.74768677 -141.86968628 40.74768677 -140.69262695 40.42651367 C-137.71741229 39.63015557 -134.77296797 38.87176334 -131.74609375 38.296875 C-125.53723898 36.9046544 -122.27307009 32.66564808 -118.23706055 28.05883789 C-87.04894697 -7.28379901 -43.84248717 -15.04302043 0 0 Z M-65.4609375 64.8125 C-74.18878103 76.91668532 -77.05404066 89.23020949 -75.02734375 103.96484375 C-69.95425434 129.45633029 -52.98583874 158.90560493 -31.4609375 173.8125 C-26.55414709 176.9773367 -22.43241913 178.82652518 -16.4609375 177.8125 C-5.43107303 168.34592341 -1.93391104 152.75119867 -0.63476562 138.88671875 C-0.29728604 132.91825953 -0.43702815 126.95556505 -0.59301758 120.98339844 C-0.64782569 118.71284566 -0.67676428 116.44289124 -0.70507812 114.171875 C-1.05676375 96.8341616 -4.51692484 79.77039342 -16.8984375 66.8125 C-24.82462685 59.52466147 -35.19848305 53.52002513 -46.15234375 52.58203125 C-53.87488739 53.35297892 -60.45046337 59.29827981 -65.4609375 64.8125 Z M26.25390625 69.3515625 C14.35368057 84.78849077 12.35147781 102.01747583 12.35375977 120.91210938 C12.35158929 122.91280214 12.33312284 124.91345567 12.31445312 126.9140625 C12.28773914 145.00833324 14.13362445 163.6266541 27.0390625 177.5 C29.46598571 178.99906729 29.46598571 178.99906729 32.2265625 178.9375 C54.49972147 171.37303091 67.77846514 148.24911937 77.75292969 128.39648438 C85.66129431 112.07083413 91.15625759 96.06577967 84.99609375 78.0859375 C80.97738526 69.05731092 74.79152492 60.41371884 66.5390625 54.8125 C51.96297456 49.95380402 35.90329159 58.63002323 26.25390625 69.3515625 Z M-149.4609375 110.8125 C-157.15594584 120.62953013 -157.48688679 131.85562501 -156.4609375 143.8125 C-153.38847088 161.00275626 -139.50923182 173.34311097 -125.84375 182.94140625 C-109.06488312 194.23917661 -85.30665113 207.90657239 -64.3671875 204.46875 C-60.99513089 203.61144747 -58.52105742 202.67377766 -56.4609375 199.8125 C-51.44083945 184.75220586 -59.80317013 167.23328247 -66.4609375 153.8125 C-76.46787644 134.17889621 -90.12031635 112.98589216 -111.7109375 105.375 C-124.10277148 101.95656304 -139.2600083 102.03495627 -149.4609375 110.8125 Z M96.86669922 124.22314453 C82.07405376 141.9318834 65.20283758 170.13735739 66.5390625 193.875 C67.28242947 198.12958969 68.99228926 200.26807572 72.5390625 202.8125 C85.55323293 208.06822268 98.4882668 202.41754135 110.65673828 197.36425781 C133.16320132 187.67405115 157.82124854 172.45672776 167.33203125 148.84375 C170.72249028 138.10350395 168.97448082 125.93079804 164.5390625 115.8125 C160.86980294 109.27663141 155.51111379 106.95243654 148.5390625 104.8125 C147.92289063 104.62042969 147.30671875 104.42835938 146.671875 104.23046875 C126.88958064 100.35371876 109.72220257 109.70110131 96.86669922 124.22314453 Z M-201.64453125 200.66015625 C-205.89997923 205.70263332 -206.97485697 209.69590818 -206.7421875 216.171875 C-205.51088843 227.73240512 -199.61474995 237.70351986 -191.26953125 245.640625 C-187.89815864 248.24769478 -184.43768548 250.25373275 -180.6484375 252.1875 C-180.02146973 252.50928223 -179.39450195 252.83106445 -178.74853516 253.16259766 C-166.23521919 259.14255229 -153.79334117 259.28599216 -140.18920898 259.20361328 C-137.03390137 259.18755326 -133.87987774 259.2035111 -130.72460938 259.22265625 C-117.83798541 259.23708162 -105.64042213 259.0592215 -93.9609375 252.875 C-93.0225 252.39160156 -92.0840625 251.90820312 -91.1171875 251.41015625 C-87.50248691 249.23602016 -84.3181715 247.098351 -81.9609375 243.5625 C-81.00741394 238.3181204 -83.43404436 234.42451074 -86.16796875 230.1328125 C-94.29207336 218.56357477 -103.61143241 211.1927954 -115.4609375 203.8125 C-116.15993164 203.37583008 -116.85892578 202.93916016 -117.57910156 202.48925781 C-144.24209372 185.97548312 -176.89673129 174.05295093 -201.64453125 200.66015625 Z M98.5390625 227.8125 C95.19107178 232.54443738 93.67560202 236.98414177 94.5390625 242.8125 C97.21185112 248.38080963 101.04698214 251.30231603 106.5390625 253.8125 C116.53528747 257.21304228 125.89348497 258.96479745 136.40625 259.05078125 C137.83482834 259.06288887 137.83482834 259.06288887 139.29226685 259.07524109 C141.30778204 259.08903894 143.32332019 259.09978021 145.33886719 259.10766602 C147.37116494 259.11912149 149.40343416 259.13946964 151.43554688 259.16918945 C171.24146468 259.458268 190.31046768 257.80668278 205.4765625 243.5 C212.98671897 235.36973887 217.76901278 226.25631396 218.9140625 215.1875 C217.94594399 206.47443337 214.04862609 200.64180373 207.5390625 194.8125 C171.6297947 168.95582667 123.49849712 199.54468394 98.5390625 227.8125 Z M4.5390625 205.8125 C2.71177201 207.74780766 1.07010872 209.80297623 -0.609375 211.8671875 C-3.22996094 214.62046134 -5.17467275 215.69429187 -8.96875 216.04296875 C-9.83242188 216.02878906 -10.69609375 216.01460937 -11.5859375 216 C-12.45476562 215.99355469 -13.32359375 215.98710938 -14.21875 215.98046875 C-16.4609375 215.8125 -16.4609375 215.8125 -18.4609375 214.8125 C-20.46053762 214.772508 -22.46140992 214.76903201 -24.4609375 214.8125 C-24.64269531 215.40417969 -24.82445312 215.99585938 -25.01171875 216.60546875 C-26.42664739 221.05342391 -27.94074108 224.85219135 -30.4609375 228.8125 C-30.4609375 229.4725 -30.4609375 230.1325 -30.4609375 230.8125 C-31.19699219 231.00585938 -31.93304687 231.19921875 -32.69140625 231.3984375 C-33.66722656 231.65882813 -34.64304687 231.91921875 -35.6484375 232.1875 C-36.61136719 232.44273437 -37.57429687 232.69796875 -38.56640625 232.9609375 C-41.28303957 233.76016296 -43.85230925 234.7156362 -46.4609375 235.8125 C-45.84528523 239.81686976 -45.84528523 239.81686976 -44.8984375 243.75 C-43.97493635 248.10364829 -44.07762298 251.74773746 -45.5859375 255.9375 C-47.84494648 259.40131377 -50.17294461 261.3282387 -53.4609375 263.8125 C-52.94295972 267.94193395 -51.82166092 269.94780954 -48.9609375 272.9375 C-45.73680325 276.33341189 -44.54555186 278.31764639 -44.2734375 283.125 C-44.4585544 286.76563235 -45.24931978 289.40482517 -46.4609375 292.8125 C-46.4609375 294.1325 -46.4609375 295.4525 -46.4609375 296.8125 C-45.58050781 297.04324219 -44.70007813 297.27398438 -43.79296875 297.51171875 C-31.48971085 300.96646265 -31.48971085 300.96646265 -28.4609375 305.8125 C-27.20410561 309.76919298 -26.25978376 313.74033249 -25.4609375 317.8125 C-22.37520319 318.80026302 -22.37520319 318.80026302 -19.3359375 317.875 C-15.03793217 316.28660673 -10.98911223 316.23009811 -6.4609375 316.8125 C-1.57746784 319.20816436 1.27480485 322.58816657 4.5390625 326.8125 C7.7247654 325.41919258 9.73728467 323.78353262 12.1015625 321.25 C14.86759664 318.28683202 16.65956909 316.94948003 20.84375 316.64453125 C25.5813024 316.60853161 29.19896319 316.70820942 33.5390625 318.8125 C34.5290625 318.8125 35.5190625 318.8125 36.5390625 318.8125 C36.76980469 317.93207031 37.00054688 317.05164063 37.23828125 316.14453125 C40.55324977 304.33905047 40.55324977 304.33905047 45.5390625 300.8125 C49.60993443 298.72205225 54.10605653 297.86439972 58.5390625 296.8125 C58.01637784 294.04973823 57.43036663 291.4864124 56.5390625 288.8125 C56.03464011 283.5450072 55.8673966 279.18070832 58.2265625 274.375 C60.49811862 271.85787025 62.79258155 269.79606957 65.5390625 267.8125 C65.49453831 265.48358098 65.49453831 265.48358098 64.5390625 262.8125 C62.57720834 261.10109531 60.57603867 259.43376675 58.5390625 257.8125 C55.46035858 252.96430844 55.86781014 247.08196195 56.9921875 241.60546875 C57.45252113 239.99101293 57.98754157 238.39812268 58.5390625 236.8125 C55.93058091 234.20401841 53.72362779 233.97438864 50.1640625 233.0625 C43.89828963 231.17172713 43.89828963 231.17172713 40.9140625 228.1875 C39.40275844 224.47793548 38.28447141 220.77944757 37.34765625 216.88671875 C37.08082031 216.20222656 36.81398438 215.51773438 36.5390625 214.8125 C33.59467935 213.48832691 33.59467935 213.48832691 30.9140625 214.75 C26.10719583 216.26327284 21.42644944 216.82683154 16.58203125 215.125 C12.17252863 212.81937771 9.60306745 209.66439194 6.5390625 205.8125 C5.8790625 205.8125 5.2190625 205.8125 4.5390625 205.8125 Z M-196.2109375 291.5 C-202.6942158 299.33524154 -206.94068688 308.6568152 -206.79296875 318.8359375 C-205.87914908 327.02806204 -201.26810263 332.88177692 -195.05078125 337.9921875 C-183.25380074 346.28388119 -170.74446035 349.68576968 -156.44921875 347.3125 C-134.04486245 342.15803371 -109.71985236 328.04130576 -93.4609375 311.8125 C-92.88859375 311.25175781 -92.31625 310.69101562 -91.7265625 310.11328125 C-87.12885509 305.21932981 -83.67429897 299.13392925 -81.4609375 292.8125 C-81.59511762 289.7487206 -81.91858596 288.38731149 -84.02734375 286.15234375 C-99.67036998 275.16242904 -116.4463966 272.62309973 -135.28466797 272.57226562 C-137.42846798 272.5626457 -139.57127113 272.53158845 -141.71484375 272.5 C-161.75949758 272.34620249 -181.8730008 276.37771228 -196.2109375 291.5 Z M112.5390625 276.8125 C111.54648437 277.11285156 110.55390625 277.41320312 109.53125 277.72265625 C103.65287314 279.74938021 98.33216983 282.77894406 94.5390625 287.8125 C93.17567759 292.01206216 94.28306724 295.73601107 95.9765625 299.6875 C108.91979878 322.93063558 140.76454048 339.72423398 165.5390625 346.8125 C179.03124008 350.02393021 192.83364356 346.96581158 204.5390625 339.8125 C211.09175408 335.30752454 214.97993455 329.71031987 217.9140625 322.375 C219.47239407 313.49251004 216.82670146 305.62394675 212.5390625 297.8125 C202.76900368 284.58104892 189.63441561 276.76431197 173.5390625 273.8125 C165.09044536 272.584703 156.62280687 272.52815186 148.1015625 272.5 C147.34472168 272.49738159 146.58788086 272.49476318 145.80810547 272.49206543 C134.25959638 272.48778277 123.58979369 273.19156881 112.5390625 276.8125 Z M-137.4609375 358.8125 C-138.13382813 359.32039063 -138.80671875 359.82828125 -139.5 360.3515625 C-149.45344927 368.20031765 -154.49762772 379.48218063 -156.4609375 391.8125 C-157.11760637 401.83477406 -157.68030837 411.85720915 -150.66015625 419.8671875 C-142.49528508 427.50887275 -133.80189891 429.13825384 -122.87109375 429.02734375 C-110.42051138 428.2429428 -98.66914523 422.67265492 -90.3359375 413.4375 C-89.03425444 411.90428113 -87.74398914 410.36134388 -86.4609375 408.8125 C-85.62175781 407.81089844 -84.78257812 406.80929687 -83.91796875 405.77734375 C-68.86349342 387.4563567 -53.92281074 362.41660897 -55.13671875 337.76171875 C-55.77122188 333.94705533 -57.42258381 331.76277905 -60.2109375 329.2109375 C-81.16549105 316.1871004 -122.32952963 346.73601359 -137.4609375 358.8125 Z M69.5390625 330.8125 C65.906848 335.86458017 67.07554153 342.93927859 67.5390625 348.8125 C72.0417372 374.29170716 88.55970104 404.04664246 109.22265625 419.8671875 C121.29322902 427.93655792 134.88001509 430.77788228 149.2734375 428.3515625 C155.36200646 426.56698194 160.26280855 423.24822081 163.7890625 417.92578125 C169.70252854 406.8597731 170.03128616 394.67419306 166.61328125 382.734375 C158.68997636 361.1829857 135.57104127 346.31652737 115.81542969 336.82617188 C109.27533304 333.91385085 102.41896993 331.76564887 95.5390625 329.8125 C94.85626221 329.61744873 94.17346191 329.42239746 93.4699707 329.22143555 C89.20685702 328.07314442 85.26150068 327.51595876 80.8515625 327.5 C79.77519531 327.48324219 78.69882812 327.46648437 77.58984375 327.44921875 C74.11279907 327.86325864 72.29576101 328.67376543 69.5390625 330.8125 Z M-47.0859375 372.9375 C-52.21238826 379.51174059 -56.40112675 386.54915372 -60.4609375 393.8125 C-60.88584473 394.56660156 -61.31075195 395.32070313 -61.74853516 396.09765625 C-71.00758255 412.65822131 -78.79787958 428.79890644 -74.76171875 448.16796875 C-71.47276742 458.89522352 -66.20205106 470.19258143 -56.26171875 476.125 C-48.88158459 479.73362248 -42.82851076 479.36488365 -35.13671875 476.84375 C-22.68744439 472.04578149 -14.18308926 464.90572536 -8.0859375 453.0625 C-7.76407471 452.44391113 -7.44221191 451.82532227 -7.1105957 451.18798828 C-1.13626364 438.74633511 -0.95601463 426.00099541 -1.01489258 412.48461914 C-1.02339246 409.51573011 -0.9945692 406.54877788 -0.96289062 403.58007812 C-0.90132234 387.01976246 -2.46554149 368.61056499 -14.0234375 355.5625 C-24.56775204 347.99222289 -40.89438012 365.70145381 -47.0859375 372.9375 Z M24.96630859 357.29248047 C22.67955325 359.72787882 21.3109206 362.38484669 19.8515625 365.375 C19.29082031 366.49003906 18.73007812 367.60507812 18.15234375 368.75390625 C13.62355003 379.45224219 12.98432665 390.10675108 12.77563477 401.55639648 C12.72683522 404.11072516 12.65107464 406.66323755 12.57226562 409.21679688 C12.04302672 429.65182093 14.75690296 446.95444065 26.7890625 464 C35.10132535 472.50117791 45.89136156 477.98099029 57.7890625 479.125 C65.71296049 478.46467517 70.97550058 474.21499744 76.359375 468.5703125 C83.81540655 459.13669552 88.82165188 446.96656125 87.5390625 434.8125 C83.87294471 410.75167653 71.89242379 390.99647305 57.5390625 371.8125 C56.90097656 370.95398438 56.26289062 370.09546875 55.60546875 369.2109375 C50.00519463 362.25424208 41.7377552 357.21195795 33.5390625 353.8125 C29.22921279 353.8125 28.0902316 354.49656446 24.96630859 357.29248047 Z " fill="#A0968A" transform="translate(909.4609375,385.1875)"/>
<path d="M0 0 C19.47 0 38.94 0 59 0 C61.92875 7.775625 64.8575 15.55125 67.875 23.5625 C76.50346722 46.44709826 85.21446145 69.29904505 93.98257446 92.13047791 C97.67378463 101.7465079 101.33820342 111.37273792 105 121 C107.09053631 118.90946369 107.67491752 117.6423158 108.71728516 114.92553711 C109.211054 113.65051331 109.211054 113.65051331 109.71479797 112.34973145 C110.24655891 110.95264954 110.24655891 110.95264954 110.7890625 109.52734375 C111.16479904 108.55317505 111.54053558 107.57900635 111.92765808 106.57531738 C113.1649376 103.36454815 114.39490779 100.15102885 115.625 96.9375 C116.47946865 94.71664993 117.33453584 92.49603006 118.19018555 90.27563477 C119.50144108 86.87284845 120.81234473 83.46993213 122.12132263 80.06626892 C126.63272541 68.33806684 131.20796101 56.63507638 135.79302979 44.93551636 C137.592528 40.34255142 139.38465486 35.74686429 141.16558838 31.14666748 C141.99441688 29.01436354 142.83379977 26.8864057 143.67333984 24.75830078 C144.20334607 23.39246458 144.73282992 22.02642553 145.26171875 20.66015625 C145.71893311 19.49234619 146.17614746 18.32453613 146.6472168 17.12133789 C148.48370208 11.52637161 149.67587864 5.73785923 151 0 C169.48 0 187.96 0 207 0 C207 2.97 207 5.94 207 9 C205.81921875 9.24234375 204.6384375 9.4846875 203.421875 9.734375 C201.86441417 10.07213759 200.30713153 10.41072256 198.75 10.75 C197.97269531 10.90726563 197.19539062 11.06453125 196.39453125 11.2265625 C191.85136253 12.23615555 188.89240118 13.09376748 186 17 C184.99731797 20.00804609 184.87196805 22.0052061 184.86628723 25.14852905 C184.86202225 26.21402481 184.85775726 27.27952057 184.85336304 28.37730408 C184.85381622 29.54620682 184.85426941 30.71510956 184.85473633 31.91943359 C184.85137772 33.15054367 184.8480191 34.38165375 184.84455872 35.65007019 C184.83667841 39.02823853 184.83338066 42.40634541 184.83274293 45.78451872 C184.83179336 48.60504824 184.82811447 51.42557186 184.82457083 54.24609911 C184.81642676 60.9013738 184.81398654 67.55663496 184.81469727 74.21191406 C184.81529793 81.07550388 184.80474825 87.93901508 184.7889536 94.80258501 C184.77587399 100.69652151 184.77051355 106.59043232 184.77115268 112.48438323 C184.77140756 116.00400469 184.76856188 119.5235563 184.75797462 123.0431633 C184.74648682 126.96939917 184.75104307 130.8955274 184.75708008 134.82177734 C184.75146057 135.98663162 184.74584106 137.1514859 184.74005127 138.35163879 C184.74424576 139.4227742 184.74844025 140.49390961 184.75276184 141.59750366 C184.75221707 142.52553991 184.75167231 143.45357616 184.75111103 144.40973473 C185.08556697 147.89052217 185.79099504 150.97389579 188.5234375 153.29296875 C194.47855206 156.17001777 200.4675729 157.17255923 207 158 C207 161.3 207 164.6 207 168 C182.25 168 157.5 168 132 168 C132 164.7 132 161.4 132 158 C133.15757812 157.90203125 134.31515625 157.8040625 135.5078125 157.703125 C137.04696119 157.55296415 138.58601932 157.40187309 140.125 157.25 C140.88554687 157.188125 141.64609375 157.12625 142.4296875 157.0625 C147.59072425 156.52859965 150.87953892 155.38153341 155 152 C157.19634053 148.70548921 157.24823757 147.75347961 157.24050903 143.93171692 C157.24325836 142.88423782 157.24600769 141.83675873 157.24884033 140.75753784 C157.24164978 139.60883209 157.23445923 138.46012634 157.22705078 137.27661133 C157.22734283 136.0667305 157.22763489 134.85684967 157.22793579 133.61030579 C157.22678035 130.29231005 157.21674297 126.97456252 157.20278788 123.65661073 C157.19029393 120.1892687 157.18911107 116.72192344 157.18673706 113.25456238 C157.18051836 106.68851001 157.16410228 100.12252416 157.14403808 93.55650109 C157.12169121 86.0813715 157.11068871 78.60623875 157.10064721 71.13108408 C157.07973637 55.75401752 157.04455283 40.37701733 157 25 C156.79037282 25.52710571 156.58074564 26.05421143 156.36476612 26.59729004 C151.19587423 39.59418469 146.02564862 52.59054815 140.85404682 65.58636475 C138.35284025 71.87178218 135.8520693 78.15737218 133.35229492 84.44335938 C111.83126121 138.55898577 111.83126121 138.55898577 101 165 C98.69 165 96.38 165 94 165 C90.88099565 158.23642491 88.17602785 151.36105958 85.578125 144.3828125 C85.16105286 143.26918839 84.74398071 142.15556427 84.31427002 141.00819397 C82.95681075 137.38146686 81.60333597 133.75326754 80.25 130.125 C79.30453049 127.59527417 78.35827906 125.06584097 77.41210938 122.53637695 C74.60361076 115.02591385 71.80119794 107.51318893 69 100 C68.60288818 98.93517395 68.20577637 97.8703479 67.79663086 96.77325439 C63.26048741 84.60927385 58.73396992 72.44173529 54.21484375 60.27142334 C52.69031585 56.16605906 51.16547885 52.06080963 49.640625 47.95556641 C49.04097481 46.34117131 48.44132474 44.72677617 47.8416748 43.11238098 C47.3933152 41.90529449 47.3933152 41.90529449 46.93589783 40.6738224 C45.48392322 36.76473889 44.03199798 32.85563705 42.58007812 28.9465332 C42.31952637 28.24503206 42.05897461 27.54353092 41.79052734 26.82077217 C41.19368399 25.21384845 40.59684185 23.60692428 40 22 C39.95311631 36.00456978 39.9180647 50.00912725 39.89637566 64.01375961 C39.88596312 70.51750165 39.87185025 77.02119076 39.84912109 83.52490234 C39.82730237 89.80781826 39.81541236 96.09068344 39.81024551 102.37363434 C39.80656593 104.76405892 39.79938084 107.1544809 39.78853989 109.54488373 C39.77390494 112.90726097 39.77202706 116.26943169 39.77294922 119.63183594 C39.76575867 120.60792313 39.75856812 121.58401031 39.75115967 122.5896759 C39.77688134 131.32444636 39.97485928 141.55534708 45 149 C48.61822119 152.32259388 51.79619978 153.84120204 56.5 155.1875 C58.15515625 155.67283203 58.15515625 155.67283203 59.84375 156.16796875 C62.55423964 156.88249139 65.24462261 157.49107768 68 158 C68 161.3 68 164.6 68 168 C45.23 168 22.46 168 -1 168 C-1 164.7 -1 161.4 -1 158 C0.00160156 157.82984375 1.00320312 157.6596875 2.03515625 157.484375 C12.15494336 155.84428847 12.15494336 155.84428847 21 151 C28.48220411 138.50773566 26.29794456 119.78741442 26.265625 105.69140625 C26.26697627 103.58731542 26.26892063 101.4832249 26.27142334 99.37913513 C26.27434834 95.00313295 26.27015933 90.6272132 26.26074219 86.2512207 C26.2492995 80.66442913 26.25595422 75.07782877 26.26788712 69.49104404 C26.27513477 65.15944492 26.2728053 60.82789073 26.26763153 56.49629021 C26.26630564 54.4363598 26.26790521 52.37642521 26.27259064 50.31649971 C26.27770953 47.43688334 26.26987306 44.55757232 26.25878906 41.67797852 C26.26283752 40.84296814 26.26688599 40.00795776 26.27105713 39.14764404 C26.21283091 30.91970723 25.63182951 22.39288755 20 16 C14.00463982 11.53537008 7.23653449 10.43642489 0 9 C0 6.03 0 3.06 0 0 Z " fill="#A0968A" transform="translate(235,1051)"/>
<path d="M0 0 C11.45814072 -0.09320201 22.91618938 -0.16401756 34.37463379 -0.20724869 C39.69683341 -0.22801076 45.01877128 -0.25611734 50.34082031 -0.30175781 C55.48910041 -0.3456254 60.63713074 -0.36922237 65.7855835 -0.37950897 C67.73732426 -0.38682765 69.68905334 -0.40111626 71.64068604 -0.42292023 C89.83664464 -0.61788816 108.24657872 1.03722467 122.24609375 14.046875 C128.93723836 21.49803826 131.38919982 30.47824868 131.3125 40.3125 C131.30512817 41.43289673 131.30512817 41.43289673 131.29760742 42.57592773 C131.03900602 54.80976335 126.42788481 64.47829179 117.640625 72.98046875 C110.06460966 78.77455148 100.73548239 82.30815114 92 86 C92.77601562 87.00675781 93.55203125 88.01351563 94.3515625 89.05078125 C100.28771261 96.77158937 106.16766794 104.52894281 111.9375 112.375 C112.51266357 113.15697754 113.08782715 113.93895508 113.68041992 114.74462891 C116.7120115 118.87183944 119.73389578 123.00599198 122.75 127.14453125 C123.3675415 127.98902832 123.98508301 128.83352539 124.62133789 129.70361328 C125.79040929 131.3025019 126.95650551 132.90357237 128.11889648 134.50732422 C138.29618235 148.41195514 146.56036872 155.13527671 164 158 C164 161.3 164 164.6 164 168 C123.25361222 172.43444813 123.25361222 172.43444813 114.23193359 165.60791016 C108.18315128 159.83927527 104.7156976 151.90375708 101.48486328 144.32421875 C99.54483578 139.9810069 97.06522504 136.30999172 94.25 132.5 C93.40013717 131.27626908 92.55247441 130.05100727 91.70703125 128.82421875 C87.36024428 122.64324788 82.88096684 116.56062952 78.33203125 110.52734375 C75.83705766 107.20094676 73.55708589 103.8235107 71.44799805 100.24047852 C68.13289213 95.28574045 68.13289213 95.28574045 63.08616638 92.47663879 C60.93688763 92.24973634 58.84062676 92.17204001 56.6796875 92.1640625 C55.93968506 92.14061768 55.19968262 92.11717285 54.43725586 92.09301758 C52.62537977 92.0389099 50.81261086 92.01626258 49 92 C49.06129759 99.34576629 49.13846539 106.69118677 49.23571491 114.03657055 C49.28038071 117.44761464 49.31964467 120.85854036 49.34643555 124.26977539 C49.37749806 128.19443149 49.43228618 132.11858601 49.48828125 136.04296875 C49.49467117 137.26396774 49.5010611 138.48496674 49.50764465 139.7429657 C49.53733589 141.45417351 49.53733589 141.45417351 49.56762695 143.19995117 C49.58428154 144.7021949 49.58428154 144.7021949 49.60127258 146.23478699 C50.06628516 149.45969397 51.11944285 151.36252537 53 154 C56.44547675 156.51298534 60.61989214 156.64874938 64.75 157.125 C65.44738281 157.21136719 66.14476562 157.29773437 66.86328125 157.38671875 C68.57472332 157.59771846 70.28726629 157.79975501 72 158 C72 161.3 72 164.6 72 168 C48.24 168 24.48 168 0 168 C0 164.7 0 161.4 0 158 C1.02480469 157.89042969 2.04960938 157.78085938 3.10546875 157.66796875 C4.46621867 157.50843255 5.82689194 157.3482416 7.1875 157.1875 C7.86103516 157.11724609 8.53457031 157.04699219 9.22851562 156.97460938 C13.48519311 156.45550236 16.64797769 155.72696514 20 153 C21.7584476 149.42743148 22.2519724 146.53835037 22.26069641 142.57972717 C22.27132362 140.96690605 22.27132362 140.96690605 22.28216553 139.32150269 C22.27968811 138.1520108 22.27721069 136.98251892 22.2746582 135.77758789 C22.27976913 134.53803848 22.28488007 133.29848907 22.29014587 132.02137756 C22.30165391 128.62873629 22.30411715 125.23633956 22.30158257 121.84369588 C22.30051135 119.00824193 22.3054001 116.17281041 22.310188 113.33736128 C22.32127521 106.64652124 22.32172497 99.95573735 22.31567383 93.26489258 C22.30963339 86.36942407 22.32194849 79.47415958 22.3432439 72.57872587 C22.3608737 66.65160323 22.3668591 60.72454545 22.36360615 54.79739755 C22.3617954 51.2604193 22.36440863 47.7235866 22.37832069 44.18663216 C22.39325788 40.2416092 22.3839168 36.29684509 22.37231445 32.35180664 C22.37995819 31.18433899 22.38760193 30.01687134 22.39547729 28.81402588 C22.34539578 20.98953642 22.34539578 20.98953642 19 14 C17.13394906 12.73077628 17.13394906 12.73077628 14.9375 12.25 C14.15375 12.03214844 13.37 11.81429688 12.5625 11.58984375 C8.39098133 10.62963137 4.21497169 9.74795949 0 9 C0 6.03 0 3.06 0 0 Z M49 10 C49 33.43 49 56.86 49 81 C72.42780561 81.35169017 72.42780561 81.35169017 90.9765625 70.1484375 C99.34676519 61.20834867 101.42146421 51.78158496 101.2109375 39.83203125 C100.73553514 31.1955551 98.14720835 24.20246416 92 18 C79.29621925 8.03475881 64.80168314 10 49 10 Z " fill="#A0968A" transform="translate(1161,1051)"/>
<path d="M0 0 C6.81323359 -0.27307932 13.62324866 -0.47204355 20.44067383 -0.60424805 C22.75634267 -0.65937917 25.07163179 -0.73431054 27.38598633 -0.82983398 C47.68066238 -1.64616103 47.68066238 -1.64616103 52.40991211 2.26904297 C54.7215961 5.07381935 56.37853773 7.75623518 58 11 C58.83340925 12.1741517 59.68740006 13.3343974 60.57421875 14.46875 C61.27160156 15.4690625 61.96898437 16.469375 62.6875 17.5 C66.63950433 23.11446818 70.67053448 28.66494676 74.75 34.1875 C75.34256592 34.98994141 75.93513184 35.79238281 76.5456543 36.61914062 C77.75867825 38.26110709 78.97197755 39.90287017 80.18554688 41.54443359 C83.12794685 45.52649212 86.0637044 49.51343938 89 53.5 C90.16663334 55.08335789 91.33330004 56.6666912 92.5 58.25 C113.5 86.75 113.5 86.75 115.25268555 89.12866211 C116.41037815 90.6998048 117.56809271 92.27093131 118.72583008 93.84204102 C121.7799874 97.98675346 124.83367646 102.13180988 127.88671875 106.27734375 C128.52287109 107.14101562 129.15902344 108.0046875 129.81445312 108.89453125 C131.03334382 110.54937555 132.25210088 112.20431828 133.47070312 113.859375 C134.02048828 114.60574219 134.57027344 115.35210938 135.13671875 116.12109375 C135.61842529 116.7752124 136.10013184 117.42933105 136.59643555 118.10327148 C138.05574916 120.07533749 139.52723714 122.03796576 141 124 C141.04657243 113.15918495 141.08199477 102.31839415 141.10362434 91.47749901 C141.11401134 86.44231987 141.12807641 81.40720975 141.15087891 76.37207031 C141.17279018 71.50262408 141.18460674 66.63324376 141.18975449 61.76375198 C141.19341771 59.91644886 141.20056987 58.06914889 141.21146011 56.22187424 C142.22786949 35.4998398 142.22786949 35.4998398 135 17 C128.87872882 12.03338721 119.49638119 10.83505165 112 9 C112 6.03 112 3.06 112 0 C134.77 0 157.54 0 181 0 C181 2.97 181 5.94 181 9 C179.98679687 9.25394531 178.97359375 9.50789063 177.9296875 9.76953125 C176.57803342 10.11683126 175.22647599 10.46450759 173.875 10.8125 C173.20984375 10.97814453 172.5446875 11.14378906 171.859375 11.31445312 C163.94916534 13.20301145 163.94916534 13.20301145 158.40451622 18.70160484 C154.32327178 28.28608432 154.69972802 39.53690333 154.68115234 49.79833984 C154.67110672 51.0976091 154.6610611 52.39687836 154.65071106 53.73551941 C154.62375698 57.24902905 154.60836632 60.76249945 154.59528303 64.27608442 C154.57949845 67.96629739 154.55275842 71.65643187 154.5272522 75.34658813 C154.48073261 82.31241277 154.44386003 89.27825261 154.41057932 96.24415171 C154.37216667 104.18391473 154.32280765 112.12359838 154.27259517 120.06329417 C154.16967496 136.37547219 154.0802867 152.68769453 154 169 C152.07891098 169.09448499 150.15648148 169.16198321 148.23388672 169.21801758 C147.16355194 169.25848709 146.09321716 169.2989566 144.990448 169.34065247 C141.48555997 168.94139832 140.4939214 168.16417483 138.2578125 165.51171875 C137.1732631 163.93053164 136.13074712 162.31994382 135.125 160.6875 C133.94117868 158.93026522 132.75625172 157.17377487 131.5703125 155.41796875 C130.98024414 154.51481934 130.39017578 153.61166992 129.78222656 152.68115234 C127.00728352 148.50657365 124.00209827 144.51259338 121 140.5 C119.83073627 138.91631987 118.66276997 137.33168102 117.49609375 135.74609375 C116.91843262 134.96218262 116.34077148 134.17827148 115.74560547 133.37060547 C114.00728393 131.00989188 112.27096552 128.64771753 110.53515625 126.28515625 C104.56256696 118.16028254 98.55912726 110.06059382 92.5 102 C85.26891297 92.38032164 78.12504253 82.69836274 71 73 C68.62609398 69.77002735 66.25110237 66.54085726 63.875 63.3125 C63.30168945 62.53326172 62.72837891 61.75402344 62.13769531 60.95117188 C57.68058944 54.90206169 53.17958053 48.88676269 48.64208984 42.89770508 C45.10670778 38.21341556 45.10670778 38.21341556 44 36 C43.95356139 48.47450619 43.91807231 60.94899164 43.89637566 73.42356682 C43.88595985 79.21665384 43.87184095 85.00968151 43.84912109 90.80273438 C43.82731409 96.39835312 43.81541481 101.99391493 43.81024551 107.58957291 C43.80656384 109.71928935 43.79937459 111.84900285 43.78853989 113.97869492 C43.77392052 116.97268033 43.77202641 119.96643358 43.77294922 122.96044922 C43.76575867 123.8315181 43.75856812 124.70258698 43.75115967 125.60005188 C43.77902042 134.01017299 44.90995484 141.56355425 49 149 C49 149.66 49 150.32 49 151 C52.93106841 152.66028079 56.89572415 153.89932699 61 155.0625 C62.19625 155.40410156 63.3925 155.74570313 64.625 156.09765625 C67.41056088 156.8424069 70.16574252 157.47931255 73 158 C73 161.3 73 164.6 73 168 C49.9 168 26.8 168 3 168 C3 164.7 3 161.4 3 158 C4.08539062 157.75765625 5.17078125 157.5153125 6.2890625 157.265625 C7.73452507 156.92772466 9.17982939 156.58914687 10.625 156.25 C11.33785156 156.09273437 12.05070313 155.93546875 12.78515625 155.7734375 C18.674538 154.36863084 23.45618424 152.4488112 26.8125 147.125 C29.24206202 140.73141573 29.1581691 134.40177453 29.17700195 127.65527344 C29.18357315 126.62682816 29.19014435 125.59838287 29.19691467 124.53877258 C29.21657594 121.14563923 29.22829357 117.75254996 29.23828125 114.359375 C29.24235678 113.19687477 29.2464323 112.03437454 29.25063133 110.83664703 C29.27146029 104.6848824 29.28577642 98.53313988 29.29516602 92.38134766 C29.30623095 86.04195467 29.34064144 79.70291261 29.38033772 73.36364365 C29.40652992 68.47529464 29.41486014 63.58702903 29.41844749 58.69861603 C29.4233057 56.36234412 29.4348977 54.02607575 29.45348549 51.68987274 C29.47793435 48.41373625 29.47690117 45.13850522 29.4699707 41.86230469 C29.48278076 40.90715469 29.49559082 39.9520047 29.50878906 38.96791077 C29.44882011 31.14868126 27.78703706 24.13541669 22.5 18.1875 C16.00571542 13.52747901 7.69400993 10.92350248 0 9 C0 6.03 0 3.06 0 0 Z " fill="#A0968A" transform="translate(620,1051)"/>
<path d="M0 0 C10.90206022 -0.09334191 21.80402288 -0.16408684 32.70640373 -0.20724869 C37.77072298 -0.22798101 42.83476564 -0.25603083 47.89892578 -0.30175781 C52.80082987 -0.34573457 57.70247065 -0.36924451 62.60455704 -0.37950897 C64.45974997 -0.38680859 66.31493114 -0.40105777 68.17000961 -0.42292023 C94.58178933 -0.72135077 118.98465027 6.10871853 138.65625 24.56640625 C156.12558525 42.70539935 160.66128945 63.69501788 160.46850586 88.03955078 C159.94733627 109.6565225 152.65252149 128.7747971 137 144 C114.74170168 163.99841545 86.44914796 168.3851471 57.59375 168.1953125 C55.8902605 168.19156991 54.18676881 168.18872885 52.48327637 168.18673706 C48.05781832 168.17919853 43.63249722 168.15963751 39.20709229 168.1373291 C34.66802827 168.11665652 30.12894154 168.10769016 25.58984375 168.09765625 C16.72650053 168.07637957 7.86326743 168.04236615 -1 168 C-1 164.7 -1 161.4 -1 158 C0.09699219 157.91363281 1.19398438 157.82726563 2.32421875 157.73828125 C3.77875906 157.59751928 5.23318067 157.45552705 6.6875 157.3125 C7.40873047 157.25900391 8.12996094 157.20550781 8.87304688 157.15039062 C12.97405065 156.7196916 14.67583798 156.26934995 17.95703125 153.54296875 C20.78741494 150.01987165 21.12630623 148.38020664 21.14044189 143.94049072 C21.14615204 142.86940063 21.15186218 141.79831055 21.15774536 140.69476318 C21.15886322 139.51448547 21.15998108 138.33420776 21.16113281 137.11816406 C21.16609772 135.87905273 21.17106262 134.63994141 21.17617798 133.36328125 C21.1883011 129.95813098 21.19574886 126.55304225 21.20018864 123.14787769 C21.20311882 121.02010902 21.20722359 118.89234574 21.21169281 116.76457977 C21.2253717 110.10639287 21.23503568 103.4482183 21.2388947 96.79001832 C21.2433726 89.106192 21.26090623 81.42254383 21.2898953 73.73877168 C21.31152586 67.79898027 21.32159976 61.85923893 21.32293582 55.91940856 C21.32398313 52.37231207 21.3298747 48.82538294 21.34775543 45.27832794 C21.36732708 41.31863182 21.36294163 37.35915738 21.35644531 33.39941406 C21.3656601 32.22723328 21.37487488 31.05505249 21.3843689 29.84735107 C21.34536589 22.00642861 21.34536589 22.00642861 18 15 C12.84259201 11.31317823 6.11750035 10.16523816 0 9 C0 6.03 0 3.06 0 0 Z M54.75 10.51171875 C52.85507812 10.64839966 52.85507812 10.64839966 50.921875 10.7878418 C49.95765625 10.857854 48.9934375 10.92786621 48 11 C47.90645561 28.20284196 47.83597143 45.40560427 47.79275131 62.60864258 C47.77214783 70.59676631 47.74406981 78.58473177 47.69824219 86.57275391 C47.65830634 93.53714005 47.63255109 100.50141154 47.62364602 107.465909 C47.61844262 111.15178437 47.60625956 114.8373318 47.57707977 118.52310181 C47.54472803 122.64315179 47.5440449 126.76263583 47.54589844 130.8828125 C47.53151733 132.09769852 47.51713623 133.31258453 47.50231934 134.56428528 C47.53615489 141.51814216 48.23208862 146.09651792 52 152 C53.84703095 153.68519181 53.84703095 153.68519181 55.9375 154.4375 C56.58589844 154.72496094 57.23429688 155.01242187 57.90234375 155.30859375 C71.50053075 159.79067773 87.66335704 157.39115688 100.35546875 151.421875 C114.9010349 143.39922733 122.75677732 130.89234236 127.4777832 115.25317383 C134.49729125 89.63181573 132.18802741 61.24930737 119.00390625 38.0703125 C110.56437945 25.13957553 98.69020103 16.61434535 84 12 C74.02427124 9.91584339 64.83119924 9.78246533 54.75 10.51171875 Z " fill="#A0968A" transform="translate(816,1051)"/>
<path d="M0 0 C6.88186883 -0.44844258 13.75509805 -0.77298568 20.64819336 -0.98876953 C22.98596336 -1.07875199 25.32273514 -1.20120958 27.65698242 -1.35791016 C46.46847422 -2.58815519 46.46847422 -2.58815519 52.27835083 1.66973877 C56.30498616 5.88129996 59.13797476 10.701626 61.83602905 15.83685303 C63.29072041 18.54028065 65.03166776 20.92775518 66.91015625 23.3515625 C67.43802734 24.06828125 67.96589844 24.785 68.50976562 25.5234375 C69.27836914 26.56371094 69.27836914 26.56371094 70.0625 27.625 C70.64064453 28.40875 71.21878906 29.1925 71.81445312 30 C76.00332534 35.6708062 80.22771722 41.31424473 84.46557617 46.94848633 C90.10306257 54.45180308 95.65864616 62.01521478 101.21777344 69.57666016 C103.56156481 72.76357429 105.90830731 75.94830797 108.25537109 79.1328125 C109.41737687 80.70947189 110.57916116 82.28629453 111.74072266 83.86328125 C114.70417604 87.88647419 117.67018428 91.90774392 120.640625 95.92578125 C121.24519531 96.74433594 121.84976562 97.56289062 122.47265625 98.40625 C123.59937029 99.93164747 124.72687797 101.4564593 125.85546875 102.98046875 C129.35649828 107.72269457 132.79896472 112.50460214 136.22167969 117.3034668 C136.68263031 117.94929466 137.14358093 118.59512253 137.61849976 119.26052094 C138.74590559 120.84017668 139.87298605 122.42006464 141 124 C141.0465105 112.73349133 141.08196382 101.46700581 141.10362434 90.20042038 C141.11402463 84.96788878 141.12811467 79.73542327 141.15087891 74.50292969 C141.17274192 69.4454611 141.18459681 64.38805575 141.18975449 59.33054352 C141.19342622 57.40901953 141.20059563 55.48749867 141.21146011 53.56600189 C142.0377062 34.97504287 142.0377062 34.97504287 136 18 C131.30605913 14.35394196 126.76031395 12.76866935 121.125 11.25 C120.34125 11.02957031 119.5575 10.80914063 118.75 10.58203125 C116.83597707 10.04517116 114.91833548 9.52124038 113 9 C113 6.03 113 3.06 113 0 C135.44 0 157.88 0 181 0 C181 2.97 181 5.94 181 9 C179.83082031 9.31453125 178.66164063 9.6290625 177.45703125 9.953125 C175.90867848 10.38478698 174.36051097 10.81711386 172.8125 11.25 C172.04357422 11.45496094 171.27464844 11.65992188 170.48242188 11.87109375 C165.88077412 13.17456479 162.42311355 14.48594984 159 18 C157.8125118 20.16142756 157.8125118 20.16142756 157.25 22.5625 C157.02828125 23.32691406 156.8065625 24.09132813 156.578125 24.87890625 C154.90776755 33.89657924 154.83942475 43.03894925 154.79467773 52.18237305 C154.78477814 53.45194351 154.77487854 54.72151398 154.76467896 56.02955627 C154.7379149 59.47505667 154.71675325 62.92057036 154.69667697 66.36611533 C154.6746391 69.98025091 154.64733846 73.59434685 154.62062073 77.20845032 C154.57093228 84.03626068 154.52590615 90.86409332 154.48259836 97.6919468 C154.43302065 105.47200751 154.37817944 113.2520284 154.32291877 121.03205049 C154.20946538 137.02133011 154.10254821 153.01064649 154 169 C152.0616754 169.06755706 150.12267794 169.11601706 148.18359375 169.15625 C147.10392334 169.18525391 146.02425293 169.21425781 144.91186523 169.24414062 C142 169 142 169 139.0625 166.5 C138.33384446 165.35858489 137.64789194 164.18911875 137 163 C136.18543219 161.69985003 135.36759064 160.40174669 134.546875 159.10546875 C134.13373047 158.42661621 133.72058594 157.74776367 133.29492188 157.04833984 C131.147602 153.6516555 128.69400302 150.49881797 126.25 147.3125 C125.23029163 145.96205316 124.21209448 144.61046406 123.1953125 143.2578125 C122.67485352 142.5659082 122.15439453 141.87400391 121.61816406 141.16113281 C118.76610946 137.35208222 115.94532724 133.52007146 113.125 129.6875 C112.54153809 128.89472656 111.95807617 128.10195312 111.35693359 127.28515625 C108.97343472 124.04522037 106.59123772 120.8043283 104.20898438 117.56347656 C98.17122526 109.3514643 92.12710556 101.14566232 86 93 C79.87851567 84.86181081 73.84046465 76.66322639 67.80859375 68.45849609 C65.96806415 65.95658828 64.12506362 63.45651968 62.28125 60.95703125 C61.66878418 60.1266333 61.05631836 59.29623535 60.42529297 58.44067383 C59.27348544 56.87915771 58.12148567 55.31778337 56.96923828 53.7565918 C53.89483215 49.58670228 50.83659391 45.40549053 47.79052734 41.21484375 C47.07826996 40.23507568 46.36601257 39.25530762 45.63217163 38.24584961 C45.09355499 37.50471924 44.55493835 36.76358887 44 36 C43.95353666 48.32685144 43.91805985 60.65368184 43.89637566 72.98060322 C43.8859652 78.70528075 43.87185622 84.42989811 43.84912109 90.15454102 C43.82729483 95.68532587 43.8154108 101.21605305 43.81024551 106.74687767 C43.80656727 108.85064793 43.79938483 110.95441526 43.78853989 113.05816078 C42.71392708 133.36665454 42.71392708 133.36665454 51 151 C57.39464707 155.35209801 65.55851154 156.48179834 73 158 C73 161.3 73 164.6 73 168 C49.9 168 26.8 168 3 168 C3 164.7 3 161.4 3 158 C4.08539062 157.75765625 5.17078125 157.5153125 6.2890625 157.265625 C7.73452507 156.92772466 9.17982939 156.58914687 10.625 156.25 C11.33785156 156.09273437 12.05070312 155.93546875 12.78515625 155.7734375 C17.54863796 154.63719416 21.09051164 153.08985203 25 150 C32.63863775 137.35673751 30.17416307 118.76869291 30.203125 104.48828125 C30.20595238 103.53511709 30.20877975 102.58195293 30.21169281 101.59990501 C30.22655667 96.56749584 30.23586998 91.53511444 30.24023438 86.50268555 C30.2457386 81.34196632 30.26984455 76.18150825 30.29820633 71.02087116 C30.31691397 67.01345585 30.32204235 63.00610296 30.32357025 58.99864769 C30.32657267 57.09665671 30.33451834 55.19466618 30.34775543 53.29271889 C31.04801688 34.55251582 31.04801688 34.55251582 22.921875 18.45703125 C16.2656634 13.41075701 7.93786453 11.18578878 0 9 C0 6.03 0 3.06 0 0 Z " fill="#A0968A" transform="translate(1419,1051)"/>
<path d="M0 0 C3.3 0 6.6 0 10 0 C14.00303488 8.68320003 17.41572387 17.59100472 20.875 26.5 C21.57022036 28.28584316 22.26553573 30.07164935 22.9609375 31.85742188 C28.53095999 46.17287408 34.05930933 60.50442834 39.58682251 74.83633423 C42.38737757 82.09677941 45.18996518 89.35644049 47.99278259 96.61601257 C50.16234889 102.23600862 52.33031585 107.85660655 54.49365234 113.47900391 C56.37480583 118.36752871 58.26177355 123.25376585 60.15356445 128.13818359 C60.83616225 129.90375059 61.51654667 131.67017511 62.19458008 133.4375 C63.11742158 135.84212947 64.04793089 138.24364882 64.98046875 140.64453125 C65.24506393 141.33960281 65.50965912 142.03467438 65.78227234 142.75080872 C67.15195278 146.25122579 68.68105728 149.05501614 71 152 C71 152.66 71 153.32 71 154 C71.53625 154.268125 72.0725 154.53625 72.625 154.8125 C74.31740542 155.65870271 75.98213917 156.56122238 77.625 157.5 C82.03593722 159.46041654 86.24759894 160.16511873 91 161 C91 164.3 91 167.6 91 171 C67.57 171 44.14 171 20 171 C20 167.7 20 164.4 20 161 C21.18078125 160.79503906 22.3615625 160.59007812 23.578125 160.37890625 C25.13542997 160.10684695 26.6927209 159.83470732 28.25 159.5625 C29.41595703 159.36043945 29.41595703 159.36043945 30.60546875 159.15429688 C31.35957031 159.02216797 32.11367187 158.89003906 32.890625 158.75390625 C33.58188477 158.63345947 34.27314453 158.5130127 34.98535156 158.38891602 C37.01266117 157.99755584 39.00194515 157.51910249 41 157 C39.38201124 147.97817662 36.06889427 139.61790266 32.875 131.0625 C32.03007943 128.79054369 31.1868684 126.51799576 30.34744263 124.2440033 C29.82780481 122.83710847 29.30486909 121.43142636 28.77828979 120.02711487 C27 115.223894 27 115.223894 27 113 C-1.71 113.495 -1.71 113.495 -31 114 C-32.629375 118.785 -34.25875 123.57 -35.9375 128.5 C-36.45046631 129.99337891 -36.96343262 131.48675781 -37.49194336 133.02539062 C-37.89550049 134.22357422 -38.29905762 135.42175781 -38.71484375 136.65625 C-39.12855225 137.87119141 -39.54226074 139.08613281 -39.96850586 140.33789062 C-41.09425116 144.33461951 -41.72383431 147.85778675 -42 152 C-38.81804991 157.11384835 -34.29787129 158.10981297 -28.73828125 159.44140625 C-25.49307391 160.10341003 -22.29152149 160.63427539 -19 161 C-19 164.3 -19 167.6 -19 171 C-39.79 171 -60.58 171 -82 171 C-82 167.7 -82 164.4 -82 161 C-81.2265625 160.85304688 -80.453125 160.70609375 -79.65625 160.5546875 C-70.88610104 158.66606631 -64.64024945 156.16303008 -59.59765625 148.5390625 C-56.43465415 143.29678421 -54.17145207 137.7253834 -51.875 132.0625 C-51.36404342 130.81476646 -50.85305581 129.56704564 -50.34204102 128.31933594 C-42.81430263 109.84673729 -35.71579902 91.19922016 -28.54052734 72.58789062 C-24.69526352 62.61430141 -20.83970659 52.64470291 -16.97952271 42.67687988 C-15.78668829 39.59479638 -14.59623461 36.51180143 -13.40600586 33.42871094 C-9.07435232 22.2269143 -4.63140579 11.08136837 0 0 Z M-3 39 C-3.229151 39.60419769 -3.458302 40.20839539 -3.69439697 40.8309021 C-6.09450183 47.15867406 -8.49586988 53.4859656 -10.89794922 59.81298828 C-11.79247459 62.16963781 -12.68668526 64.52640682 -13.58056641 66.88330078 C-14.87057725 70.28449993 -16.16174512 73.68525796 -17.453125 77.0859375 C-17.84808167 78.12801361 -18.24303833 79.17008972 -18.64996338 80.2437439 C-20.78900181 85.87301612 -22.98072186 91.47205056 -25.28485107 97.03604126 C-26.11405268 98.96486199 -26.11405268 98.96486199 -26 101 C-10.16 101 5.68 101 22 101 C14.30507707 80.21020823 6.18207617 59.60167467 -2 39 C-2.33 39 -2.66 39 -3 39 Z " fill="#A0968A" transform="translate(1064,1048)"/>
<path d="M0 0 C3.63 0 7.26 0 11 0 C19.52700282 21.77490842 28.00440863 43.56851768 36.41864014 65.38726807 C37.81629956 69.00984804 39.2157835 72.63171844 40.61572266 76.25341797 C44.79778959 87.07695014 48.97074772 97.90340713 53.08781433 108.75186157 C54.80971208 113.28529225 56.54099967 117.81510583 58.27352905 122.34448242 C59.08225069 124.46640831 59.88641561 126.59007729 60.68569946 128.71557617 C61.78934319 131.64956263 62.90855331 134.57716769 64.03125 137.50390625 C64.34599777 138.35336319 64.66074554 139.20282013 64.98503113 140.07801819 C67.67531956 147.013737 71.10706217 153.66730623 77.8125 157.375 C82.07634108 159.23888411 86.43857636 160.14473307 91 161 C91 164.3 91 167.6 91 171 C67.9 171 44.8 171 21 171 C21 167.7 21 164.4 21 161 C22.10859375 160.80664062 23.2171875 160.61328125 24.359375 160.4140625 C25.82297476 160.15136511 27.28651327 159.88832633 28.75 159.625 C29.47960937 159.49867188 30.20921875 159.37234375 30.9609375 159.2421875 C34.5938428 158.58165926 37.8187005 157.92552338 41 156 C40.41701889 150.50737256 39.02860334 145.80648593 37.05859375 140.66015625 C36.80404419 139.9791687 36.54949463 139.29818115 36.28723145 138.59655762 C35.34506422 136.08228985 34.39057601 133.57265291 33.4375 131.0625 C31.313125 125.431875 29.18875 119.80125 27 114 C7.86 113.67 -11.28 113.34 -31 113 C-31.33 114.65 -31.66 116.3 -32 118 C-32.66144544 120.11940935 -33.35309764 122.22950969 -34.06640625 124.33203125 C-34.6706543 126.14864258 -34.6706543 126.14864258 -35.28710938 128.00195312 C-36.13198495 130.53397522 -36.98825358 133.06133409 -37.84960938 135.58789062 C-40.9784263 144.61857046 -40.9784263 144.61857046 -41 154 C-35.95439468 159.72935558 -25.21908686 160.31895407 -18 161 C-18 164.3 -18 167.6 -18 171 C-39.12 171 -60.24 171 -82 171 C-82 167.7 -82 164.4 -82 161 C-81.23816406 160.85304688 -80.47632813 160.70609375 -79.69140625 160.5546875 C-72.46169028 158.9841874 -66.27000439 157.38293305 -61 152 C-59.61667473 149.66640906 -58.39361883 147.41099151 -57.22265625 144.9765625 C-56.8795491 144.27526718 -56.53644196 143.57397186 -56.18293762 142.85142517 C-52.0634517 134.27367924 -48.62682767 125.42880419 -45.1875 116.5625 C-44.45499592 114.69045115 -43.72190736 112.81863091 -42.98828125 110.94702148 C-41.04560157 105.98402207 -39.11305336 101.01714596 -37.184021 96.04882812 C-36.00382883 93.00985915 -34.82176458 89.97162474 -33.63916016 86.93359375 C-28.47702966 73.66949038 -23.33640856 60.39712667 -18.20599365 47.12072754 C-16.97306777 43.93030796 -15.73975477 40.74003825 -14.50634766 37.54980469 C-9.66782099 25.03439094 -4.83228032 12.51782678 0 0 Z M-2 40 C-5.34501803 46.37488088 -7.98147347 52.87800264 -10.51171875 59.61328125 C-11.13225883 61.25033272 -11.13225883 61.25033272 -11.76533508 62.92045593 C-13.0766793 66.38298915 -14.38209612 69.84772348 -15.6875 73.3125 C-16.57579782 75.65964681 -17.46446595 78.0066535 -18.35351562 80.35351562 C-19.97312387 84.63370194 -21.59206207 88.91413375 -23.20581055 93.1965332 C-23.52905807 94.05398636 -23.8523056 94.91143951 -24.18534851 95.7948761 C-24.82210725 97.51847439 -25.41894469 99.25683406 -26 101 C-10.16 101 5.68 101 22 101 C19.6248876 92.97799022 19.6248876 92.97799022 16.82348633 85.18310547 C16.22320366 83.65265091 16.22320366 83.65265091 15.61079407 82.09127808 C14.97780647 80.49535324 14.97780647 80.49535324 14.33203125 78.8671875 C13.89235519 77.74933868 13.45267914 76.63148987 12.99967957 75.47976685 C11.60772787 71.94334339 10.21020998 68.409151 8.8125 64.875 C7.86226016 62.46368746 6.91238669 60.05223051 5.96289062 57.640625 C3.64616069 51.75874024 1.32486855 45.87867231 -1 40 C-1.33 40 -1.66 40 -2 40 Z " fill="#A0968A" transform="translate(531,1048)"/>
<path d="M0 0 C25.08 0 50.16 0 76 0 C76 2.97 76 5.94 76 9 C74.67484375 9.24234375 73.3496875 9.4846875 71.984375 9.734375 C70.23942643 10.07210698 68.49464309 10.41069351 66.75 10.75 C65.87730469 10.90726563 65.00460937 11.06453125 64.10546875 11.2265625 C57.62475563 12.48000628 57.62475563 12.48000628 53 17 C52.00280826 20.09706924 51.87015163 22.94427259 51.85955811 26.18612671 C51.85384796 27.23472366 51.84813782 28.28332062 51.84225464 29.36369324 C51.84113678 30.50872818 51.84001892 31.65376312 51.83886719 32.83349609 C51.83390228 34.04363876 51.82893738 35.25378143 51.82382202 36.50059509 C51.81172579 39.81678716 51.80425871 43.13291629 51.79981136 46.44912291 C51.79687662 48.52229425 51.79277109 50.59546011 51.78830719 52.66862869 C51.77464061 59.15915283 51.76496941 65.6496644 51.7611053 72.14020193 C51.75662412 79.62534833 51.73907008 87.11031217 51.7101047 94.59540308 C51.68847406 100.38661616 51.67840031 106.17777793 51.67706418 111.96903098 C51.67601729 115.42555558 51.67013422 118.88190837 51.65224457 122.33839035 C51.63267178 126.19489155 51.63705838 130.05116518 51.64355469 133.90771484 C51.6343399 135.04870132 51.62512512 136.18968781 51.6156311 137.36524963 C51.64521681 142.96580238 51.72311015 147.21670289 55 152 C58.9838292 155.25166599 63.37285937 155.87967673 68.3125 156.6875 C69.42334961 156.88182617 69.42334961 156.88182617 70.55664062 157.08007812 C72.36952334 157.3958706 74.18456851 157.69920583 76 158 C76 161.3 76 164.6 76 168 C50.92 168 25.84 168 0 168 C0 164.7 0 161.4 0 158 C1.15757813 157.90203125 2.31515625 157.8040625 3.5078125 157.703125 C5.04696119 157.55296415 6.58601932 157.40187309 8.125 157.25 C8.88554688 157.188125 9.64609375 157.12625 10.4296875 157.0625 C15.70542144 156.51673442 18.87093522 155.3701401 23 152 C24.27280759 149.45438482 24.13446684 147.664051 24.14717102 144.81314087 C24.15432632 143.713918 24.16148163 142.61469513 24.16885376 141.48216248 C24.17154266 140.27069046 24.17423157 139.05921844 24.17700195 137.81103516 C24.18357315 136.53945053 24.19014435 135.26786591 24.19691467 133.95774841 C24.21432724 130.46391435 24.2248768 126.97009398 24.2331202 123.47622728 C24.23826912 121.29420134 24.24434486 119.11217965 24.25063133 116.93015671 C24.26968292 110.10538921 24.28391492 103.28063255 24.2922433 96.45584357 C24.30202096 88.57328643 24.32835409 80.69100972 24.36874419 72.80855143 C24.39888122 66.71847531 24.4137098 60.62847969 24.41702431 54.53833044 C24.41937731 50.899579 24.42836962 47.26112716 24.45348549 43.6224556 C24.48104625 39.56404135 24.47694256 35.5062557 24.4699707 31.44775391 C24.48278076 30.24033035 24.49559082 29.0329068 24.50878906 27.78889465 C24.50184525 26.68403214 24.49490143 25.57916962 24.48774719 24.44082642 C24.49013555 23.48107218 24.4925239 22.52131794 24.49498463 21.53248024 C23.84879714 18.22640372 22.59615745 17.08522122 20 15 C13.57889255 12.13343418 6.82966279 10.60497076 0 9 C0 6.03 0 3.06 0 0 Z " fill="#A0968A" transform="translate(1330,1051)"/>
<path d="M0 0 C3.70617436 3.1205834 6.17425289 5.86107482 6.75 10.8125 C6.4375 13.125 6.4375 13.125 4.4375 15.125 C1.5 15.0625 1.5 15.0625 -1.5625 14.125 C-2.01625 13.361875 -2.47 12.59875 -2.9375 11.8125 C-5.25450861 7.98052422 -8.44336159 6.66401875 -12.5625 5.125 C-21.29110792 2.9953878 -30.32506191 3.4359315 -38.5625 7.125 C-41.77613964 9.1688684 -41.77613964 9.1688684 -43.5625 12.125 C-44.22957548 15.71000409 -44.22957548 15.71000409 -43.5625 19.125 C-39.79731844 23.94694641 -33.22220559 24.74924513 -27.47265625 25.56152344 C-23.0511172 26.02377525 -18.62712963 26.4160153 -14.1953125 26.765625 C-6.91104801 27.46834228 -0.63316019 28.83868721 5.4375 33.125 C8.99785396 37.55956826 10.12321793 42.25305888 9.8125 47.89453125 C8.83974639 53.68038868 6.32963708 57.72503511 1.8125 61.4375 C-5.77921962 66.47722681 -13.97887681 67.66699792 -22.9375 67.5625 C-24.31059326 67.55114014 -24.31059326 67.55114014 -25.71142578 67.53955078 C-35.33473461 67.30608287 -44.09924191 65.61363316 -51.22265625 58.69921875 C-53.26617817 56.29822944 -54.54654594 54.10936504 -55.5625 51.125 C-55.1722561 46.7347561 -55.1722561 46.7347561 -53.5625 45.125 C-50.8125 44.5625 -50.8125 44.5625 -47.5625 45.125 C-46.37109375 46.76953125 -46.37109375 46.76953125 -45.25 48.875 C-42.89696379 53.05570899 -40.75637804 54.7694291 -36.2734375 56.4375 C-26.51061089 58.91337534 -16.99877209 58.74076781 -7.5625 55.125 C-4.64917072 53.23990458 -3.09158466 52.18316932 -1.5625 49.125 C-1.03577196 44.5320614 -1.03577196 44.5320614 -2.80297852 40.50219727 C-10.02351809 34.85059969 -21.65609263 35.17749832 -30.37304688 34.39648438 C-38.29394743 33.57774909 -46.09175915 32.33909888 -51.5625 26.0625 C-54.89281264 21.17110331 -55.19737743 16.8762426 -54.5625 11.125 C-52.9216668 5.00513562 -49.45568654 1.57917257 -44.1015625 -1.62109375 C-30.95915582 -8.11142074 -12.31163512 -8.70111917 0 0 Z " fill="#A0968A" transform="translate(868.5625,1282.875)"/>
<path d="M0 0 C4.88480697 0.69924648 5.86616029 2.17718679 8.72900391 5.98486328 C9.28378418 6.76974121 9.83856445 7.55461914 10.41015625 8.36328125 C11.00876465 9.1713623 11.60737305 9.97944336 12.22412109 10.81201172 C14.11869936 13.37753492 15.98265023 15.96371186 17.84765625 18.55078125 C19.04413119 20.17390117 20.24329703 21.79504139 21.4453125 23.4140625 C23.78439773 26.56763911 26.11211049 29.72902277 28.4296875 32.8984375 C32.3041241 38.18821367 36.24569211 43.42679888 40.20556641 48.65283203 C43.74149274 53.33845424 43.74149274 53.33845424 44.84765625 55.55078125 C44.84321503 54.89123444 44.8387738 54.23168762 44.834198 53.55215454 C44.79005848 46.70699219 44.75982899 39.86187004 44.73779297 33.01660156 C44.72771587 30.45961872 44.71405399 27.90264746 44.69677734 25.34570312 C44.67260408 21.67705433 44.6611904 18.00855746 44.65234375 14.33984375 C44.64202118 13.19085602 44.63169861 12.04186829 44.62106323 10.85806274 C44.62083664 9.26663956 44.62083664 9.26663956 44.62060547 7.64306641 C44.61616425 6.70596832 44.61172302 5.76887024 44.60714722 4.80337524 C44.84765625 2.55078125 44.84765625 2.55078125 46.84765625 0.55078125 C49.91015625 0.36328125 49.91015625 0.36328125 52.84765625 0.55078125 C53.84765625 1.55078125 53.84765625 1.55078125 53.96791077 4.2905426 C53.96569016 5.51409958 53.96346954 6.73765656 53.96118164 7.99829102 C53.96132767 8.67143341 53.96147369 9.34457581 53.96162415 10.03811646 C53.96092503 12.27283909 53.95313277 14.50747935 53.9453125 16.7421875 C53.94344831 18.28775487 53.94202441 19.83332282 53.94102478 21.37889099 C53.93719965 25.45435202 53.92736942 29.52977762 53.9163208 33.60522461 C53.90610657 37.76090007 53.90152714 41.91658124 53.89648438 46.07226562 C53.88574714 54.23178712 53.86867079 62.39127978 53.84765625 70.55078125 C50.57004999 72.18958438 48.47453243 72.07853103 44.84765625 71.55078125 C42.17235482 69.31387287 40.28950124 66.57393749 38.28515625 63.73828125 C37.68654785 62.9302002 37.08793945 62.12211914 36.47119141 61.28955078 C34.57661314 58.72402758 32.71266227 56.13785064 30.84765625 53.55078125 C29.65118131 51.92766133 28.45201547 50.30652111 27.25 48.6875 C25.01825487 45.67891426 22.79807915 42.66259161 20.58984375 39.63671875 C15.40852289 32.55912562 10.1182125 25.56199242 4.84765625 18.55078125 C4.85431808 19.19779999 4.86097992 19.84481873 4.86784363 20.51144409 C4.93405485 27.22681728 4.97939754 33.94209824 5.01245117 40.65771484 C5.02756655 43.16621667 5.04805923 45.67469197 5.07397461 48.18310547 C5.11023667 51.78229307 5.12735499 55.38113225 5.140625 58.98046875 C5.15610886 60.1075827 5.17159271 61.23469666 5.18754578 62.39596558 C5.18788567 63.95735764 5.18788567 63.95735764 5.18823242 65.55029297 C5.19489426 66.46962616 5.20155609 67.38895935 5.2084198 68.33615112 C5.08936783 69.06697906 4.97031586 69.79780701 4.84765625 70.55078125 C1.84765625 72.55078125 1.84765625 72.55078125 -0.77734375 72.23828125 C-3.15234375 71.55078125 -3.15234375 71.55078125 -4.15234375 70.55078125 C-4.25186668 68.40877801 -4.28034054 66.2634542 -4.28173828 64.11914062 C-4.2834906 63.44760452 -4.28524292 62.77606842 -4.28704834 62.08418274 C-4.29146605 59.85427297 -4.28852917 57.62444189 -4.28515625 55.39453125 C-4.28582931 53.85135889 -4.28679936 52.30818664 -4.28805542 50.76501465 C-4.28953228 47.52676385 -4.28737822 44.28854058 -4.28271484 41.05029297 C-4.27701755 36.89035602 -4.28029662 32.73048359 -4.28628731 28.57054901 C-4.28989324 25.38278717 -4.28875419 22.19504074 -4.28615952 19.00727844 C-4.28549033 17.47300713 -4.28631836 15.93873443 -4.28863907 14.40446472 C-4.29116613 12.26374584 -4.28732429 10.12313283 -4.28173828 7.98242188 C-4.28094269 6.7618811 -4.28014709 5.54134033 -4.27932739 4.28381348 C-4.09792128 0.37946211 -3.91659009 0.68431128 0 0 Z " fill="#A0968A" transform="translate(1227.15234375,1277.44921875)"/>
<path d="M0 0 C2.79302713 -0.3173023 5.35965874 -0.44399232 8.15625 -0.43359375 C8.97315308 -0.4388356 9.79005615 -0.44407745 10.63171387 -0.44947815 C12.36676905 -0.45591201 14.10186777 -0.45454376 15.83691406 -0.44604492 C18.46240841 -0.43762062 21.08566321 -0.46613391 23.7109375 -0.49804688 C33.91676018 -0.54105826 42.8043308 -0.42184612 50.9375 6.5 C51.9584375 7.7375 51.9584375 7.7375 53 9 C53.556875 9.598125 54.11375 10.19625 54.6875 10.8125 C58.65261319 17.42102199 58.54429319 24.65051706 57 32 C54.07723664 37.84552672 49.73706176 41.9355871 43.625 44.3125 C42.325625 44.6528125 42.325625 44.6528125 41 45 C42.498471 48.54184054 44.54915885 50.72776562 47.3125 53.375 C56.79370382 62.70328118 56.79370382 62.70328118 57.4375 66.75 C57 69 57 69 55 71 C50.71887314 70.94815244 48.5741274 69.02266251 45.64819336 66.05053711 C44.89421265 65.25208374 44.89421265 65.25208374 44.125 64.4375 C43.5997876 63.89681885 43.0745752 63.3561377 42.53344727 62.79907227 C39.03943578 59.17583243 35.65190822 55.46599827 32.40234375 51.62109375 C31.93957031 51.08613281 31.47679687 50.55117187 31 50 C30.57686523 49.48211914 30.15373047 48.96423828 29.71777344 48.43066406 C27.4538255 46.54511334 26.03499187 46.57681794 23.11328125 46.48828125 C21.7065918 46.43510742 21.7065918 46.43510742 20.27148438 46.38085938 C19.29501953 46.35830078 18.31855469 46.33574219 17.3125 46.3125 C15.83040039 46.26125977 15.83040039 46.26125977 14.31835938 46.20898438 C11.87901947 46.12649462 9.44003937 46.05734932 7 46 C7.00523682 46.69150146 7.01047363 47.38300293 7.01586914 48.09545898 C7.036575 51.20946352 7.04963963 54.32345361 7.0625 57.4375 C7.07087891 58.52611328 7.07925781 59.61472656 7.08789062 60.73632812 C7.09111328 61.77080078 7.09433594 62.80527344 7.09765625 63.87109375 C7.10289307 64.82943115 7.10812988 65.78776855 7.11352539 66.77514648 C7 69 7 69 6 70 C3.0625 70.25 3.0625 70.25 0 70 C-2.35206313 66.4719053 -2.25286015 65.00988772 -2.25878906 60.83203125 C-2.26509338 59.56061279 -2.27139771 58.28919434 -2.27789307 56.97924805 C-2.27431328 55.59033062 -2.27021131 54.20141446 -2.265625 52.8125 C-2.26697226 51.3890781 -2.2689133 49.96565665 -2.27142334 48.54223633 C-2.27437175 45.55968849 -2.27008612 42.57726047 -2.26074219 39.59472656 C-2.24934771 35.77127036 -2.25590871 31.94809495 -2.26788712 28.12464905 C-2.27511339 25.18556604 -2.27281427 22.24654961 -2.26763153 19.3074646 C-2.26629716 17.89765388 -2.26793535 16.48783711 -2.27259064 15.07803345 C-2.27766816 13.10801305 -2.26855731 11.13797147 -2.25878906 9.16796875 C-2.25719788 8.04672607 -2.25560669 6.9254834 -2.25396729 5.77026367 C-2 3 -2 3 0 0 Z M7 8 C7 17.9 7 27.8 7 38 C11.104375 38.061875 15.20875 38.12375 19.4375 38.1875 C21.35067017 38.22846802 21.35067017 38.22846802 23.30249023 38.27026367 C31.43224976 38.32921631 37.85715979 37.37992948 44.9375 33.3125 C47.79220725 30.11176763 48.81357664 27.27996962 49 23 C48.27459034 18.52389267 46.56233636 15.16146227 43.1875 12.125 C38.04379632 8.69586421 33.64323401 7.74625491 27.5078125 7.8046875 C25.88576904 7.81218018 25.88576904 7.81218018 24.23095703 7.81982422 C22.1985083 7.84713623 22.1985083 7.84713623 20.125 7.875 C15.79375 7.91625 11.4625 7.9575 7 8 Z " fill="#A0968A" transform="translate(554,1279)"/>
<path d="M0 0 C1.37447548 0.00213753 1.37447548 0.00213753 2.77671814 0.00431824 C3.81441849 0.00124161 4.85211884 -0.00183502 5.92126465 -0.00500488 C7.60723 0.00577339 7.60723 0.00577339 9.32725525 0.01676941 C11.0507444 0.01745674 11.0507444 0.01745674 12.80905151 0.01815796 C15.24099254 0.0211829 17.67293159 0.02907637 20.10484314 0.04142761 C23.8424612 0.05967889 27.57983167 0.06193739 31.31748962 0.06169128 C33.67491366 0.06660644 36.032336 0.07243475 38.38975525 0.07926941 C40.07875694 0.08093864 40.07875694 0.08093864 41.80187988 0.0826416 C42.83642807 0.08902145 43.87097626 0.09540131 44.93687439 0.10197449 C46.31015648 0.10769218 46.31015648 0.10769218 47.71118164 0.11352539 C49.792099 0.24723816 49.792099 0.24723816 50.792099 1.24723816 C50.979599 3.68473816 50.979599 3.68473816 50.792099 6.24723816 C48.792099 8.24723816 48.792099 8.24723816 46.88117981 8.48774719 C45.71535873 8.48108536 45.71535873 8.48108536 44.52598572 8.47428894 C43.64522369 8.47413788 42.76446167 8.47398682 41.85700989 8.47383118 C40.90488617 8.46350861 39.95276245 8.45318604 38.9717865 8.44255066 C37.51109238 8.43830582 37.51109238 8.43830582 36.02088928 8.43397522 C32.90283551 8.42275729 29.78506632 8.39764986 26.667099 8.37223816 C24.55642606 8.36221044 22.44574862 8.35308423 20.33506775 8.34489441 C15.15387964 8.32451208 9.97330882 8.28536644 4.792099 8.24723816 C4.792099 15.83723816 4.792099 23.42723816 4.792099 31.24723816 C9.30510681 31.21243347 9.30510681 31.21243347 13.9092865 31.17692566 C16.81504392 31.16133958 19.72079674 31.14918889 22.62657166 31.13737488 C24.65003027 31.12730145 26.67347428 31.11364221 28.69688416 31.09635925 C31.60105489 31.07216969 34.50503361 31.06076867 37.4092865 31.05192566 C38.31766266 31.04160309 39.22603882 31.03128052 40.16194153 31.02064514 C41.00266205 31.02049408 41.84338257 31.02034302 42.70957947 31.02018738 C43.82210587 31.01352554 43.82210587 31.01352554 44.95710754 31.00672913 C46.792099 31.24723816 46.792099 31.24723816 48.792099 33.24723816 C48.979599 35.80973816 48.979599 35.80973816 48.792099 38.24723816 C47.792099 39.24723816 47.792099 39.24723816 46.03939819 39.36749268 C45.27772842 39.36527206 44.51605865 39.36305145 43.73130798 39.36076355 C42.87049118 39.36068802 42.00967438 39.36061249 41.12277222 39.36053467 C40.18736099 39.35537338 39.25194977 39.3502121 38.28819275 39.34489441 C37.33517776 39.34347946 36.38216278 39.34206451 35.40026855 39.34060669 C32.34334735 39.33498968 29.28649823 39.32243432 26.229599 39.30973816 C24.16254276 39.30472535 22.09548538 39.30016206 20.02842712 39.29606628 C14.94960067 39.28586374 9.87093094 39.26629172 4.792099 39.24723816 C4.792099 46.83723816 4.792099 54.42723816 4.792099 62.24723816 C8.02893494 62.2356366 11.26577087 62.22403503 14.60069275 62.21208191 C17.72154136 62.20429229 20.84238891 62.19821499 23.96324158 62.19230652 C26.13902773 62.18726508 28.31481047 62.18043209 30.49058533 62.17179871 C33.61062967 62.15972478 36.73062938 62.15400811 39.85069275 62.14958191 C41.31943092 62.14183998 41.31943092 62.14183998 42.81784058 62.13394165 C44.16912804 62.13382835 44.16912804 62.13382835 45.54771423 62.13371277 C46.34491379 62.13149216 47.14211334 62.12927155 47.96347046 62.12698364 C49.792099 62.24723816 49.792099 62.24723816 50.792099 63.24723816 C50.83290683 65.2468218 50.83464256 67.2476907 50.792099 69.24723816 C48.35213542 70.46721995 46.75028752 70.38708134 44.02281189 70.40837097 C42.5360067 70.42278229 42.5360067 70.42278229 41.01916504 70.43748474 C39.40823219 70.44385956 39.40823219 70.44385956 37.76475525 70.45036316 C36.66489792 70.45606323 35.56504059 70.46176331 34.43185425 70.46763611 C32.10248276 70.47709372 29.77309784 70.4836231 27.44371033 70.48747253 C23.87275502 70.49718876 20.30237251 70.52820991 16.73155212 70.55973816 C14.47178993 70.56626692 12.2120236 70.57151789 9.95225525 70.57536316 C8.88032425 70.58770996 7.80839325 70.60005676 6.70397949 70.61277771 C5.70962387 70.60977661 4.71526825 70.60677551 3.69078064 70.60368347 C2.37745506 70.60915192 2.37745506 70.60915192 1.03759766 70.61473083 C-1.207901 70.24723816 -1.207901 70.24723816 -2.99079895 69.1171875 C-4.7726579 66.37954856 -4.58200652 64.22130472 -4.58021545 60.97160339 C-4.58955864 59.02960304 -4.58955864 59.02960304 -4.59909058 57.04837036 C-4.59040342 55.63418696 -4.58108554 54.22000732 -4.57118225 52.80583191 C-4.57066364 51.35759481 -4.57118137 49.90935701 -4.57269287 48.46112061 C-4.57260317 45.42723572 -4.56217816 42.39361672 -4.54408264 39.35978699 C-4.52137508 35.46671381 -4.5208552 31.57402846 -4.52760029 27.68090725 C-4.53093775 24.6912388 -4.52431478 21.70165915 -4.51447105 18.71200752 C-4.51061641 17.27625556 -4.50947193 15.84049373 -4.5110569 14.40473747 C-4.51142678 12.40096196 -4.49734765 10.39719936 -4.4825592 8.39347839 C-4.47795181 7.25225021 -4.47334442 6.11102203 -4.46859741 4.93521118 C-4.14100096 1.55744922 -3.46210832 0.38768282 0 0 Z " fill="#A0968A" transform="translate(923.2079010009766,1278.7527618408203)"/>
<path d="M0 0 C1.37447548 0.00213753 1.37447548 0.00213753 2.77671814 0.00431824 C3.81441849 0.00124161 4.85211884 -0.00183502 5.92126465 -0.00500488 C7.60723 0.00577339 7.60723 0.00577339 9.32725525 0.01676941 C11.0507444 0.01745674 11.0507444 0.01745674 12.80905151 0.01815796 C15.24099254 0.0211829 17.67293159 0.02907637 20.10484314 0.04142761 C23.8424612 0.05967889 27.57983167 0.06193739 31.31748962 0.06169128 C33.67491366 0.06660644 36.032336 0.07243475 38.38975525 0.07926941 C40.07875694 0.08093864 40.07875694 0.08093864 41.80187988 0.0826416 C42.83642807 0.08902145 43.87097626 0.09540131 44.93687439 0.10197449 C46.31015648 0.10769218 46.31015648 0.10769218 47.71118164 0.11352539 C49.792099 0.24723816 49.792099 0.24723816 50.792099 1.24723816 C50.979599 3.68473816 50.979599 3.68473816 50.792099 6.24723816 C48.792099 8.24723816 48.792099 8.24723816 46.88117981 8.48774719 C45.71535873 8.48108536 45.71535873 8.48108536 44.52598572 8.47428894 C43.64522369 8.47413788 42.76446167 8.47398682 41.85700989 8.47383118 C40.90488617 8.46350861 39.95276245 8.45318604 38.9717865 8.44255066 C37.51109238 8.43830582 37.51109238 8.43830582 36.02088928 8.43397522 C32.90283551 8.42275729 29.78506632 8.39764986 26.667099 8.37223816 C24.55642606 8.36221044 22.44574862 8.35308423 20.33506775 8.34489441 C15.15387964 8.32451208 9.97330882 8.28536644 4.792099 8.24723816 C4.792099 15.83723816 4.792099 23.42723816 4.792099 31.24723816 C9.30510681 31.21243347 9.30510681 31.21243347 13.9092865 31.17692566 C16.81504392 31.16133958 19.72079674 31.14918889 22.62657166 31.13737488 C24.65003027 31.12730145 26.67347428 31.11364221 28.69688416 31.09635925 C31.60105489 31.07216969 34.50503361 31.06076867 37.4092865 31.05192566 C38.31766266 31.04160309 39.22603882 31.03128052 40.16194153 31.02064514 C41.00266205 31.02049408 41.84338257 31.02034302 42.70957947 31.02018738 C43.82210587 31.01352554 43.82210587 31.01352554 44.95710754 31.00672913 C46.792099 31.24723816 46.792099 31.24723816 48.792099 33.24723816 C48.462099 35.22723816 48.132099 37.20723816 47.792099 39.24723816 C33.602099 39.24723816 19.412099 39.24723816 4.792099 39.24723816 C4.792099 46.83723816 4.792099 54.42723816 4.792099 62.24723816 C8.02893494 62.2356366 11.26577087 62.22403503 14.60069275 62.21208191 C17.72154136 62.20429229 20.84238891 62.19821499 23.96324158 62.19230652 C26.13902773 62.18726508 28.31481047 62.18043209 30.49058533 62.17179871 C33.61062967 62.15972478 36.73062938 62.15400811 39.85069275 62.14958191 C41.31943092 62.14183998 41.31943092 62.14183998 42.81784058 62.13394165 C44.16912804 62.13382835 44.16912804 62.13382835 45.54771423 62.13371277 C46.34491379 62.13149216 47.14211334 62.12927155 47.96347046 62.12698364 C49.792099 62.24723816 49.792099 62.24723816 50.792099 63.24723816 C50.83290683 65.2468218 50.83464256 67.2476907 50.792099 69.24723816 C48.35213542 70.46721995 46.75028752 70.38708134 44.02281189 70.40837097 C42.5360067 70.42278229 42.5360067 70.42278229 41.01916504 70.43748474 C39.40823219 70.44385956 39.40823219 70.44385956 37.76475525 70.45036316 C36.66489792 70.45606323 35.56504059 70.46176331 34.43185425 70.46763611 C32.10248276 70.47709372 29.77309784 70.4836231 27.44371033 70.48747253 C23.87275502 70.49718876 20.30237251 70.52820991 16.73155212 70.55973816 C14.47178993 70.56626692 12.2120236 70.57151789 9.95225525 70.57536316 C8.88032425 70.58770996 7.80839325 70.60005676 6.70397949 70.61277771 C5.70962387 70.60977661 4.71526825 70.60677551 3.69078064 70.60368347 C2.37745506 70.60915192 2.37745506 70.60915192 1.03759766 70.61473083 C-1.207901 70.24723816 -1.207901 70.24723816 -2.99079895 69.1171875 C-4.7726579 66.37954856 -4.58200652 64.22130472 -4.58021545 60.97160339 C-4.58955864 59.02960304 -4.58955864 59.02960304 -4.59909058 57.04837036 C-4.59040342 55.63418696 -4.58108554 54.22000732 -4.57118225 52.80583191 C-4.57066364 51.35759481 -4.57118137 49.90935701 -4.57269287 48.46112061 C-4.57260317 45.42723572 -4.56217816 42.39361672 -4.54408264 39.35978699 C-4.52137508 35.46671381 -4.5208552 31.57402846 -4.52760029 27.68090725 C-4.53093775 24.6912388 -4.52431478 21.70165915 -4.51447105 18.71200752 C-4.51061641 17.27625556 -4.50947193 15.84049373 -4.5110569 14.40473747 C-4.51142678 12.40096196 -4.49734765 10.39719936 -4.4825592 8.39347839 C-4.47795181 7.25225021 -4.47334442 6.11102203 -4.46859741 4.93521118 C-4.14100096 1.55744922 -3.46210832 0.38768282 0 0 Z " fill="#A0968A" transform="translate(1332.2079010009766,1278.7527618408203)"/>
<path d="M0 0 C4.99698963 4.06960072 8.34261898 8.74012942 9.125 15.25390625 C9.21489653 22.05008356 8.81817408 27.78933947 4.7890625 33.45703125 C-0.48402206 38.57599643 -6.13609973 41.73751189 -13.5859375 41.76953125 C-21.06616907 41.59907021 -26.25301598 39.04484493 -31.703125 34.046875 C-36.39455151 29.10021544 -37.3758224 23.06212619 -37.2109375 16.45703125 C-35.90860826 9.04128872 -33.40946863 4.06048682 -27.5234375 -0.73046875 C-18.39197548 -5.7269291 -8.67388005 -5.99569 0 0 Z " fill="#A0968A" transform="translate(929.2109375,632.54296875)"/>
<path d="M0 0 C2.9375 0.1875 2.9375 0.1875 3.9375 1.1875 C4.07332089 4.03763749 4.14821962 6.86684097 4.18359375 9.71875 C4.21656814 11.49740009 4.24977911 13.2760458 4.28320312 15.0546875 C4.33036545 17.8609678 4.3747141 20.66723519 4.41430664 23.47363281 C4.45439655 26.18054165 4.50588734 28.88706134 4.55859375 31.59375 C4.5670079 32.41911255 4.57542206 33.2444751 4.58409119 34.09484863 C4.77003155 42.99883207 5.75264798 49.9913308 12.09375 56.52734375 C17.55667762 61.44629341 23.75451904 62.4828215 30.9375 62.1875 C37.65906218 60.84140466 42.56923958 58.49824255 46.81640625 53.06640625 C50.16470395 47.4547993 50.24502434 42.53120459 50.28125 36.14453125 C50.2958728 35.17972336 50.31049561 34.21491547 50.32556152 33.22087097 C50.38775455 29.10156239 50.42756505 24.98210801 50.46923828 20.86254883 C50.50287331 17.85221354 50.54799117 14.84220261 50.59375 11.83203125 C50.5990271 10.8955928 50.6043042 9.95915436 50.60974121 8.99433899 C50.62986267 7.69740364 50.62986267 7.69740364 50.65039062 6.37426758 C50.65768188 5.61213455 50.66497314 4.85000153 50.67248535 4.06477356 C50.9375 2.1875 50.9375 2.1875 52.9375 0.1875 C56 0 56 0 58.9375 0.1875 C60.50009605 1.75009605 60.08785291 3.28417428 60.11450195 5.45678711 C60.13375481 6.81972145 60.13375481 6.81972145 60.15339661 8.21018982 C60.16078354 9.20172562 60.16817047 10.19326141 60.17578125 11.21484375 C60.183853 12.23292618 60.19192474 13.25100861 60.20024109 14.29994202 C60.21410836 16.46467373 60.22481861 18.62942755 60.23266602 20.79418945 C60.24976595 24.08002523 60.29361477 27.36482521 60.33789062 30.65039062 C60.34802721 32.75520094 60.35654028 34.86001982 60.36328125 36.96484375 C60.38078934 37.93816147 60.39829742 38.91147919 60.41633606 39.91429138 C60.39150628 47.86670249 58.54677174 55.06428025 53.6875 61.5 C46.45116884 68.57186909 38.02487687 71.96321592 27.8515625 72.28515625 C18.13673443 71.7731923 9.84509835 68.97615533 2.6953125 62.24609375 C-4.37865078 53.96169675 -5.21727856 44.93219526 -5.23046875 34.484375 C-5.23546135 33.10587372 -5.23546135 33.10587372 -5.24055481 31.69952393 C-5.2455985 29.76648456 -5.24796393 27.83343656 -5.24780273 25.90039062 C-5.250003 22.93345076 -5.26822302 19.96687485 -5.28710938 17 C-5.29004101 15.11979294 -5.29202734 13.23958411 -5.29296875 11.359375 C-5.30015427 10.46982117 -5.30733978 9.58026733 -5.31474304 8.66375732 C-5.28350203 0.32347972 -5.28350203 0.32347972 0 0 Z " fill="#A0968A" transform="translate(658.0625,1277.8125)"/>
<path d="M0 0 C4.50184834 3.70369793 4.50184834 3.70369793 6.13671875 6.12890625 C5.79656127 10.46906373 5.79656127 10.46906373 4.13671875 12.12890625 C1.23121463 12.43268577 -0.37114995 12.43044335 -2.890625 10.88671875 C-3.52097656 10.34789062 -4.15132813 9.8090625 -4.80078125 9.25390625 C-10.7950345 4.15817556 -16.91195054 3.66777419 -24.54296875 3.82421875 C-31.58719037 4.47062967 -36.88707129 6.67701442 -41.80078125 11.81640625 C-46.68572265 18.04931497 -48.5001934 24.70720467 -48.20703125 32.5859375 C-47.08820178 40.86273277 -43.08905718 47.63855803 -36.86328125 53.12890625 C-30.52663652 57.50995321 -23.91005461 58.85015742 -16.36328125 57.50390625 C-10.60485064 56.0319758 -5.75817605 53.19099765 -1.73828125 48.81640625 C0.13671875 47.12890625 0.13671875 47.12890625 3.32421875 46.81640625 C6.13671875 47.12890625 6.13671875 47.12890625 7.13671875 48.12890625 C7.51559354 51.61649722 7.63590239 53.45127049 5.51953125 56.32421875 C-4.59431804 64.96823527 -14.67959457 68.0078187 -27.86328125 67.12890625 C-37.87642853 65.43613923 -44.89383471 59.99267713 -51.32421875 52.34375 C-56.88227934 44.34522118 -58.77323317 34.70940002 -57.86328125 25.12890625 C-55.70715144 14.41320085 -51.52931967 6.31386497 -42.67578125 -0.24609375 C-29.80659851 -8.12518523 -12.69483783 -8.29580808 0 0 Z " fill="#A0968A" transform="translate(502.86328125,1282.87109375)"/>
<path d="M0 0 C2.9375 0.1875 2.9375 0.1875 3.9375 1.1875 C4.03146057 3.12056498 4.05493517 5.05708838 4.05102539 6.99243164 C4.05094986 8.23364273 4.05087433 9.47485382 4.05079651 10.75367737 C4.04568911 12.1183374 4.0404731 13.48299702 4.03515625 14.84765625 C4.033292 16.23628183 4.03186813 17.62490807 4.03086853 19.01353455 C4.02704387 22.67471115 4.01721403 26.3358483 4.00616455 29.99700928 C3.99594932 33.73042263 3.99137067 37.46384234 3.98632812 41.19726562 C3.97559171 48.52736177 3.95851591 55.85742536 3.9375 63.1875 C4.76102211 63.18416908 4.76102211 63.18416908 5.60118103 63.18077087 C11.29457959 63.15871642 16.9879661 63.14359274 22.68139648 63.13256836 C24.80868014 63.12752702 26.93596031 63.12069409 29.06323242 63.11206055 C32.11377826 63.09998621 35.16427845 63.09426986 38.21484375 63.08984375 C39.65077126 63.08210182 39.65077126 63.08210182 41.1157074 63.07420349 C42.43696373 63.07409019 42.43696373 63.07409019 43.78491211 63.07397461 C44.9540641 63.07064369 44.9540641 63.07064369 46.14683533 63.06724548 C47.9375 63.1875 47.9375 63.1875 48.9375 64.1875 C49.125 66.625 49.125 66.625 48.9375 69.1875 C46.430438 71.694562 45.61711467 71.44397173 42.15234375 71.4621582 C41.1579126 71.47169022 40.16348145 71.48122223 39.13891602 71.49104309 C38.06182373 71.49013168 36.98473145 71.48922028 35.875 71.48828125 C34.772771 71.49256638 33.67054199 71.4968515 32.53491211 71.50126648 C30.20134163 71.50701699 27.86775323 71.50750477 25.53417969 71.50317383 C21.95216502 71.50001294 18.37097501 71.52346815 14.7890625 71.54882812 C12.52604271 71.55110084 10.2630207 71.55180475 8 71.55078125 C6.92290771 71.559991 5.84581543 71.56920074 4.73608398 71.57868958 C3.74165283 71.57246078 2.74722168 71.56623199 1.72265625 71.55981445 C0.84488525 71.56044388 -0.03288574 71.5610733 -0.93725586 71.5617218 C-1.63858643 71.43822861 -2.33991699 71.31473541 -3.0625 71.1875 C-5.44321067 67.616434 -5.31547315 66.05918616 -5.32128906 61.82006836 C-5.32759338 60.50538071 -5.33389771 59.19069305 -5.34039307 57.83616638 C-5.33681366 56.39989081 -5.33271179 54.96361646 -5.328125 53.52734375 C-5.32947208 52.05668575 -5.33141297 50.58602818 -5.33392334 49.1153717 C-5.33687168 46.03447222 -5.33258571 42.95368874 -5.32324219 39.87280273 C-5.31183771 35.91921495 -5.3184151 31.96589839 -5.33038712 28.01232052 C-5.33760503 24.97634324 -5.3353183 21.94043056 -5.33013153 18.90445137 C-5.32879536 17.44636567 -5.33044163 15.98827414 -5.33509064 14.53019524 C-5.34015555 12.4953103 -5.33107032 10.46040484 -5.32128906 8.42553711 C-5.31969788 7.26654404 -5.31810669 6.10755096 -5.31646729 4.91343689 C-4.94253531 0.89986893 -3.98441973 0.24394407 0 0 Z " fill="#A0968A" transform="translate(1082.0625,1277.8125)"/>
<path d="M0 0 C2.5 0.25 2.5 0.25 4.5 2.25 C4.75396729 5.13452148 4.75396729 5.13452148 4.75878906 8.87109375 C4.7622937 9.55092316 4.76579834 10.23075256 4.76940918 10.93118286 C4.77822781 13.18339176 4.77237705 15.43528778 4.765625 17.6875 C4.76697162 19.24926819 4.76891212 20.81103598 4.77142334 22.37280273 C4.77437477 25.64798977 4.77007639 28.92306781 4.76074219 32.19824219 C4.74934757 36.40183691 4.75590695 40.60517625 4.76788712 44.8087616 C4.77510523 48.03432142 4.77281803 51.25982045 4.76763153 54.48538208 C4.7662949 56.03557363 4.76794324 57.58577065 4.77259064 59.13595581 C4.77765516 61.30042193 4.7699471 63.46447127 4.75878906 65.62890625 C4.75640228 67.47850952 4.75640228 67.47850952 4.75396729 69.36547852 C4.5 72.25 4.5 72.25 2.5 74.25 C0 74.5 0 74.5 -2.5 74.25 C-5.32665591 71.42334409 -4.75367965 69.58838076 -4.75878906 65.62890625 C-4.7622937 64.94907684 -4.76579834 64.26924744 -4.76940918 63.56881714 C-4.77822781 61.31660824 -4.77237705 59.06471222 -4.765625 56.8125 C-4.76697162 55.25073181 -4.76891212 53.68896402 -4.77142334 52.12719727 C-4.77437477 48.85201023 -4.77007639 45.57693219 -4.76074219 42.30175781 C-4.74934757 38.09816309 -4.75590695 33.89482375 -4.76788712 29.6912384 C-4.77510523 26.46567858 -4.77281803 23.24017955 -4.76763153 20.01461792 C-4.7662949 18.46442637 -4.76794324 16.91422935 -4.77259064 15.36404419 C-4.77765516 13.19957807 -4.7699471 11.03552873 -4.75878906 8.87109375 C-4.75719788 7.6380249 -4.75560669 6.40495605 -4.75396729 5.13452148 C-4.42791791 1.43130267 -3.75994669 0.37599467 0 0 Z " fill="#A0968A" transform="translate(1173.5,1275.75)"/>
<path d="M0 0 C2.5 0.25 2.5 0.25 4.5 2.25 C4.75396729 5.13452148 4.75396729 5.13452148 4.75878906 8.87109375 C4.7622937 9.55092316 4.76579834 10.23075256 4.76940918 10.93118286 C4.77822781 13.18339176 4.77237705 15.43528778 4.765625 17.6875 C4.76697162 19.24926819 4.76891212 20.81103598 4.77142334 22.37280273 C4.77437477 25.64798977 4.77007639 28.92306781 4.76074219 32.19824219 C4.74934757 36.40183691 4.75590695 40.60517625 4.76788712 44.8087616 C4.77510523 48.03432142 4.77281803 51.25982045 4.76763153 54.48538208 C4.7662949 56.03557363 4.76794324 57.58577065 4.77259064 59.13595581 C4.77765516 61.30042193 4.7699471 63.46447127 4.75878906 65.62890625 C4.75640228 67.47850952 4.75640228 67.47850952 4.75396729 69.36547852 C4.5 72.25 4.5 72.25 2.5 74.25 C0 74.5 0 74.5 -2.5 74.25 C-5.32665591 71.42334409 -4.75367965 69.58838076 -4.75878906 65.62890625 C-4.7622937 64.94907684 -4.76579834 64.26924744 -4.76940918 63.56881714 C-4.77822781 61.31660824 -4.77237705 59.06471222 -4.765625 56.8125 C-4.76697162 55.25073181 -4.76891212 53.68896402 -4.77142334 52.12719727 C-4.77437477 48.85201023 -4.77007639 45.57693219 -4.76074219 42.30175781 C-4.74934757 38.09816309 -4.75590695 33.89482375 -4.76788712 29.6912384 C-4.77510523 26.46567858 -4.77281803 23.24017955 -4.76763153 20.01461792 C-4.7662949 18.46442637 -4.76794324 16.91422935 -4.77259064 15.36404419 C-4.77765516 13.19957807 -4.7699471 11.03552873 -4.75878906 8.87109375 C-4.75719788 7.6380249 -4.75560669 6.40495605 -4.75396729 5.13452148 C-4.42791791 1.43130267 -3.75994669 0.37599467 0 0 Z " fill="#A0968A" transform="translate(769.5,1275.75)"/>
</svg>
